<?xml version="1.0" encoding="utf-8" standalone="no"?>
<!DOCTYPE svg PUBLIC "-//W3C//DTD SVG 1.1//EN"
  "http://www.w3.org/Graphics/SVG/1.1/DTD/svg11.dtd">
<svg xmlns:xlink="http://www.w3.org/1999/xlink" width="935.876463pt" height="393.531875pt" viewBox="0 0 935.876463 393.531875" xmlns="http://www.w3.org/2000/svg" version="1.1">
 <metadata>
  <rdf:RDF xmlns:dc="http://purl.org/dc/elements/1.1/" xmlns:cc="http://creativecommons.org/ns#" xmlns:rdf="http://www.w3.org/1999/02/22-rdf-syntax-ns#">
   <cc:Work>
    <dc:type rdf:resource="http://purl.org/dc/dcmitype/StillImage"/>
    <dc:date>2026-02-15T18:21:21.597533</dc:date>
    <dc:format>image/svg+xml</dc:format>
    <dc:creator>
     <cc:Agent>
      <dc:title>Matplotlib v3.10.8, https://matplotlib.org/</dc:title>
     </cc:Agent>
    </dc:creator>
   </cc:Work>
  </rdf:RDF>
 </metadata>
 <defs>
  <style type="text/css">*{stroke-linejoin: round; stroke-linecap: butt}</style>
 </defs>
 <g id="figure_1">
  <g id="patch_1">
   <path d="M 0 393.531875 
L 935.876462 393.531875 
L 935.876462 0 
L 0 0 
z
" style="fill: #ffffff"/>
  </g>
  <g id="axes_1">
   <g id="patch_2">
    <path d="M 45.716875 354.04 
L 439.937077 354.04 
L 439.937077 60.72 
L 45.716875 60.72 
z
" style="fill: #ffffff"/>
   </g>
   <g id="FillBetweenPolyCollection_1">
    <defs>
     <path id="maee2e79c64" d="M 63.635975 -68.71988 
L 63.635975 -60.397591 
L 67.255995 -60.397591 
L 70.876016 -106.792816 
L 74.496036 -106.795482 
L 78.116056 -116.395046 
L 81.736076 -198.508647 
L 85.356096 -197.351366 
L 88.976117 -204.177722 
L 92.596137 -248.229053 
L 96.216157 -241.402697 
L 99.836177 -239.696108 
L 103.456197 -231.0565 
L 107.076218 -229.123255 
L 110.696238 -240.336079 
L 114.316258 -235.312307 
L 117.936278 -222.408894 
L 121.556299 -216.441165 
L 125.176319 -216.123846 
L 128.796339 -221.990246 
L 132.416359 -237.029562 
L 136.036379 -235.002988 
L 139.6564 -230.736515 
L 143.27642 -252.570189 
L 146.89644 -244.282566 
L 150.51646 -246.61846 
L 154.136481 -243.96258 
L 157.756501 -273.187919 
L 161.376521 -265.294944 
L 164.996541 -252.17554 
L 168.616561 -260.175177 
L 172.236582 -256.761999 
L 175.856602 -254.202115 
L 179.476622 -261.988428 
L 183.096642 -240.016093 
L 186.716663 -233.40306 
L 190.336683 -258.148602 
L 193.956703 -247.589082 
L 197.576723 -232.76309 
L 201.196743 -230.309868 
L 204.816764 -234.683002 
L 208.436784 -258.895235 
L 212.056804 -256.96199 
L 215.676824 -273.82789 
L 219.296845 -264.228326 
L 222.916865 -265.401606 
L 226.536885 -271.161344 
L 230.156905 -273.82789 
L 233.776925 -269.454755 
L 237.396946 -271.777316 
L 241.016966 -219.681018 
L 244.636986 -221.136951 
L 248.257006 -218.15042 
L 251.877026 -258.361926 
L 255.497047 -257.615293 
L 259.117067 -260.601824 
L 262.737087 -265.398939 
L 266.357107 -259.321882 
L 269.977128 -222.310231 
L 273.597148 -223.056864 
L 277.217168 -216.657155 
L 280.837188 -216.123846 
L 284.457208 -249.402333 
L 288.077229 -251.524903 
L 291.697249 -251.53557 
L 295.317269 -250.788937 
L 298.937289 -240.97605 
L 302.55731 -239.589446 
L 306.17733 -257.188646 
L 309.79735 -256.548675 
L 313.41737 -256.655337 
L 317.03739 -264.974959 
L 320.657411 -265.61493 
L 324.277431 -268.281475 
L 327.897451 -261.56178 
L 331.517471 -266.681548 
L 335.137492 -255.162071 
L 338.757512 -233.568386 
L 342.377532 -224.976777 
L 345.997552 -226.36338 
L 349.617572 -216.017184 
L 353.237593 -239.352123 
L 356.857613 -257.615293 
L 360.477633 -268.065485 
L 364.097653 -220.710304 
L 367.717673 -219.217039 
L 371.337694 -219.537024 
L 374.957714 -215.590537 
L 378.577734 -208.12421 
L 382.197754 -205.76965 
L 385.817775 -213.883948 
L 389.437795 -240.122755 
L 393.057815 -244.175904 
L 396.677835 -245.242522 
L 400.297855 -241.402697 
L 403.917876 -242.453316 
L 407.537896 -235.002988 
L 411.157916 -270.500041 
L 414.777936 -262.521737 
L 418.397957 -230.736515 
L 422.017977 -226.256719 
L 422.017977 -279.054319 
L 422.017977 -279.054319 
L 418.397957 -281.720864 
L 414.777936 -287.800588 
L 411.157916 -295.160253 
L 407.537896 -286.520646 
L 403.917876 -284.707395 
L 400.297855 -280.227599 
L 396.677835 -280.86757 
L 393.057815 -282.376834 
L 389.437795 -276.921082 
L 385.817775 -282.160844 
L 382.197754 -281.614202 
L 378.577734 -271.374668 
L 374.957714 -273.614566 
L 371.337694 -276.281111 
L 367.717673 -281.827526 
L 364.097653 -279.69429 
L 360.477633 -291.853737 
L 356.857613 -282.894144 
L 353.237593 -271.590658 
L 349.617572 -276.601097 
L 345.997552 -280.654246 
L 342.377532 -276.387773 
L 338.757512 -288.440559 
L 335.137492 -272.441286 
L 331.517471 -285.134042 
L 327.897451 -282.150178 
L 324.277431 -279.800951 
L 320.657411 -281.400879 
L 317.03739 -287.587264 
L 313.41737 -276.81442 
L 309.79735 -275.214493 
L 306.17733 -282.04085 
L 302.55731 -273.82789 
L 298.937289 -281.966186 
L 295.317269 -282.147511 
L 291.697249 -277.678381 
L 288.077229 -272.65461 
L 284.457208 -276.387773 
L 280.837188 -272.441286 
L 277.217168 -266.366895 
L 273.597148 -282.574159 
L 269.977128 -282.787482 
L 266.357107 -287.843252 
L 262.737087 -279.587628 
L 259.117067 -289.827162 
L 255.497047 -285.134042 
L 251.877026 -280.014275 
L 248.257006 -273.614566 
L 244.636986 -283.107468 
L 241.016966 -272.65461 
L 237.396946 -284.710062 
L 233.776925 -288.205903 
L 230.156905 -291.533751 
L 226.536885 -283.107468 
L 222.916865 -288.973868 
L 219.296845 -273.82789 
L 215.676824 -284.38741 
L 212.056804 -283.000806 
L 208.436784 -282.787482 
L 204.816764 -290.25381 
L 201.196743 -277.561053 
L 197.576723 -279.907613 
L 193.956703 -267.641504 
L 190.336683 -274.574522 
L 186.716663 -271.587991 
L 183.096642 -281.720864 
L 179.476622 -283.427453 
L 175.856602 -280.128936 
L 172.236582 -277.774377 
L 168.616561 -277.561053 
L 164.996541 -273.081257 
L 161.376521 -277.241068 
L 157.756501 -288.227235 
L 154.136481 -284.920719 
L 150.51646 -289.088529 
L 146.89644 -275.534479 
L 143.27642 -281.614202 
L 139.6564 -282.787482 
L 136.036379 -293.027017 
L 132.416359 -281.187555 
L 128.796339 -289.187191 
L 125.176319 -271.801315 
L 121.556299 -274.361199 
L 117.936278 -276.707759 
L 114.316258 -285.667351 
L 110.696238 -284.174086 
L 107.076218 -286.213993 
L 103.456197 -267.214857 
L 99.836177 -271.48133 
L 96.216157 -259.961853 
L 92.596137 -267.001533 
L 88.976117 -260.503162 
L 85.356096 -241.402697 
L 81.736076 -214.097538 
L 78.116056 -200.017911 
L 74.496036 -167.69938 
L 70.876016 -159.699744 
L 67.255995 -68.613218 
L 63.635975 -68.71988 
z
" style="stroke: #e74c3c; stroke-opacity: 0.2"/>
    </defs>
    <g clip-path="url(#pf9edf8037c)">
     <use xlink:href="#maee2e79c64" x="0" y="393.531875" style="fill: #e74c3c; fill-opacity: 0.2; stroke: #e74c3c; stroke-opacity: 0.2"/>
    </g>
   </g>
   <g id="FillBetweenPolyCollection_2">
    <defs>
     <path id="m74be64d5d1" d="M 63.635975 -72.829026 
L 63.635975 -65.677351 
L 67.255995 -65.090711 
L 70.876016 -127.007897 
L 74.496036 -127.381213 
L 78.116056 -161.219675 
L 81.736076 -180.770786 
L 85.356096 -203.111104 
L 88.976117 -197.85801 
L 92.596137 -199.831253 
L 96.216157 -196.124755 
L 99.836177 -197.720016 
L 103.456197 -203.084439 
L 107.076218 -226.736697 
L 110.696238 -213.937279 
L 114.316258 -203.857737 
L 117.936278 -210.604097 
L 121.556299 -205.031017 
L 125.176319 -202.668458 
L 128.796339 -231.616475 
L 132.416359 -220.15033 
L 136.036379 -226.816693 
L 139.6564 -227.083348 
L 143.27642 -228.043304 
L 146.89644 -200.177904 
L 150.51646 -211.137406 
L 154.136481 -201.388516 
L 157.756501 -203.790407 
L 161.376521 -186.76518 
L 164.996541 -179.485511 
L 168.616561 -181.500753 
L 172.236582 -205.297671 
L 175.856602 -203.324428 
L 179.476622 -217.56378 
L 183.096642 -223.936824 
L 186.716663 -210.070788 
L 190.336683 -205.820981 
L 193.956703 -222.123573 
L 197.576723 -219.297035 
L 201.196743 -233.456391 
L 204.816764 -231.14183 
L 208.436784 -168.925991 
L 212.056804 -166.47277 
L 215.676824 -202.124482 
L 219.296845 -205.004351 
L 222.916865 -210.630762 
L 226.536885 -212.43668 
L 230.156905 -210.950748 
L 233.776925 -204.541572 
L 237.396946 -216.942475 
L 241.016966 -217.937097 
L 244.636986 -223.510177 
L 248.257006 -150.879478 
L 251.877026 -149.966853 
L 255.497047 -178.55222 
L 259.117067 -193.682866 
L 262.737087 -195.80477 
L 266.357107 -207.777559 
L 269.977128 -203.991064 
L 273.597148 -154.44665 
L 277.217168 -150.92681 
L 280.837188 -196.583401 
L 284.457208 -202.417802 
L 288.077229 -208.844177 
L 291.697249 -208.817511 
L 295.317269 -206.577613 
L 298.937289 -208.17754 
L 302.55731 -224.121482 
L 306.17733 -226.230053 
L 309.79735 -234.069697 
L 313.41737 -236.069606 
L 317.03739 -186.685184 
L 320.657411 -187.671806 
L 324.277431 -197.991337 
L 327.897451 -192.684911 
L 331.517471 -208.657519 
L 335.137492 -207.697562 
L 338.757512 -201.271188 
L 342.377532 -203.164435 
L 345.997552 -202.949778 
L 349.617572 -156.526555 
L 353.237593 -156.339897 
L 356.857613 -201.484511 
L 360.477633 -170.63258 
L 364.097653 -179.885493 
L 367.717673 -196.418075 
L 371.337694 -205.217675 
L 374.957714 -209.804133 
L 378.577734 -224.336806 
L 382.197754 -223.744166 
L 385.817775 -178.605551 
L 389.437795 -176.898962 
L 393.057815 -193.75153 
L 396.677835 -195.817436 
L 400.297855 -216.940475 
L 403.917876 -183.53866 
L 407.537896 -199.271279 
L 411.157916 -204.231053 
L 414.777936 -207.29758 
L 418.397957 -215.537206 
L 422.017977 -218.397076 
L 422.017977 -245.96249 
L 422.017977 -245.96249 
L 418.397957 -236.256264 
L 414.777936 -237.296217 
L 411.157916 -231.998458 
L 407.537896 -234.236356 
L 403.917876 -228.229962 
L 400.297855 -244.335897 
L 396.677835 -234.096362 
L 393.057815 -228.683275 
L 389.437795 -222.955535 
L 385.817775 -234.656337 
L 382.197754 -241.882675 
L 378.577734 -241.162708 
L 374.957714 -241.560023 
L 371.337694 -238.789482 
L 367.717673 -240.73606 
L 364.097653 -231.616475 
L 360.477633 -232.203115 
L 356.857613 -235.509631 
L 353.237593 -230.76318 
L 349.617572 -226.123391 
L 345.997552 -223.96349 
L 342.377532 -227.350002 
L 338.757512 -238.416166 
L 335.137492 -236.988231 
L 331.517471 -243.271945 
L 327.897451 -239.962762 
L 324.277431 -244.54922 
L 320.657411 -245.13586 
L 317.03739 -240.256082 
L 313.41737 -246.01782 
L 309.79735 -240.14942 
L 306.17733 -240.256082 
L 302.55731 -235.322973 
L 298.937289 -232.119785 
L 295.317269 -234.52301 
L 291.697249 -241.61602 
L 288.077229 -236.939833 
L 284.457208 -229.643231 
L 280.837188 -234.768332 
L 277.217168 -231.909795 
L 273.597148 -238.842813 
L 269.977128 -243.135951 
L 266.357107 -245.215857 
L 262.737087 -244.282566 
L 259.117067 -246.01582 
L 255.497047 -232.22978 
L 251.877026 -233.655049 
L 248.257006 -237.536206 
L 244.636986 -250.042304 
L 241.016966 -249.412999 
L 237.396946 -245.029199 
L 233.776925 -235.898947 
L 230.156905 -227.056682 
L 226.536885 -236.683178 
L 222.916865 -234.949657 
L 219.296845 -230.336533 
L 215.676824 -244.778543 
L 212.056804 -224.070151 
L 208.436784 -227.003351 
L 204.816764 -248.426378 
L 201.196743 -246.575795 
L 197.576723 -246.165147 
L 193.956703 -243.882584 
L 190.336683 -225.003442 
L 186.716663 -229.5979 
L 183.096642 -235.669624 
L 179.476622 -233.296399 
L 175.856602 -233.883039 
L 172.236582 -233.006412 
L 168.616561 -209.670806 
L 164.996541 -204.95102 
L 161.376521 -216.417166 
L 157.756501 -232.76309 
L 154.136481 -241.920007 
L 150.51646 -247.829071 
L 146.89644 -232.629762 
L 143.27642 -237.429544 
L 139.6564 -235.562962 
L 136.036379 -240.553402 
L 132.416359 -243.08262 
L 128.796339 -247.380425 
L 125.176319 -222.816875 
L 121.556299 -223.483511 
L 117.936278 -224.336806 
L 114.316258 -224.656791 
L 110.696238 -229.323246 
L 107.076218 -234.976322 
L 103.456197 -210.710759 
L 99.836177 -212.502011 
L 96.216157 -206.444286 
L 92.596137 -207.564235 
L 88.976117 -210.844086 
L 85.356096 -214.87057 
L 81.736076 -190.701002 
L 78.116056 -178.018911 
L 74.496036 -139.860646 
L 70.876016 -141.727228 
L 67.255995 -72.823693 
L 63.635975 -72.829026 
z
" style="stroke: #3498db; stroke-opacity: 0.2"/>
    </defs>
    <g clip-path="url(#pf9edf8037c)">
     <use xlink:href="#m74be64d5d1" x="0" y="393.531875" style="fill: #3498db; fill-opacity: 0.2; stroke: #3498db; stroke-opacity: 0.2"/>
    </g>
   </g>
   <g id="matplotlib.axis_1">
    <g id="xtick_1">
     <g id="line2d_1">
      <path d="M 60.015955 354.04 
L 60.015955 60.72 
" clip-path="url(#pf9edf8037c)" style="fill: none; stroke-dasharray: 2.96,1.28; stroke-dashoffset: 0; stroke: #b0b0b0; stroke-opacity: 0.6; stroke-width: 0.8"/>
     </g>
     <g id="line2d_2">
      <defs>
       <path id="m5fb2020709" d="M 0 0 
L 0 3.5 
" style="stroke: #000000; stroke-width: 0.8"/>
      </defs>
      <g>
       <use xlink:href="#m5fb2020709" x="60.015955" y="354.04" style="stroke: #000000; stroke-width: 0.8"/>
      </g>
     </g>
     <g id="text_1">
      <!-- 0 -->
      <g transform="translate(56.834705 368.638437) scale(0.1 -0.1)">
       <defs>
        <path id="DejaVuSans-30" d="M 2034 4250 
Q 1547 4250 1301 3770 
Q 1056 3291 1056 2328 
Q 1056 1369 1301 889 
Q 1547 409 2034 409 
Q 2525 409 2770 889 
Q 3016 1369 3016 2328 
Q 3016 3291 2770 3770 
Q 2525 4250 2034 4250 
z
M 2034 4750 
Q 2819 4750 3233 4129 
Q 3647 3509 3647 2328 
Q 3647 1150 3233 529 
Q 2819 -91 2034 -91 
Q 1250 -91 836 529 
Q 422 1150 422 2328 
Q 422 3509 836 4129 
Q 1250 4750 2034 4750 
z
" transform="scale(0.015625)"/>
       </defs>
       <use xlink:href="#DejaVuSans-30"/>
      </g>
     </g>
    </g>
    <g id="xtick_2">
     <g id="line2d_3">
      <path d="M 120.349625 354.04 
L 120.349625 60.72 
" clip-path="url(#pf9edf8037c)" style="fill: none; stroke-dasharray: 2.96,1.28; stroke-dashoffset: 0; stroke: #b0b0b0; stroke-opacity: 0.6; stroke-width: 0.8"/>
     </g>
     <g id="line2d_4">
      <g>
       <use xlink:href="#m5fb2020709" x="120.349625" y="354.04" style="stroke: #000000; stroke-width: 0.8"/>
      </g>
     </g>
     <g id="text_2">
      <!-- 500 -->
      <g transform="translate(110.805875 368.638437) scale(0.1 -0.1)">
       <defs>
        <path id="DejaVuSans-35" d="M 691 4666 
L 3169 4666 
L 3169 4134 
L 1269 4134 
L 1269 2991 
Q 1406 3038 1543 3061 
Q 1681 3084 1819 3084 
Q 2600 3084 3056 2656 
Q 3513 2228 3513 1497 
Q 3513 744 3044 326 
Q 2575 -91 1722 -91 
Q 1428 -91 1123 -41 
Q 819 9 494 109 
L 494 744 
Q 775 591 1075 516 
Q 1375 441 1709 441 
Q 2250 441 2565 725 
Q 2881 1009 2881 1497 
Q 2881 1984 2565 2268 
Q 2250 2553 1709 2553 
Q 1456 2553 1204 2497 
Q 953 2441 691 2322 
L 691 4666 
z
" transform="scale(0.015625)"/>
       </defs>
       <use xlink:href="#DejaVuSans-35"/>
       <use xlink:href="#DejaVuSans-30" transform="translate(63.623047 0)"/>
       <use xlink:href="#DejaVuSans-30" transform="translate(127.246094 0)"/>
      </g>
     </g>
    </g>
    <g id="xtick_3">
     <g id="line2d_5">
      <path d="M 180.683295 354.04 
L 180.683295 60.72 
" clip-path="url(#pf9edf8037c)" style="fill: none; stroke-dasharray: 2.96,1.28; stroke-dashoffset: 0; stroke: #b0b0b0; stroke-opacity: 0.6; stroke-width: 0.8"/>
     </g>
     <g id="line2d_6">
      <g>
       <use xlink:href="#m5fb2020709" x="180.683295" y="354.04" style="stroke: #000000; stroke-width: 0.8"/>
      </g>
     </g>
     <g id="text_3">
      <!-- 1000 -->
      <g transform="translate(167.958295 368.638437) scale(0.1 -0.1)">
       <defs>
        <path id="DejaVuSans-31" d="M 794 531 
L 1825 531 
L 1825 4091 
L 703 3866 
L 703 4441 
L 1819 4666 
L 2450 4666 
L 2450 531 
L 3481 531 
L 3481 0 
L 794 0 
L 794 531 
z
" transform="scale(0.015625)"/>
       </defs>
       <use xlink:href="#DejaVuSans-31"/>
       <use xlink:href="#DejaVuSans-30" transform="translate(63.623047 0)"/>
       <use xlink:href="#DejaVuSans-30" transform="translate(127.246094 0)"/>
       <use xlink:href="#DejaVuSans-30" transform="translate(190.869141 0)"/>
      </g>
     </g>
    </g>
    <g id="xtick_4">
     <g id="line2d_7">
      <path d="M 241.016966 354.04 
L 241.016966 60.72 
" clip-path="url(#pf9edf8037c)" style="fill: none; stroke-dasharray: 2.96,1.28; stroke-dashoffset: 0; stroke: #b0b0b0; stroke-opacity: 0.6; stroke-width: 0.8"/>
     </g>
     <g id="line2d_8">
      <g>
       <use xlink:href="#m5fb2020709" x="241.016966" y="354.04" style="stroke: #000000; stroke-width: 0.8"/>
      </g>
     </g>
     <g id="text_4">
      <!-- 1500 -->
      <g transform="translate(228.291966 368.638437) scale(0.1 -0.1)">
       <use xlink:href="#DejaVuSans-31"/>
       <use xlink:href="#DejaVuSans-35" transform="translate(63.623047 0)"/>
       <use xlink:href="#DejaVuSans-30" transform="translate(127.246094 0)"/>
       <use xlink:href="#DejaVuSans-30" transform="translate(190.869141 0)"/>
      </g>
     </g>
    </g>
    <g id="xtick_5">
     <g id="line2d_9">
      <path d="M 301.350636 354.04 
L 301.350636 60.72 
" clip-path="url(#pf9edf8037c)" style="fill: none; stroke-dasharray: 2.96,1.28; stroke-dashoffset: 0; stroke: #b0b0b0; stroke-opacity: 0.6; stroke-width: 0.8"/>
     </g>
     <g id="line2d_10">
      <g>
       <use xlink:href="#m5fb2020709" x="301.350636" y="354.04" style="stroke: #000000; stroke-width: 0.8"/>
      </g>
     </g>
     <g id="text_5">
      <!-- 2000 -->
      <g transform="translate(288.625636 368.638437) scale(0.1 -0.1)">
       <defs>
        <path id="DejaVuSans-32" d="M 1228 531 
L 3431 531 
L 3431 0 
L 469 0 
L 469 531 
Q 828 903 1448 1529 
Q 2069 2156 2228 2338 
Q 2531 2678 2651 2914 
Q 2772 3150 2772 3378 
Q 2772 3750 2511 3984 
Q 2250 4219 1831 4219 
Q 1534 4219 1204 4116 
Q 875 4013 500 3803 
L 500 4441 
Q 881 4594 1212 4672 
Q 1544 4750 1819 4750 
Q 2544 4750 2975 4387 
Q 3406 4025 3406 3419 
Q 3406 3131 3298 2873 
Q 3191 2616 2906 2266 
Q 2828 2175 2409 1742 
Q 1991 1309 1228 531 
z
" transform="scale(0.015625)"/>
       </defs>
       <use xlink:href="#DejaVuSans-32"/>
       <use xlink:href="#DejaVuSans-30" transform="translate(63.623047 0)"/>
       <use xlink:href="#DejaVuSans-30" transform="translate(127.246094 0)"/>
       <use xlink:href="#DejaVuSans-30" transform="translate(190.869141 0)"/>
      </g>
     </g>
    </g>
    <g id="xtick_6">
     <g id="line2d_11">
      <path d="M 361.684306 354.04 
L 361.684306 60.72 
" clip-path="url(#pf9edf8037c)" style="fill: none; stroke-dasharray: 2.96,1.28; stroke-dashoffset: 0; stroke: #b0b0b0; stroke-opacity: 0.6; stroke-width: 0.8"/>
     </g>
     <g id="line2d_12">
      <g>
       <use xlink:href="#m5fb2020709" x="361.684306" y="354.04" style="stroke: #000000; stroke-width: 0.8"/>
      </g>
     </g>
     <g id="text_6">
      <!-- 2500 -->
      <g transform="translate(348.959306 368.638437) scale(0.1 -0.1)">
       <use xlink:href="#DejaVuSans-32"/>
       <use xlink:href="#DejaVuSans-35" transform="translate(63.623047 0)"/>
       <use xlink:href="#DejaVuSans-30" transform="translate(127.246094 0)"/>
       <use xlink:href="#DejaVuSans-30" transform="translate(190.869141 0)"/>
      </g>
     </g>
    </g>
    <g id="xtick_7">
     <g id="line2d_13">
      <path d="M 422.017977 354.04 
L 422.017977 60.72 
" clip-path="url(#pf9edf8037c)" style="fill: none; stroke-dasharray: 2.96,1.28; stroke-dashoffset: 0; stroke: #b0b0b0; stroke-opacity: 0.6; stroke-width: 0.8"/>
     </g>
     <g id="line2d_14">
      <g>
       <use xlink:href="#m5fb2020709" x="422.017977" y="354.04" style="stroke: #000000; stroke-width: 0.8"/>
      </g>
     </g>
     <g id="text_7">
      <!-- 3000 -->
      <g transform="translate(409.292977 368.638437) scale(0.1 -0.1)">
       <defs>
        <path id="DejaVuSans-33" d="M 2597 2516 
Q 3050 2419 3304 2112 
Q 3559 1806 3559 1356 
Q 3559 666 3084 287 
Q 2609 -91 1734 -91 
Q 1441 -91 1130 -33 
Q 819 25 488 141 
L 488 750 
Q 750 597 1062 519 
Q 1375 441 1716 441 
Q 2309 441 2620 675 
Q 2931 909 2931 1356 
Q 2931 1769 2642 2001 
Q 2353 2234 1838 2234 
L 1294 2234 
L 1294 2753 
L 1863 2753 
Q 2328 2753 2575 2939 
Q 2822 3125 2822 3475 
Q 2822 3834 2567 4026 
Q 2313 4219 1838 4219 
Q 1578 4219 1281 4162 
Q 984 4106 628 3988 
L 628 4550 
Q 988 4650 1302 4700 
Q 1616 4750 1894 4750 
Q 2613 4750 3031 4423 
Q 3450 4097 3450 3541 
Q 3450 3153 3228 2886 
Q 3006 2619 2597 2516 
z
" transform="scale(0.015625)"/>
       </defs>
       <use xlink:href="#DejaVuSans-33"/>
       <use xlink:href="#DejaVuSans-30" transform="translate(63.623047 0)"/>
       <use xlink:href="#DejaVuSans-30" transform="translate(127.246094 0)"/>
       <use xlink:href="#DejaVuSans-30" transform="translate(190.869141 0)"/>
      </g>
     </g>
    </g>
    <g id="text_8">
     <!-- Ticks -->
     <g transform="translate(227.783851 383.83625) scale(0.12 -0.12)">
      <defs>
       <path id="DejaVuSans-54" d="M -19 4666 
L 3928 4666 
L 3928 4134 
L 2272 4134 
L 2272 0 
L 1638 0 
L 1638 4134 
L -19 4134 
L -19 4666 
z
" transform="scale(0.015625)"/>
       <path id="DejaVuSans-69" d="M 603 3500 
L 1178 3500 
L 1178 0 
L 603 0 
L 603 3500 
z
M 603 4863 
L 1178 4863 
L 1178 4134 
L 603 4134 
L 603 4863 
z
" transform="scale(0.015625)"/>
       <path id="DejaVuSans-63" d="M 3122 3366 
L 3122 2828 
Q 2878 2963 2633 3030 
Q 2388 3097 2138 3097 
Q 1578 3097 1268 2742 
Q 959 2388 959 1747 
Q 959 1106 1268 751 
Q 1578 397 2138 397 
Q 2388 397 2633 464 
Q 2878 531 3122 666 
L 3122 134 
Q 2881 22 2623 -34 
Q 2366 -91 2075 -91 
Q 1284 -91 818 406 
Q 353 903 353 1747 
Q 353 2603 823 3093 
Q 1294 3584 2113 3584 
Q 2378 3584 2631 3529 
Q 2884 3475 3122 3366 
z
" transform="scale(0.015625)"/>
       <path id="DejaVuSans-6b" d="M 581 4863 
L 1159 4863 
L 1159 1991 
L 2875 3500 
L 3609 3500 
L 1753 1863 
L 3688 0 
L 2938 0 
L 1159 1709 
L 1159 0 
L 581 0 
L 581 4863 
z
" transform="scale(0.015625)"/>
       <path id="DejaVuSans-73" d="M 2834 3397 
L 2834 2853 
Q 2591 2978 2328 3040 
Q 2066 3103 1784 3103 
Q 1356 3103 1142 2972 
Q 928 2841 928 2578 
Q 928 2378 1081 2264 
Q 1234 2150 1697 2047 
L 1894 2003 
Q 2506 1872 2764 1633 
Q 3022 1394 3022 966 
Q 3022 478 2636 193 
Q 2250 -91 1575 -91 
Q 1294 -91 989 -36 
Q 684 19 347 128 
L 347 722 
Q 666 556 975 473 
Q 1284 391 1588 391 
Q 1994 391 2212 530 
Q 2431 669 2431 922 
Q 2431 1156 2273 1281 
Q 2116 1406 1581 1522 
L 1381 1569 
Q 847 1681 609 1914 
Q 372 2147 372 2553 
Q 372 3047 722 3315 
Q 1072 3584 1716 3584 
Q 2034 3584 2315 3537 
Q 2597 3491 2834 3397 
z
" transform="scale(0.015625)"/>
      </defs>
      <use xlink:href="#DejaVuSans-54"/>
      <use xlink:href="#DejaVuSans-69" transform="translate(57.958984 0)"/>
      <use xlink:href="#DejaVuSans-63" transform="translate(85.742188 0)"/>
      <use xlink:href="#DejaVuSans-6b" transform="translate(140.722656 0)"/>
      <use xlink:href="#DejaVuSans-73" transform="translate(198.632812 0)"/>
     </g>
    </g>
   </g>
   <g id="matplotlib.axis_2">
    <g id="ytick_1">
     <g id="line2d_15">
      <path d="M 45.716875 340.707273 
L 439.937077 340.707273 
" clip-path="url(#pf9edf8037c)" style="fill: none; stroke-dasharray: 2.96,1.28; stroke-dashoffset: 0; stroke: #b0b0b0; stroke-opacity: 0.6; stroke-width: 0.8"/>
     </g>
     <g id="line2d_16">
      <defs>
       <path id="m4c5d42c73f" d="M 0 0 
L -3.5 0 
" style="stroke: #000000; stroke-width: 0.8"/>
      </defs>
      <g>
       <use xlink:href="#m4c5d42c73f" x="45.716875" y="340.707273" style="stroke: #000000; stroke-width: 0.8"/>
      </g>
     </g>
     <g id="text_9">
      <!-- 0.0 -->
      <g transform="translate(22.81375 344.506491) scale(0.1 -0.1)">
       <defs>
        <path id="DejaVuSans-2e" d="M 684 794 
L 1344 794 
L 1344 0 
L 684 0 
L 684 794 
z
" transform="scale(0.015625)"/>
       </defs>
       <use xlink:href="#DejaVuSans-30"/>
       <use xlink:href="#DejaVuSans-2e" transform="translate(63.623047 0)"/>
       <use xlink:href="#DejaVuSans-30" transform="translate(95.410156 0)"/>
      </g>
     </g>
    </g>
    <g id="ytick_2">
     <g id="line2d_17">
      <path d="M 45.716875 287.376364 
L 439.937077 287.376364 
" clip-path="url(#pf9edf8037c)" style="fill: none; stroke-dasharray: 2.96,1.28; stroke-dashoffset: 0; stroke: #b0b0b0; stroke-opacity: 0.6; stroke-width: 0.8"/>
     </g>
     <g id="line2d_18">
      <g>
       <use xlink:href="#m4c5d42c73f" x="45.716875" y="287.376364" style="stroke: #000000; stroke-width: 0.8"/>
      </g>
     </g>
     <g id="text_10">
      <!-- 0.2 -->
      <g transform="translate(22.81375 291.175582) scale(0.1 -0.1)">
       <use xlink:href="#DejaVuSans-30"/>
       <use xlink:href="#DejaVuSans-2e" transform="translate(63.623047 0)"/>
       <use xlink:href="#DejaVuSans-32" transform="translate(95.410156 0)"/>
      </g>
     </g>
    </g>
    <g id="ytick_3">
     <g id="line2d_19">
      <path d="M 45.716875 234.045455 
L 439.937077 234.045455 
" clip-path="url(#pf9edf8037c)" style="fill: none; stroke-dasharray: 2.96,1.28; stroke-dashoffset: 0; stroke: #b0b0b0; stroke-opacity: 0.6; stroke-width: 0.8"/>
     </g>
     <g id="line2d_20">
      <g>
       <use xlink:href="#m4c5d42c73f" x="45.716875" y="234.045455" style="stroke: #000000; stroke-width: 0.8"/>
      </g>
     </g>
     <g id="text_11">
      <!-- 0.4 -->
      <g transform="translate(22.81375 237.844673) scale(0.1 -0.1)">
       <defs>
        <path id="DejaVuSans-34" d="M 2419 4116 
L 825 1625 
L 2419 1625 
L 2419 4116 
z
M 2253 4666 
L 3047 4666 
L 3047 1625 
L 3713 1625 
L 3713 1100 
L 3047 1100 
L 3047 0 
L 2419 0 
L 2419 1100 
L 313 1100 
L 313 1709 
L 2253 4666 
z
" transform="scale(0.015625)"/>
       </defs>
       <use xlink:href="#DejaVuSans-30"/>
       <use xlink:href="#DejaVuSans-2e" transform="translate(63.623047 0)"/>
       <use xlink:href="#DejaVuSans-34" transform="translate(95.410156 0)"/>
      </g>
     </g>
    </g>
    <g id="ytick_4">
     <g id="line2d_21">
      <path d="M 45.716875 180.714545 
L 439.937077 180.714545 
" clip-path="url(#pf9edf8037c)" style="fill: none; stroke-dasharray: 2.96,1.28; stroke-dashoffset: 0; stroke: #b0b0b0; stroke-opacity: 0.6; stroke-width: 0.8"/>
     </g>
     <g id="line2d_22">
      <g>
       <use xlink:href="#m4c5d42c73f" x="45.716875" y="180.714545" style="stroke: #000000; stroke-width: 0.8"/>
      </g>
     </g>
     <g id="text_12">
      <!-- 0.6 -->
      <g transform="translate(22.81375 184.513764) scale(0.1 -0.1)">
       <defs>
        <path id="DejaVuSans-36" d="M 2113 2584 
Q 1688 2584 1439 2293 
Q 1191 2003 1191 1497 
Q 1191 994 1439 701 
Q 1688 409 2113 409 
Q 2538 409 2786 701 
Q 3034 994 3034 1497 
Q 3034 2003 2786 2293 
Q 2538 2584 2113 2584 
z
M 3366 4563 
L 3366 3988 
Q 3128 4100 2886 4159 
Q 2644 4219 2406 4219 
Q 1781 4219 1451 3797 
Q 1122 3375 1075 2522 
Q 1259 2794 1537 2939 
Q 1816 3084 2150 3084 
Q 2853 3084 3261 2657 
Q 3669 2231 3669 1497 
Q 3669 778 3244 343 
Q 2819 -91 2113 -91 
Q 1303 -91 875 529 
Q 447 1150 447 2328 
Q 447 3434 972 4092 
Q 1497 4750 2381 4750 
Q 2619 4750 2861 4703 
Q 3103 4656 3366 4563 
z
" transform="scale(0.015625)"/>
       </defs>
       <use xlink:href="#DejaVuSans-30"/>
       <use xlink:href="#DejaVuSans-2e" transform="translate(63.623047 0)"/>
       <use xlink:href="#DejaVuSans-36" transform="translate(95.410156 0)"/>
      </g>
     </g>
    </g>
    <g id="ytick_5">
     <g id="line2d_23">
      <path d="M 45.716875 127.383636 
L 439.937077 127.383636 
" clip-path="url(#pf9edf8037c)" style="fill: none; stroke-dasharray: 2.96,1.28; stroke-dashoffset: 0; stroke: #b0b0b0; stroke-opacity: 0.6; stroke-width: 0.8"/>
     </g>
     <g id="line2d_24">
      <g>
       <use xlink:href="#m4c5d42c73f" x="45.716875" y="127.383636" style="stroke: #000000; stroke-width: 0.8"/>
      </g>
     </g>
     <g id="text_13">
      <!-- 0.8 -->
      <g transform="translate(22.81375 131.182855) scale(0.1 -0.1)">
       <defs>
        <path id="DejaVuSans-38" d="M 2034 2216 
Q 1584 2216 1326 1975 
Q 1069 1734 1069 1313 
Q 1069 891 1326 650 
Q 1584 409 2034 409 
Q 2484 409 2743 651 
Q 3003 894 3003 1313 
Q 3003 1734 2745 1975 
Q 2488 2216 2034 2216 
z
M 1403 2484 
Q 997 2584 770 2862 
Q 544 3141 544 3541 
Q 544 4100 942 4425 
Q 1341 4750 2034 4750 
Q 2731 4750 3128 4425 
Q 3525 4100 3525 3541 
Q 3525 3141 3298 2862 
Q 3072 2584 2669 2484 
Q 3125 2378 3379 2068 
Q 3634 1759 3634 1313 
Q 3634 634 3220 271 
Q 2806 -91 2034 -91 
Q 1263 -91 848 271 
Q 434 634 434 1313 
Q 434 1759 690 2068 
Q 947 2378 1403 2484 
z
M 1172 3481 
Q 1172 3119 1398 2916 
Q 1625 2713 2034 2713 
Q 2441 2713 2670 2916 
Q 2900 3119 2900 3481 
Q 2900 3844 2670 4047 
Q 2441 4250 2034 4250 
Q 1625 4250 1398 4047 
Q 1172 3844 1172 3481 
z
" transform="scale(0.015625)"/>
       </defs>
       <use xlink:href="#DejaVuSans-30"/>
       <use xlink:href="#DejaVuSans-2e" transform="translate(63.623047 0)"/>
       <use xlink:href="#DejaVuSans-38" transform="translate(95.410156 0)"/>
      </g>
     </g>
    </g>
    <g id="ytick_6">
     <g id="line2d_25">
      <path d="M 45.716875 74.052727 
L 439.937077 74.052727 
" clip-path="url(#pf9edf8037c)" style="fill: none; stroke-dasharray: 2.96,1.28; stroke-dashoffset: 0; stroke: #b0b0b0; stroke-opacity: 0.6; stroke-width: 0.8"/>
     </g>
     <g id="line2d_26">
      <g>
       <use xlink:href="#m4c5d42c73f" x="45.716875" y="74.052727" style="stroke: #000000; stroke-width: 0.8"/>
      </g>
     </g>
     <g id="text_14">
      <!-- 1.0 -->
      <g transform="translate(22.81375 77.851946) scale(0.1 -0.1)">
       <use xlink:href="#DejaVuSans-31"/>
       <use xlink:href="#DejaVuSans-2e" transform="translate(63.623047 0)"/>
       <use xlink:href="#DejaVuSans-30" transform="translate(95.410156 0)"/>
      </g>
     </g>
    </g>
    <g id="text_15">
     <!-- Mean Normalized Gini Index -->
     <g transform="translate(16.318125 291.780312) rotate(-90) scale(0.12 -0.12)">
      <defs>
       <path id="DejaVuSans-4d" d="M 628 4666 
L 1569 4666 
L 2759 1491 
L 3956 4666 
L 4897 4666 
L 4897 0 
L 4281 0 
L 4281 4097 
L 3078 897 
L 2444 897 
L 1241 4097 
L 1241 0 
L 628 0 
L 628 4666 
z
" transform="scale(0.015625)"/>
       <path id="DejaVuSans-65" d="M 3597 1894 
L 3597 1613 
L 953 1613 
Q 991 1019 1311 708 
Q 1631 397 2203 397 
Q 2534 397 2845 478 
Q 3156 559 3463 722 
L 3463 178 
Q 3153 47 2828 -22 
Q 2503 -91 2169 -91 
Q 1331 -91 842 396 
Q 353 884 353 1716 
Q 353 2575 817 3079 
Q 1281 3584 2069 3584 
Q 2775 3584 3186 3129 
Q 3597 2675 3597 1894 
z
M 3022 2063 
Q 3016 2534 2758 2815 
Q 2500 3097 2075 3097 
Q 1594 3097 1305 2825 
Q 1016 2553 972 2059 
L 3022 2063 
z
" transform="scale(0.015625)"/>
       <path id="DejaVuSans-61" d="M 2194 1759 
Q 1497 1759 1228 1600 
Q 959 1441 959 1056 
Q 959 750 1161 570 
Q 1363 391 1709 391 
Q 2188 391 2477 730 
Q 2766 1069 2766 1631 
L 2766 1759 
L 2194 1759 
z
M 3341 1997 
L 3341 0 
L 2766 0 
L 2766 531 
Q 2569 213 2275 61 
Q 1981 -91 1556 -91 
Q 1019 -91 701 211 
Q 384 513 384 1019 
Q 384 1609 779 1909 
Q 1175 2209 1959 2209 
L 2766 2209 
L 2766 2266 
Q 2766 2663 2505 2880 
Q 2244 3097 1772 3097 
Q 1472 3097 1187 3025 
Q 903 2953 641 2809 
L 641 3341 
Q 956 3463 1253 3523 
Q 1550 3584 1831 3584 
Q 2591 3584 2966 3190 
Q 3341 2797 3341 1997 
z
" transform="scale(0.015625)"/>
       <path id="DejaVuSans-6e" d="M 3513 2113 
L 3513 0 
L 2938 0 
L 2938 2094 
Q 2938 2591 2744 2837 
Q 2550 3084 2163 3084 
Q 1697 3084 1428 2787 
Q 1159 2491 1159 1978 
L 1159 0 
L 581 0 
L 581 3500 
L 1159 3500 
L 1159 2956 
Q 1366 3272 1645 3428 
Q 1925 3584 2291 3584 
Q 2894 3584 3203 3211 
Q 3513 2838 3513 2113 
z
" transform="scale(0.015625)"/>
       <path id="DejaVuSans-20" transform="scale(0.015625)"/>
       <path id="DejaVuSans-4e" d="M 628 4666 
L 1478 4666 
L 3547 763 
L 3547 4666 
L 4159 4666 
L 4159 0 
L 3309 0 
L 1241 3903 
L 1241 0 
L 628 0 
L 628 4666 
z
" transform="scale(0.015625)"/>
       <path id="DejaVuSans-6f" d="M 1959 3097 
Q 1497 3097 1228 2736 
Q 959 2375 959 1747 
Q 959 1119 1226 758 
Q 1494 397 1959 397 
Q 2419 397 2687 759 
Q 2956 1122 2956 1747 
Q 2956 2369 2687 2733 
Q 2419 3097 1959 3097 
z
M 1959 3584 
Q 2709 3584 3137 3096 
Q 3566 2609 3566 1747 
Q 3566 888 3137 398 
Q 2709 -91 1959 -91 
Q 1206 -91 779 398 
Q 353 888 353 1747 
Q 353 2609 779 3096 
Q 1206 3584 1959 3584 
z
" transform="scale(0.015625)"/>
       <path id="DejaVuSans-72" d="M 2631 2963 
Q 2534 3019 2420 3045 
Q 2306 3072 2169 3072 
Q 1681 3072 1420 2755 
Q 1159 2438 1159 1844 
L 1159 0 
L 581 0 
L 581 3500 
L 1159 3500 
L 1159 2956 
Q 1341 3275 1631 3429 
Q 1922 3584 2338 3584 
Q 2397 3584 2469 3576 
Q 2541 3569 2628 3553 
L 2631 2963 
z
" transform="scale(0.015625)"/>
       <path id="DejaVuSans-6d" d="M 3328 2828 
Q 3544 3216 3844 3400 
Q 4144 3584 4550 3584 
Q 5097 3584 5394 3201 
Q 5691 2819 5691 2113 
L 5691 0 
L 5113 0 
L 5113 2094 
Q 5113 2597 4934 2840 
Q 4756 3084 4391 3084 
Q 3944 3084 3684 2787 
Q 3425 2491 3425 1978 
L 3425 0 
L 2847 0 
L 2847 2094 
Q 2847 2600 2669 2842 
Q 2491 3084 2119 3084 
Q 1678 3084 1418 2786 
Q 1159 2488 1159 1978 
L 1159 0 
L 581 0 
L 581 3500 
L 1159 3500 
L 1159 2956 
Q 1356 3278 1631 3431 
Q 1906 3584 2284 3584 
Q 2666 3584 2933 3390 
Q 3200 3197 3328 2828 
z
" transform="scale(0.015625)"/>
       <path id="DejaVuSans-6c" d="M 603 4863 
L 1178 4863 
L 1178 0 
L 603 0 
L 603 4863 
z
" transform="scale(0.015625)"/>
       <path id="DejaVuSans-7a" d="M 353 3500 
L 3084 3500 
L 3084 2975 
L 922 459 
L 3084 459 
L 3084 0 
L 275 0 
L 275 525 
L 2438 3041 
L 353 3041 
L 353 3500 
z
" transform="scale(0.015625)"/>
       <path id="DejaVuSans-64" d="M 2906 2969 
L 2906 4863 
L 3481 4863 
L 3481 0 
L 2906 0 
L 2906 525 
Q 2725 213 2448 61 
Q 2172 -91 1784 -91 
Q 1150 -91 751 415 
Q 353 922 353 1747 
Q 353 2572 751 3078 
Q 1150 3584 1784 3584 
Q 2172 3584 2448 3432 
Q 2725 3281 2906 2969 
z
M 947 1747 
Q 947 1113 1208 752 
Q 1469 391 1925 391 
Q 2381 391 2643 752 
Q 2906 1113 2906 1747 
Q 2906 2381 2643 2742 
Q 2381 3103 1925 3103 
Q 1469 3103 1208 2742 
Q 947 2381 947 1747 
z
" transform="scale(0.015625)"/>
       <path id="DejaVuSans-47" d="M 3809 666 
L 3809 1919 
L 2778 1919 
L 2778 2438 
L 4434 2438 
L 4434 434 
Q 4069 175 3628 42 
Q 3188 -91 2688 -91 
Q 1594 -91 976 548 
Q 359 1188 359 2328 
Q 359 3472 976 4111 
Q 1594 4750 2688 4750 
Q 3144 4750 3555 4637 
Q 3966 4525 4313 4306 
L 4313 3634 
Q 3963 3931 3569 4081 
Q 3175 4231 2741 4231 
Q 1884 4231 1454 3753 
Q 1025 3275 1025 2328 
Q 1025 1384 1454 906 
Q 1884 428 2741 428 
Q 3075 428 3337 486 
Q 3600 544 3809 666 
z
" transform="scale(0.015625)"/>
       <path id="DejaVuSans-49" d="M 628 4666 
L 1259 4666 
L 1259 0 
L 628 0 
L 628 4666 
z
" transform="scale(0.015625)"/>
       <path id="DejaVuSans-78" d="M 3513 3500 
L 2247 1797 
L 3578 0 
L 2900 0 
L 1881 1375 
L 863 0 
L 184 0 
L 1544 1831 
L 300 3500 
L 978 3500 
L 1906 2253 
L 2834 3500 
L 3513 3500 
z
" transform="scale(0.015625)"/>
      </defs>
      <use xlink:href="#DejaVuSans-4d"/>
      <use xlink:href="#DejaVuSans-65" transform="translate(86.279297 0)"/>
      <use xlink:href="#DejaVuSans-61" transform="translate(147.802734 0)"/>
      <use xlink:href="#DejaVuSans-6e" transform="translate(209.082031 0)"/>
      <use xlink:href="#DejaVuSans-20" transform="translate(272.460938 0)"/>
      <use xlink:href="#DejaVuSans-4e" transform="translate(304.248047 0)"/>
      <use xlink:href="#DejaVuSans-6f" transform="translate(379.052734 0)"/>
      <use xlink:href="#DejaVuSans-72" transform="translate(440.234375 0)"/>
      <use xlink:href="#DejaVuSans-6d" transform="translate(479.597656 0)"/>
      <use xlink:href="#DejaVuSans-61" transform="translate(577.009766 0)"/>
      <use xlink:href="#DejaVuSans-6c" transform="translate(638.289062 0)"/>
      <use xlink:href="#DejaVuSans-69" transform="translate(666.072266 0)"/>
      <use xlink:href="#DejaVuSans-7a" transform="translate(693.855469 0)"/>
      <use xlink:href="#DejaVuSans-65" transform="translate(746.345703 0)"/>
      <use xlink:href="#DejaVuSans-64" transform="translate(807.869141 0)"/>
      <use xlink:href="#DejaVuSans-20" transform="translate(871.345703 0)"/>
      <use xlink:href="#DejaVuSans-47" transform="translate(903.132812 0)"/>
      <use xlink:href="#DejaVuSans-69" transform="translate(980.623047 0)"/>
      <use xlink:href="#DejaVuSans-6e" transform="translate(1008.40625 0)"/>
      <use xlink:href="#DejaVuSans-69" transform="translate(1071.785156 0)"/>
      <use xlink:href="#DejaVuSans-20" transform="translate(1099.568359 0)"/>
      <use xlink:href="#DejaVuSans-49" transform="translate(1131.355469 0)"/>
      <use xlink:href="#DejaVuSans-6e" transform="translate(1160.847656 0)"/>
      <use xlink:href="#DejaVuSans-64" transform="translate(1224.226562 0)"/>
      <use xlink:href="#DejaVuSans-65" transform="translate(1287.703125 0)"/>
      <use xlink:href="#DejaVuSans-78" transform="translate(1347.476562 0)"/>
     </g>
    </g>
   </g>
   <g id="line2d_27">
    <path d="M 63.635975 328.974473 
L 67.255995 328.974473 
L 70.876016 267.430604 
L 74.496036 258.044364 
L 78.116056 235.325396 
L 81.736076 186.954262 
L 85.356096 176.021425 
L 88.976117 157.782255 
L 92.596137 136.9832 
L 96.216157 145.302822 
L 99.836177 137.943156 
L 103.456197 144.236204 
L 107.076218 134.743302 
L 110.696238 132.930051 
L 114.316258 132.610065 
L 117.936278 144.129542 
L 121.556299 148.182691 
L 125.176319 147.969367 
L 128.796339 137.516509 
L 132.416359 130.156844 
L 136.036379 125.463724 
L 139.6564 129.410211 
L 143.27642 124.397105 
L 146.89644 132.183418 
L 150.51646 121.623898 
L 154.136481 125.677047 
L 157.756501 111.917673 
L 161.376521 120.663942 
L 164.996541 130.690153 
L 168.616561 125.357062 
L 172.236582 126.317018 
L 175.856602 123.757135 
L 179.476622 118.424044 
L 183.096642 127.490298 
L 186.716663 137.089862 
L 190.336683 126.850327 
L 193.956703 134.956625 
L 197.576723 132.930051 
L 201.196743 136.343229 
L 204.816764 127.170313 
L 208.436784 122.050545 
L 212.056804 124.290444 
L 215.676824 114.904204 
L 219.296845 124.397105 
L 222.916865 116.397469 
L 226.536885 116.184145 
L 230.156905 111.17104 
L 233.776925 115.021532 
L 237.396946 114.797542 
L 241.016966 140.775028 
L 244.636986 135.80992 
L 248.257006 141.569658 
L 251.877026 123.010502 
L 255.497047 123.010502 
L 259.117067 117.144102 
L 262.737087 121.410575 
L 266.357107 122.039879 
L 269.977128 135.80992 
L 273.597148 136.449891 
L 277.217168 147.54272 
L 280.837188 147.54272 
L 284.457208 130.156844 
L 288.077229 130.476829 
L 291.697249 127.170313 
L 295.317269 124.610429 
L 298.937289 128.754241 
L 302.55731 132.29008 
L 306.17733 123.330487 
L 309.79735 125.890371 
L 313.41737 124.183782 
L 317.03739 117.250764 
L 320.657411 120.983927 
L 324.277431 119.277338 
L 327.897451 121.623898 
L 331.517471 118.104058 
L 335.137492 128.556916 
L 338.757512 132.503404 
L 342.377532 140.396378 
L 345.997552 138.583127 
L 349.617572 145.622807 
L 353.237593 136.129905 
L 356.857613 121.837222 
L 360.477633 114.157571 
L 364.097653 138.796451 
L 367.717673 138.583127 
L 371.337694 141.462996 
L 374.957714 143.276247 
L 378.577734 147.756044 
L 382.197754 145.409484 
L 385.817775 142.422953 
L 389.437795 133.036713 
L 393.057815 129.730196 
L 396.677835 127.810284 
L 400.297855 129.090225 
L 403.917876 124.717091 
L 407.537896 129.623535 
L 411.157916 110.531069 
L 414.777936 117.997396 
L 418.397957 131.863433 
L 422.017977 135.80992 
" clip-path="url(#pf9edf8037c)" style="fill: none; stroke: #e74c3c; stroke-width: 2; stroke-linecap: square"/>
   </g>
   <g id="line2d_28">
    <path d="M 63.635975 324.281353 
L 67.255995 324.281353 
L 70.876016 258.657669 
L 74.496036 258.684335 
L 78.116056 223.405938 
L 81.736076 208.254627 
L 85.356096 184.154389 
L 88.976117 188.100876 
L 92.596137 189.860796 
L 96.216157 191.860705 
L 99.836177 187.887553 
L 103.456197 186.527615 
L 107.076218 163.08868 
L 110.696238 171.514964 
L 114.316258 179.5146 
L 117.936278 176.661396 
L 121.556299 179.034622 
L 125.176319 181.034531 
L 128.796339 152.635822 
L 132.416359 161.355425 
L 136.036379 158.582218 
L 139.6564 162.075393 
L 143.27642 161.142102 
L 146.89644 174.23484 
L 150.51646 163.382 
L 154.136481 171.349638 
L 157.756501 175.888098 
L 161.376521 191.940702 
L 164.996541 201.993578 
L 168.616561 198.377743 
L 172.236582 174.314836 
L 175.856602 174.928142 
L 179.476622 166.715182 
L 183.096642 164.475284 
L 186.716663 174.048182 
L 190.336683 178.314655 
L 193.956703 160.528796 
L 197.576723 160.800784 
L 201.196743 153.542447 
L 204.816764 152.68382 
L 208.436784 195.567204 
L 212.056804 198.980382 
L 215.676824 168.987079 
L 219.296845 176.448073 
L 222.916865 170.741665 
L 226.536885 169.152404 
L 230.156905 175.648109 
L 233.776925 173.306882 
L 237.396946 160.955444 
L 241.016966 159.13686 
L 244.636986 156.422316 
L 248.257006 196.793815 
L 251.877026 195.860524 
L 255.497047 188.714182 
L 259.117067 172.341593 
L 262.737087 173.488207 
L 266.357107 167.035167 
L 269.977128 169.968367 
L 273.597148 193.727287 
L 277.217168 197.380455 
L 280.837188 178.549311 
L 284.457208 179.80792 
L 288.077229 171.082983 
L 291.697249 167.835131 
L 295.317269 173.274884 
L 298.937289 174.181509 
L 302.55731 164.181964 
L 306.17733 161.382091 
L 309.79735 156.34232 
L 313.41737 152.182509 
L 317.03739 173.141556 
L 320.657411 171.00832 
L 324.277431 171.354971 
L 327.897451 175.301458 
L 331.517471 166.635185 
L 335.137492 169.861705 
L 338.757512 171.754953 
L 342.377532 178.874629 
L 345.997552 179.114618 
L 349.617572 197.780436 
L 353.237593 193.433967 
L 356.857613 170.768331 
L 360.477633 188.927505 
L 364.097653 185.540993 
L 367.717673 174.181509 
L 371.337694 170.981655 
L 374.957714 167.48848 
L 378.577734 159.86216 
L 382.197754 160.15548 
L 385.817775 180.847873 
L 389.437795 192.100695 
L 393.057815 182.74112 
L 396.677835 181.327851 
L 400.297855 162.582036 
L 403.917876 183.834404 
L 407.537896 175.888098 
L 411.157916 175.381455 
L 414.777936 171.30164 
L 418.397957 167.301822 
L 422.017977 160.342138 
" clip-path="url(#pf9edf8037c)" style="fill: none; stroke: #3498db; stroke-width: 2; stroke-linecap: square"/>
   </g>
   <g id="line2d_29"/>
   <g id="line2d_30"/>
   <g id="patch_3">
    <path d="M 45.716875 354.04 
L 45.716875 60.72 
" style="fill: none; stroke: #000000; stroke-width: 0.8; stroke-linejoin: miter; stroke-linecap: square"/>
   </g>
   <g id="patch_4">
    <path d="M 45.716875 354.04 
L 439.937077 354.04 
" style="fill: none; stroke: #000000; stroke-width: 0.8; stroke-linejoin: miter; stroke-linecap: square"/>
   </g>
   <g id="text_16">
    <!-- Polarized (Bimodal) -->
    <g transform="translate(170.811038 54.72) scale(0.13 -0.13)">
     <defs>
      <path id="DejaVuSans-Bold-50" d="M 588 4666 
L 2584 4666 
Q 3475 4666 3951 4270 
Q 4428 3875 4428 3144 
Q 4428 2409 3951 2014 
Q 3475 1619 2584 1619 
L 1791 1619 
L 1791 0 
L 588 0 
L 588 4666 
z
M 1791 3794 
L 1791 2491 
L 2456 2491 
Q 2806 2491 2997 2661 
Q 3188 2831 3188 3144 
Q 3188 3456 2997 3625 
Q 2806 3794 2456 3794 
L 1791 3794 
z
" transform="scale(0.015625)"/>
      <path id="DejaVuSans-Bold-6f" d="M 2203 2784 
Q 1831 2784 1636 2517 
Q 1441 2250 1441 1747 
Q 1441 1244 1636 976 
Q 1831 709 2203 709 
Q 2569 709 2762 976 
Q 2956 1244 2956 1747 
Q 2956 2250 2762 2517 
Q 2569 2784 2203 2784 
z
M 2203 3584 
Q 3106 3584 3614 3096 
Q 4122 2609 4122 1747 
Q 4122 884 3614 396 
Q 3106 -91 2203 -91 
Q 1297 -91 786 396 
Q 275 884 275 1747 
Q 275 2609 786 3096 
Q 1297 3584 2203 3584 
z
" transform="scale(0.015625)"/>
      <path id="DejaVuSans-Bold-6c" d="M 538 4863 
L 1656 4863 
L 1656 0 
L 538 0 
L 538 4863 
z
" transform="scale(0.015625)"/>
      <path id="DejaVuSans-Bold-61" d="M 2106 1575 
Q 1756 1575 1579 1456 
Q 1403 1338 1403 1106 
Q 1403 894 1545 773 
Q 1688 653 1941 653 
Q 2256 653 2472 879 
Q 2688 1106 2688 1447 
L 2688 1575 
L 2106 1575 
z
M 3816 1997 
L 3816 0 
L 2688 0 
L 2688 519 
Q 2463 200 2181 54 
Q 1900 -91 1497 -91 
Q 953 -91 614 226 
Q 275 544 275 1050 
Q 275 1666 698 1953 
Q 1122 2241 2028 2241 
L 2688 2241 
L 2688 2328 
Q 2688 2594 2478 2717 
Q 2269 2841 1825 2841 
Q 1466 2841 1156 2769 
Q 847 2697 581 2553 
L 581 3406 
Q 941 3494 1303 3539 
Q 1666 3584 2028 3584 
Q 2975 3584 3395 3211 
Q 3816 2838 3816 1997 
z
" transform="scale(0.015625)"/>
      <path id="DejaVuSans-Bold-72" d="M 3138 2547 
Q 2991 2616 2845 2648 
Q 2700 2681 2553 2681 
Q 2122 2681 1889 2404 
Q 1656 2128 1656 1613 
L 1656 0 
L 538 0 
L 538 3500 
L 1656 3500 
L 1656 2925 
Q 1872 3269 2151 3426 
Q 2431 3584 2822 3584 
Q 2878 3584 2943 3579 
Q 3009 3575 3134 3559 
L 3138 2547 
z
" transform="scale(0.015625)"/>
      <path id="DejaVuSans-Bold-69" d="M 538 3500 
L 1656 3500 
L 1656 0 
L 538 0 
L 538 3500 
z
M 538 4863 
L 1656 4863 
L 1656 3950 
L 538 3950 
L 538 4863 
z
" transform="scale(0.015625)"/>
      <path id="DejaVuSans-Bold-7a" d="M 366 3500 
L 3419 3500 
L 3419 2719 
L 1575 800 
L 3419 800 
L 3419 0 
L 288 0 
L 288 781 
L 2131 2700 
L 366 2700 
L 366 3500 
z
" transform="scale(0.015625)"/>
      <path id="DejaVuSans-Bold-65" d="M 4031 1759 
L 4031 1441 
L 1416 1441 
Q 1456 1047 1700 850 
Q 1944 653 2381 653 
Q 2734 653 3104 758 
Q 3475 863 3866 1075 
L 3866 213 
Q 3469 63 3072 -14 
Q 2675 -91 2278 -91 
Q 1328 -91 801 392 
Q 275 875 275 1747 
Q 275 2603 792 3093 
Q 1309 3584 2216 3584 
Q 3041 3584 3536 3087 
Q 4031 2591 4031 1759 
z
M 2881 2131 
Q 2881 2450 2695 2645 
Q 2509 2841 2209 2841 
Q 1884 2841 1681 2658 
Q 1478 2475 1428 2131 
L 2881 2131 
z
" transform="scale(0.015625)"/>
      <path id="DejaVuSans-Bold-64" d="M 2919 2988 
L 2919 4863 
L 4044 4863 
L 4044 0 
L 2919 0 
L 2919 506 
Q 2688 197 2409 53 
Q 2131 -91 1766 -91 
Q 1119 -91 703 423 
Q 288 938 288 1747 
Q 288 2556 703 3070 
Q 1119 3584 1766 3584 
Q 2128 3584 2408 3439 
Q 2688 3294 2919 2988 
z
M 2181 722 
Q 2541 722 2730 984 
Q 2919 1247 2919 1747 
Q 2919 2247 2730 2509 
Q 2541 2772 2181 2772 
Q 1825 2772 1636 2509 
Q 1447 2247 1447 1747 
Q 1447 1247 1636 984 
Q 1825 722 2181 722 
z
" transform="scale(0.015625)"/>
      <path id="DejaVuSans-Bold-20" transform="scale(0.015625)"/>
      <path id="DejaVuSans-Bold-28" d="M 2413 -844 
L 1484 -844 
Q 1006 -72 778 623 
Q 550 1319 550 2003 
Q 550 2688 779 3389 
Q 1009 4091 1484 4856 
L 2413 4856 
Q 2013 4116 1813 3408 
Q 1613 2700 1613 2009 
Q 1613 1319 1811 609 
Q 2009 -100 2413 -844 
z
" transform="scale(0.015625)"/>
      <path id="DejaVuSans-Bold-42" d="M 2456 2859 
Q 2741 2859 2887 2984 
Q 3034 3109 3034 3353 
Q 3034 3594 2887 3720 
Q 2741 3847 2456 3847 
L 1791 3847 
L 1791 2859 
L 2456 2859 
z
M 2497 819 
Q 2859 819 3042 972 
Q 3225 1125 3225 1434 
Q 3225 1738 3044 1889 
Q 2863 2041 2497 2041 
L 1791 2041 
L 1791 819 
L 2497 819 
z
M 3616 2497 
Q 4003 2384 4215 2081 
Q 4428 1778 4428 1338 
Q 4428 663 3972 331 
Q 3516 0 2584 0 
L 588 0 
L 588 4666 
L 2394 4666 
Q 3366 4666 3802 4372 
Q 4238 4078 4238 3431 
Q 4238 3091 4078 2852 
Q 3919 2613 3616 2497 
z
" transform="scale(0.015625)"/>
      <path id="DejaVuSans-Bold-6d" d="M 3781 2919 
Q 3994 3244 4286 3414 
Q 4578 3584 4928 3584 
Q 5531 3584 5847 3212 
Q 6163 2841 6163 2131 
L 6163 0 
L 5038 0 
L 5038 1825 
Q 5041 1866 5042 1909 
Q 5044 1953 5044 2034 
Q 5044 2406 4934 2573 
Q 4825 2741 4581 2741 
Q 4263 2741 4089 2478 
Q 3916 2216 3909 1719 
L 3909 0 
L 2784 0 
L 2784 1825 
Q 2784 2406 2684 2573 
Q 2584 2741 2328 2741 
Q 2006 2741 1831 2477 
Q 1656 2213 1656 1722 
L 1656 0 
L 531 0 
L 531 3500 
L 1656 3500 
L 1656 2988 
Q 1863 3284 2130 3434 
Q 2397 3584 2719 3584 
Q 3081 3584 3359 3409 
Q 3638 3234 3781 2919 
z
" transform="scale(0.015625)"/>
      <path id="DejaVuSans-Bold-29" d="M 513 -844 
Q 913 -100 1113 609 
Q 1313 1319 1313 2009 
Q 1313 2700 1113 3408 
Q 913 4116 513 4856 
L 1441 4856 
Q 1916 4091 2145 3389 
Q 2375 2688 2375 2003 
Q 2375 1319 2147 623 
Q 1919 -72 1441 -844 
L 513 -844 
z
" transform="scale(0.015625)"/>
     </defs>
     <use xlink:href="#DejaVuSans-Bold-50"/>
     <use xlink:href="#DejaVuSans-Bold-6f" transform="translate(73.291016 0)"/>
     <use xlink:href="#DejaVuSans-Bold-6c" transform="translate(141.992188 0)"/>
     <use xlink:href="#DejaVuSans-Bold-61" transform="translate(176.269531 0)"/>
     <use xlink:href="#DejaVuSans-Bold-72" transform="translate(243.75 0)"/>
     <use xlink:href="#DejaVuSans-Bold-69" transform="translate(293.066406 0)"/>
     <use xlink:href="#DejaVuSans-Bold-7a" transform="translate(327.34375 0)"/>
     <use xlink:href="#DejaVuSans-Bold-65" transform="translate(385.546875 0)"/>
     <use xlink:href="#DejaVuSans-Bold-64" transform="translate(453.369141 0)"/>
     <use xlink:href="#DejaVuSans-Bold-20" transform="translate(524.951172 0)"/>
     <use xlink:href="#DejaVuSans-Bold-28" transform="translate(559.765625 0)"/>
     <use xlink:href="#DejaVuSans-Bold-42" transform="translate(605.46875 0)"/>
     <use xlink:href="#DejaVuSans-Bold-69" transform="translate(681.689453 0)"/>
     <use xlink:href="#DejaVuSans-Bold-6d" transform="translate(715.966797 0)"/>
     <use xlink:href="#DejaVuSans-Bold-6f" transform="translate(820.166016 0)"/>
     <use xlink:href="#DejaVuSans-Bold-64" transform="translate(888.867188 0)"/>
     <use xlink:href="#DejaVuSans-Bold-61" transform="translate(960.449219 0)"/>
     <use xlink:href="#DejaVuSans-Bold-6c" transform="translate(1027.929688 0)"/>
     <use xlink:href="#DejaVuSans-Bold-29" transform="translate(1062.207031 0)"/>
    </g>
   </g>
  </g>
  <g id="axes_2">
   <g id="patch_5">
    <path d="M 454.187561 354.04 
L 848.407762 354.04 
L 848.407762 60.72 
L 454.187561 60.72 
z
" style="fill: #ffffff"/>
   </g>
   <g id="FillBetweenPolyCollection_3">
    <defs>
     <path id="ma9982e25a7" d="M 472.106661 -65.410697 
L 472.106661 -61.037562 
L 475.726681 -61.357548 
L 479.346701 -177.512268 
L 482.966721 -172.285839 
L 486.586742 -175.699017 
L 490.206762 -187.95446 
L 493.826782 -181.458755 
L 497.446802 -174.096423 
L 501.066822 -168.659337 
L 504.686843 -183.325337 
L 508.306863 -182.925355 
L 511.926883 -183.791982 
L 515.546903 -194.151511 
L 519.166924 -184.871933 
L 522.786944 -186.47186 
L 526.406964 -201.297853 
L 530.026984 -203.495087 
L 533.647004 -200.444559 
L 537.267025 -215.16389 
L 540.887045 -227.323337 
L 544.507065 -225.1901 
L 548.127085 -228.603279 
L 551.747106 -256.655337 
L 555.367126 -254.628762 
L 558.987146 -270.94802 
L 562.607166 -267.854828 
L 566.227186 -274.254537 
L 569.847207 -271.907977 
L 573.467227 -265.825587 
L 577.087247 -272.974595 
L 580.707267 -279.691623 
L 584.327288 -271.153344 
L 587.947308 -280.014275 
L 591.567328 -273.721228 
L 595.187348 -225.72341 
L 598.807368 -223.680836 
L 602.427389 -224.55013 
L 606.047409 -215.891856 
L 609.667429 -215.697199 
L 613.287449 -214.523919 
L 616.907469 -222.096908 
L 620.52749 -218.470406 
L 624.14751 -215.054561 
L 627.76753 -210.742757 
L 631.38755 -198.951293 
L 635.007571 -215.80386 
L 638.627591 -245.333185 
L 642.247611 -256.548675 
L 645.867631 -255.802042 
L 649.487651 -253.988791 
L 653.107672 -246.522464 
L 656.727692 -246.202479 
L 660.347712 -243.855919 
L 663.967732 -243.215948 
L 667.587753 -239.909431 
L 671.207773 -196.268748 
L 674.827793 -193.298217 
L 678.447813 -190.418348 
L 682.067833 -179.218857 
L 685.687854 -195.431453 
L 689.307874 -202.671124 
L 692.927894 -211.537388 
L 696.547914 -204.391046 
L 700.167935 -199.804588 
L 703.787955 -200.55122 
L 707.407975 -189.778377 
L 711.027995 -192.124937 
L 714.648015 -190.311686 
L 718.268036 -193.298217 
L 721.888056 -209.190828 
L 725.508076 -207.377577 
L 729.128096 -216.230508 
L 732.748117 -208.657519 
L 736.368137 -205.990973 
L 739.988157 -207.270915 
L 743.608177 -205.990973 
L 747.228197 -199.91125 
L 750.848218 -225.70741 
L 754.468238 -220.923628 
L 758.088258 -211.641383 
L 761.708278 -210.668094 
L 765.328298 -207.164253 
L 768.948319 -230.309868 
L 772.568339 -236.069606 
L 776.188359 -232.869751 
L 779.808379 -234.469679 
L 783.4284 -233.93637 
L 787.04842 -224.976777 
L 790.66844 -227.53666 
L 794.28846 -207.804224 
L 797.90848 -205.137679 
L 801.528501 -219.627687 
L 805.148521 -208.550857 
L 808.768541 -212.923991 
L 812.388561 -201.297853 
L 816.008582 -205.564326 
L 819.628602 -223.590173 
L 823.248622 -251.215584 
L 826.868642 -241.936006 
L 830.488662 -241.829344 
L 830.488662 -277.9877 
L 830.488662 -277.9877 
L 826.868642 -272.1213 
L 823.248622 -280.003609 
L 819.628602 -269.028108 
L 816.008582 -268.494799 
L 812.388561 -279.374304 
L 808.768541 -266.894871 
L 805.148521 -268.921446 
L 801.528501 -269.13477 
L 797.90848 -266.2549 
L 794.28846 -269.241431 
L 790.66844 -293.453664 
L 787.04842 -279.69429 
L 783.4284 -280.654246 
L 779.808379 -267.113528 
L 776.188359 -270.628035 
L 772.568339 -271.054682 
L 768.948319 -268.921446 
L 765.328298 -285.256703 
L 761.708278 -270.30805 
L 758.088258 -274.147875 
L 754.468238 -270.094726 
L 750.848218 -274.257203 
L 747.228197 -269.036107 
L 743.608177 -279.515631 
L 739.988157 -272.8706 
L 736.368137 -280.86757 
L 732.748117 -270.30805 
L 729.128096 -275.747802 
L 725.508076 -265.401606 
L 721.888056 -275.566477 
L 718.268036 -270.126724 
L 714.648015 -276.067788 
L 711.027995 -256.761999 
L 707.407975 -261.988428 
L 703.787955 -272.227962 
L 700.167935 -276.601097 
L 696.547914 -271.907977 
L 692.927894 -268.281475 
L 689.307874 -260.815148 
L 685.687854 -264.548311 
L 682.067833 -259.21522 
L 678.447813 -265.934915 
L 674.827793 -269.05744 
L 671.207773 -255.802042 
L 667.587753 -279.907613 
L 663.967732 -277.566386 
L 660.347712 -281.720864 
L 656.727692 -288.54722 
L 653.107672 -286.73397 
L 649.487651 -287.059288 
L 645.867631 -285.880675 
L 642.247611 -277.145072 
L 638.627591 -279.272975 
L 635.007571 -284.438074 
L 631.38755 -277.561053 
L 627.76753 -282.04085 
L 624.14751 -279.163647 
L 620.52749 -280.760908 
L 616.907469 -278.201024 
L 613.287449 -289.187191 
L 609.667429 -280.014275 
L 606.047409 -285.56069 
L 602.427389 -285.240704 
L 598.807368 -277.273066 
L 595.187348 -278.414348 
L 591.567328 -287.267279 
L 587.947308 -289.08053 
L 584.327288 -296.440195 
L 580.707267 -285.454028 
L 577.087247 -279.374304 
L 573.467227 -282.894144 
L 569.847207 -281.187555 
L 566.227186 -284.814057 
L 562.607166 -287.480602 
L 558.987146 -280.014275 
L 555.367126 -279.587628 
L 551.747106 -267.214857 
L 548.127085 -275.233159 
L 544.507065 -269.881402 
L 540.887045 -269.668079 
L 537.267025 -272.974595 
L 533.647004 -267.748166 
L 530.026984 -258.695244 
L 526.406964 -257.10065 
L 522.786944 -254.548766 
L 519.166924 -248.122391 
L 515.546903 -252.186207 
L 511.926883 -243.749257 
L 508.306863 -238.842813 
L 504.686843 -246.84245 
L 501.066822 -232.76309 
L 497.446802 -222.630217 
L 493.826782 -229.989882 
L 490.206762 -205.335003 
L 486.586742 -188.925082 
L 482.966721 -178.898871 
L 479.346701 -182.95202 
L 475.726681 -65.410697 
L 472.106661 -65.410697 
z
" style="stroke: #e74c3c; stroke-opacity: 0.2"/>
    </defs>
    <g clip-path="url(#p909d25c0ac)">
     <use xlink:href="#ma9982e25a7" x="0" y="393.531875" style="fill: #e74c3c; fill-opacity: 0.2; stroke: #e74c3c; stroke-opacity: 0.2"/>
    </g>
   </g>
   <g id="FillBetweenPolyCollection_4">
    <defs>
     <path id="m9c5d7d1784" d="M 472.106661 -79.303399 
L 472.106661 -74.583613 
L 475.726681 -74.583613 
L 479.346701 -121.968126 
L 482.966721 -131.27437 
L 486.586742 -153.193373 
L 490.206762 -171.678266 
L 493.826782 -187.482481 
L 497.446802 -190.045031 
L 501.066822 -187.831799 
L 504.686843 -188.658428 
L 508.306863 -193.378213 
L 511.926883 -190.876994 
L 515.546903 -218.997715 
L 519.166924 -204.273718 
L 522.786944 -197.278036 
L 526.406964 -183.162011 
L 530.026984 -179.938824 
L 533.647004 -178.952202 
L 537.267025 -226.710031 
L 540.887045 -221.776922 
L 544.507065 -208.730849 
L 548.127085 -195.51145 
L 551.747106 -200.323897 
L 555.367126 -200.151239 
L 558.987146 -226.89669 
L 562.607166 -223.323519 
L 566.227186 -224.01682 
L 569.847207 -224.25681 
L 573.467227 -229.269915 
L 577.087247 -178.445559 
L 580.707267 -196.418075 
L 584.327288 -217.183131 
L 587.947308 -222.2569 
L 591.567328 -188.098453 
L 595.187348 -178.20557 
L 598.807368 -179.885493 
L 602.427389 -202.817784 
L 606.047409 -219.558356 
L 609.667429 -223.936824 
L 613.287449 -220.310322 
L 616.907469 -183.698653 
L 620.52749 -183.165344 
L 624.14751 -213.513298 
L 627.76753 -223.030199 
L 631.38755 -225.590082 
L 635.007571 -155.886584 
L 638.627591 -156.20657 
L 642.247611 -179.165526 
L 645.867631 -200.001245 
L 649.487651 -177.91225 
L 653.107672 -194.951475 
L 656.727692 -207.00426 
L 660.347712 -186.724516 
L 663.967732 -193.262218 
L 667.587753 -211.749378 
L 671.207773 -214.710577 
L 674.827793 -221.803588 
L 678.447813 -221.67026 
L 682.067833 -171.245886 
L 685.687854 -171.645868 
L 689.307874 -189.763711 
L 692.927894 -206.870933 
L 696.547914 -208.12421 
L 700.167935 -213.4573 
L 703.787955 -201.537842 
L 707.407975 -198.951293 
L 711.027995 -188.605097 
L 714.648015 -184.285293 
L 718.268036 -213.775286 
L 721.888056 -182.36538 
L 725.508076 -205.137679 
L 729.128096 -199.751257 
L 732.748117 -206.764271 
L 736.368137 -217.110468 
L 739.988157 -220.683639 
L 743.608177 -221.003624 
L 747.228197 -226.763362 
L 750.848218 -183.236008 
L 754.468238 -169.592628 
L 758.088258 -176.605642 
L 761.708278 -173.725773 
L 765.328298 -198.20466 
L 768.948319 -198.897962 
L 772.568339 -203.457755 
L 776.188359 -182.957354 
L 779.808379 -185.858555 
L 783.4284 -176.552311 
L 787.04842 -177.592264 
L 790.66844 -199.217948 
L 794.28846 -199.111286 
L 797.90848 -215.270551 
L 801.528501 -219.723682 
L 805.148521 -197.3247 
L 808.768541 -192.434256 
L 812.388561 -215.323882 
L 816.008582 -205.83098 
L 819.628602 -211.614718 
L 823.248622 -209.110831 
L 826.868642 -199.969914 
L 830.488662 -199.91125 
L 830.488662 -234.629671 
L 830.488662 -234.629671 
L 826.868642 -238.956941 
L 823.248622 -238.069515 
L 819.628602 -231.563144 
L 816.008582 -230.363199 
L 812.388561 -239.26946 
L 808.768541 -243.135951 
L 805.148521 -240.602733 
L 801.528501 -240.576068 
L 797.90848 -237.696199 
L 794.28846 -244.335897 
L 790.66844 -236.496253 
L 787.04842 -232.17645 
L 783.4284 -224.070151 
L 779.808379 -238.04285 
L 776.188359 -237.034895 
L 772.568339 -235.562962 
L 768.948319 -238.522828 
L 765.328298 -234.096362 
L 761.708278 -230.096544 
L 758.088258 -241.02938 
L 754.468238 -235.216311 
L 750.848218 -229.749893 
L 747.228197 -246.958444 
L 743.608177 -247.621481 
L 739.988157 -246.949111 
L 736.368137 -238.97614 
L 732.748117 -242.712637 
L 729.128096 -228.043304 
L 725.508076 -234.629671 
L 721.888056 -233.899038 
L 718.268036 -239.456119 
L 714.648015 -232.81642 
L 711.027995 -232.069788 
L 707.407975 -239.696108 
L 703.787955 -239.616111 
L 700.167935 -249.365002 
L 696.547914 -243.722591 
L 692.927894 -242.175995 
L 689.307874 -241.138042 
L 685.687854 -237.80286 
L 682.067833 -235.24831 
L 678.447813 -241.082711 
L 674.827793 -239.989428 
L 671.207773 -239.80277 
L 667.587753 -237.616869 
L 663.967732 -225.012109 
L 660.347712 -220.177662 
L 656.727692 -229.989882 
L 653.107672 -241.216039 
L 649.487651 -243.989246 
L 645.867631 -243.775922 
L 642.247611 -234.417681 
L 638.627591 -236.528918 
L 635.007571 -234.336351 
L 631.38755 -237.722864 
L 627.76753 -238.309504 
L 624.14751 -236.57625 
L 620.52749 -223.990155 
L 616.907469 -222.576886 
L 613.287449 -231.616475 
L 609.667429 -242.49598 
L 606.047409 -249.455664 
L 602.427389 -235.936279 
L 598.807368 -225.77674 
L 595.187348 -221.08362 
L 591.567328 -236.522919 
L 587.947308 -243.461937 
L 584.327288 -235.429635 
L 580.707267 -241.85601 
L 577.087247 -226.630035 
L 573.467227 -241.216039 
L 569.847207 -239.242795 
L 566.227186 -244.559887 
L 562.607166 -238.202842 
L 558.987146 -241.402697 
L 555.367126 -221.216948 
L 551.747106 -226.630035 
L 548.127085 -229.963217 
L 544.507065 -233.357063 
L 540.887045 -230.843177 
L 537.267025 -230.976504 
L 533.647004 -208.070879 
L 530.026984 -209.217493 
L 526.406964 -210.074121 
L 522.786944 -224.763453 
L 519.166924 -224.363471 
L 515.546903 -227.403333 
L 511.926883 -203.804406 
L 508.306863 -201.96449 
L 504.686843 -199.297944 
L 501.066822 -198.764635 
L 497.446802 -197.084711 
L 493.826782 -205.164344 
L 490.206762 -183.949308 
L 486.586742 -162.019639 
L 482.966721 -140.187298 
L 479.346701 -138.07406 
L 475.726681 -79.303399 
L 472.106661 -79.303399 
z
" style="stroke: #3498db; stroke-opacity: 0.2"/>
    </defs>
    <g clip-path="url(#p909d25c0ac)">
     <use xlink:href="#m9c5d7d1784" x="0" y="393.531875" style="fill: #3498db; fill-opacity: 0.2; stroke: #3498db; stroke-opacity: 0.2"/>
    </g>
   </g>
   <g id="matplotlib.axis_3">
    <g id="xtick_8">
     <g id="line2d_31">
      <path d="M 468.486641 354.04 
L 468.486641 60.72 
" clip-path="url(#p909d25c0ac)" style="fill: none; stroke-dasharray: 2.96,1.28; stroke-dashoffset: 0; stroke: #b0b0b0; stroke-opacity: 0.6; stroke-width: 0.8"/>
     </g>
     <g id="line2d_32">
      <g>
       <use xlink:href="#m5fb2020709" x="468.486641" y="354.04" style="stroke: #000000; stroke-width: 0.8"/>
      </g>
     </g>
     <g id="text_17">
      <!-- 0 -->
      <g transform="translate(465.305391 368.638437) scale(0.1 -0.1)">
       <use xlink:href="#DejaVuSans-30"/>
      </g>
     </g>
    </g>
    <g id="xtick_9">
     <g id="line2d_33">
      <path d="M 528.820311 354.04 
L 528.820311 60.72 
" clip-path="url(#p909d25c0ac)" style="fill: none; stroke-dasharray: 2.96,1.28; stroke-dashoffset: 0; stroke: #b0b0b0; stroke-opacity: 0.6; stroke-width: 0.8"/>
     </g>
     <g id="line2d_34">
      <g>
       <use xlink:href="#m5fb2020709" x="528.820311" y="354.04" style="stroke: #000000; stroke-width: 0.8"/>
      </g>
     </g>
     <g id="text_18">
      <!-- 500 -->
      <g transform="translate(519.276561 368.638437) scale(0.1 -0.1)">
       <use xlink:href="#DejaVuSans-35"/>
       <use xlink:href="#DejaVuSans-30" transform="translate(63.623047 0)"/>
       <use xlink:href="#DejaVuSans-30" transform="translate(127.246094 0)"/>
      </g>
     </g>
    </g>
    <g id="xtick_10">
     <g id="line2d_35">
      <path d="M 589.153981 354.04 
L 589.153981 60.72 
" clip-path="url(#p909d25c0ac)" style="fill: none; stroke-dasharray: 2.96,1.28; stroke-dashoffset: 0; stroke: #b0b0b0; stroke-opacity: 0.6; stroke-width: 0.8"/>
     </g>
     <g id="line2d_36">
      <g>
       <use xlink:href="#m5fb2020709" x="589.153981" y="354.04" style="stroke: #000000; stroke-width: 0.8"/>
      </g>
     </g>
     <g id="text_19">
      <!-- 1000 -->
      <g transform="translate(576.428981 368.638437) scale(0.1 -0.1)">
       <use xlink:href="#DejaVuSans-31"/>
       <use xlink:href="#DejaVuSans-30" transform="translate(63.623047 0)"/>
       <use xlink:href="#DejaVuSans-30" transform="translate(127.246094 0)"/>
       <use xlink:href="#DejaVuSans-30" transform="translate(190.869141 0)"/>
      </g>
     </g>
    </g>
    <g id="xtick_11">
     <g id="line2d_37">
      <path d="M 649.487651 354.04 
L 649.487651 60.72 
" clip-path="url(#p909d25c0ac)" style="fill: none; stroke-dasharray: 2.96,1.28; stroke-dashoffset: 0; stroke: #b0b0b0; stroke-opacity: 0.6; stroke-width: 0.8"/>
     </g>
     <g id="line2d_38">
      <g>
       <use xlink:href="#m5fb2020709" x="649.487651" y="354.04" style="stroke: #000000; stroke-width: 0.8"/>
      </g>
     </g>
     <g id="text_20">
      <!-- 1500 -->
      <g transform="translate(636.762651 368.638437) scale(0.1 -0.1)">
       <use xlink:href="#DejaVuSans-31"/>
       <use xlink:href="#DejaVuSans-35" transform="translate(63.623047 0)"/>
       <use xlink:href="#DejaVuSans-30" transform="translate(127.246094 0)"/>
       <use xlink:href="#DejaVuSans-30" transform="translate(190.869141 0)"/>
      </g>
     </g>
    </g>
    <g id="xtick_12">
     <g id="line2d_39">
      <path d="M 709.821322 354.04 
L 709.821322 60.72 
" clip-path="url(#p909d25c0ac)" style="fill: none; stroke-dasharray: 2.96,1.28; stroke-dashoffset: 0; stroke: #b0b0b0; stroke-opacity: 0.6; stroke-width: 0.8"/>
     </g>
     <g id="line2d_40">
      <g>
       <use xlink:href="#m5fb2020709" x="709.821322" y="354.04" style="stroke: #000000; stroke-width: 0.8"/>
      </g>
     </g>
     <g id="text_21">
      <!-- 2000 -->
      <g transform="translate(697.096322 368.638437) scale(0.1 -0.1)">
       <use xlink:href="#DejaVuSans-32"/>
       <use xlink:href="#DejaVuSans-30" transform="translate(63.623047 0)"/>
       <use xlink:href="#DejaVuSans-30" transform="translate(127.246094 0)"/>
       <use xlink:href="#DejaVuSans-30" transform="translate(190.869141 0)"/>
      </g>
     </g>
    </g>
    <g id="xtick_13">
     <g id="line2d_41">
      <path d="M 770.154992 354.04 
L 770.154992 60.72 
" clip-path="url(#p909d25c0ac)" style="fill: none; stroke-dasharray: 2.96,1.28; stroke-dashoffset: 0; stroke: #b0b0b0; stroke-opacity: 0.6; stroke-width: 0.8"/>
     </g>
     <g id="line2d_42">
      <g>
       <use xlink:href="#m5fb2020709" x="770.154992" y="354.04" style="stroke: #000000; stroke-width: 0.8"/>
      </g>
     </g>
     <g id="text_22">
      <!-- 2500 -->
      <g transform="translate(757.429992 368.638437) scale(0.1 -0.1)">
       <use xlink:href="#DejaVuSans-32"/>
       <use xlink:href="#DejaVuSans-35" transform="translate(63.623047 0)"/>
       <use xlink:href="#DejaVuSans-30" transform="translate(127.246094 0)"/>
       <use xlink:href="#DejaVuSans-30" transform="translate(190.869141 0)"/>
      </g>
     </g>
    </g>
    <g id="xtick_14">
     <g id="line2d_43">
      <path d="M 830.488662 354.04 
L 830.488662 60.72 
" clip-path="url(#p909d25c0ac)" style="fill: none; stroke-dasharray: 2.96,1.28; stroke-dashoffset: 0; stroke: #b0b0b0; stroke-opacity: 0.6; stroke-width: 0.8"/>
     </g>
     <g id="line2d_44">
      <g>
       <use xlink:href="#m5fb2020709" x="830.488662" y="354.04" style="stroke: #000000; stroke-width: 0.8"/>
      </g>
     </g>
     <g id="text_23">
      <!-- 3000 -->
      <g transform="translate(817.763662 368.638437) scale(0.1 -0.1)">
       <use xlink:href="#DejaVuSans-33"/>
       <use xlink:href="#DejaVuSans-30" transform="translate(63.623047 0)"/>
       <use xlink:href="#DejaVuSans-30" transform="translate(127.246094 0)"/>
       <use xlink:href="#DejaVuSans-30" transform="translate(190.869141 0)"/>
      </g>
     </g>
    </g>
    <g id="text_24">
     <!-- Ticks -->
     <g transform="translate(636.254537 383.83625) scale(0.12 -0.12)">
      <use xlink:href="#DejaVuSans-54"/>
      <use xlink:href="#DejaVuSans-69" transform="translate(57.958984 0)"/>
      <use xlink:href="#DejaVuSans-63" transform="translate(85.742188 0)"/>
      <use xlink:href="#DejaVuSans-6b" transform="translate(140.722656 0)"/>
      <use xlink:href="#DejaVuSans-73" transform="translate(198.632812 0)"/>
     </g>
    </g>
   </g>
   <g id="matplotlib.axis_4">
    <g id="ytick_7">
     <g id="line2d_45">
      <path d="M 454.187561 340.707273 
L 848.407762 340.707273 
" clip-path="url(#p909d25c0ac)" style="fill: none; stroke-dasharray: 2.96,1.28; stroke-dashoffset: 0; stroke: #b0b0b0; stroke-opacity: 0.6; stroke-width: 0.8"/>
     </g>
     <g id="line2d_46">
      <g>
       <use xlink:href="#m4c5d42c73f" x="454.187561" y="340.707273" style="stroke: #000000; stroke-width: 0.8"/>
      </g>
     </g>
    </g>
    <g id="ytick_8">
     <g id="line2d_47">
      <path d="M 454.187561 287.376364 
L 848.407762 287.376364 
" clip-path="url(#p909d25c0ac)" style="fill: none; stroke-dasharray: 2.96,1.28; stroke-dashoffset: 0; stroke: #b0b0b0; stroke-opacity: 0.6; stroke-width: 0.8"/>
     </g>
     <g id="line2d_48">
      <g>
       <use xlink:href="#m4c5d42c73f" x="454.187561" y="287.376364" style="stroke: #000000; stroke-width: 0.8"/>
      </g>
     </g>
    </g>
    <g id="ytick_9">
     <g id="line2d_49">
      <path d="M 454.187561 234.045455 
L 848.407762 234.045455 
" clip-path="url(#p909d25c0ac)" style="fill: none; stroke-dasharray: 2.96,1.28; stroke-dashoffset: 0; stroke: #b0b0b0; stroke-opacity: 0.6; stroke-width: 0.8"/>
     </g>
     <g id="line2d_50">
      <g>
       <use xlink:href="#m4c5d42c73f" x="454.187561" y="234.045455" style="stroke: #000000; stroke-width: 0.8"/>
      </g>
     </g>
    </g>
    <g id="ytick_10">
     <g id="line2d_51">
      <path d="M 454.187561 180.714545 
L 848.407762 180.714545 
" clip-path="url(#p909d25c0ac)" style="fill: none; stroke-dasharray: 2.96,1.28; stroke-dashoffset: 0; stroke: #b0b0b0; stroke-opacity: 0.6; stroke-width: 0.8"/>
     </g>
     <g id="line2d_52">
      <g>
       <use xlink:href="#m4c5d42c73f" x="454.187561" y="180.714545" style="stroke: #000000; stroke-width: 0.8"/>
      </g>
     </g>
    </g>
    <g id="ytick_11">
     <g id="line2d_53">
      <path d="M 454.187561 127.383636 
L 848.407762 127.383636 
" clip-path="url(#p909d25c0ac)" style="fill: none; stroke-dasharray: 2.96,1.28; stroke-dashoffset: 0; stroke: #b0b0b0; stroke-opacity: 0.6; stroke-width: 0.8"/>
     </g>
     <g id="line2d_54">
      <g>
       <use xlink:href="#m4c5d42c73f" x="454.187561" y="127.383636" style="stroke: #000000; stroke-width: 0.8"/>
      </g>
     </g>
    </g>
    <g id="ytick_12">
     <g id="line2d_55">
      <path d="M 454.187561 74.052727 
L 848.407762 74.052727 
" clip-path="url(#p909d25c0ac)" style="fill: none; stroke-dasharray: 2.96,1.28; stroke-dashoffset: 0; stroke: #b0b0b0; stroke-opacity: 0.6; stroke-width: 0.8"/>
     </g>
     <g id="line2d_56">
      <g>
       <use xlink:href="#m4c5d42c73f" x="454.187561" y="74.052727" style="stroke: #000000; stroke-width: 0.8"/>
      </g>
     </g>
    </g>
   </g>
   <g id="line2d_57">
    <path d="M 472.106661 330.147753 
L 475.726681 330.147753 
L 479.346701 213.2464 
L 482.966721 217.93952 
L 486.586742 212.499767 
L 490.206762 198.740393 
L 493.826782 194.900567 
L 497.446802 201.940247 
L 501.066822 201.193615 
L 504.686843 178.527978 
L 508.306863 183.167767 
L 511.926883 179.754589 
L 515.546903 170.368349 
L 519.166924 176.021425 
L 522.786944 172.501585 
L 526.406964 160.4488 
L 530.026984 162.262051 
L 533.647004 155.329033 
L 537.267025 148.822662 
L 540.887045 142.636276 
L 544.507065 142.742938 
L 548.127085 138.049818 
L 551.747106 132.29008 
L 555.367126 124.823753 
L 558.987146 118.104058 
L 562.607166 115.86416 
L 566.227186 114.477556 
L 569.847207 116.717455 
L 573.467227 118.317382 
L 577.087247 117.250764 
L 580.707267 111.384364 
L 584.327288 110.744393 
L 587.947308 109.891098 
L 591.567328 113.410938 
L 595.187348 134.529978 
L 598.807368 137.943156 
L 602.427389 131.863433 
L 606.047409 135.383273 
L 609.667429 136.769876 
L 613.287449 133.250036 
L 616.907469 135.703258 
L 620.52749 136.769876 
L 624.14751 137.196524 
L 627.76753 141.249673 
L 631.38755 155.115709 
L 635.007571 138.903113 
L 638.627591 129.196887 
L 642.247611 124.397105 
L 645.867631 120.983927 
L 649.487651 119.384 
L 653.107672 123.970458 
L 656.727692 121.73056 
L 660.347712 126.850327 
L 663.967732 129.090225 
L 667.587753 130.050182 
L 671.207773 167.48848 
L 674.827793 163.222007 
L 678.447813 165.888553 
L 682.067833 173.568204 
L 685.687854 162.475375 
L 689.307874 162.475375 
L 692.927894 153.622444 
L 696.547914 154.902385 
L 700.167935 152.555825 
L 703.787955 157.142284 
L 707.407975 168.555098 
L 711.027995 169.088407 
L 714.648015 160.555462 
L 718.268036 161.195433 
L 721.888056 149.569295 
L 725.508076 157.142284 
L 729.128096 146.902749 
L 732.748117 152.875811 
L 736.368137 147.969367 
L 739.988157 150.635913 
L 743.608177 147.54272 
L 747.228197 156.395651 
L 750.848218 142.102967 
L 754.468238 144.769513 
L 758.088258 150.635913 
L 761.708278 152.449164 
L 765.328298 145.404151 
L 768.948319 143.916218 
L 772.568339 139.969731 
L 776.188359 141.782982 
L 779.808379 141.356335 
L 783.4284 133.890007 
L 787.04842 140.396378 
L 790.66844 132.716727 
L 794.28846 155.222371 
L 797.90848 159.27552 
L 801.528501 149.142647 
L 805.148521 155.329033 
L 808.768541 148.822662 
L 812.388561 153.195796 
L 816.008582 156.288989 
L 819.628602 142.316291 
L 823.248622 127.714288 
L 826.868642 135.596596 
L 830.488662 132.716727 
" clip-path="url(#p909d25c0ac)" style="fill: none; stroke: #e74c3c; stroke-width: 2; stroke-linecap: square"/>
   </g>
   <g id="line2d_58">
    <path d="M 472.106661 316.49504 
L 475.726681 316.49504 
L 479.346701 264.790724 
L 482.966721 257.937702 
L 486.586742 235.325396 
L 490.206762 215.571628 
L 493.826782 195.220553 
L 497.446802 199.060378 
L 501.066822 200.286989 
L 504.686843 198.980382 
L 508.306863 196.553825 
L 511.926883 196.191175 
L 515.546903 170.821662 
L 519.166924 178.362652 
L 522.786944 180.901204 
L 526.406964 196.367167 
L 530.026984 198.713727 
L 533.647004 197.353789 
L 537.267025 164.715273 
L 540.887045 166.395196 
L 544.507065 170.155025 
L 548.127085 179.567931 
L 551.747106 180.021244 
L 555.367126 183.061105 
L 558.987146 159.675502 
L 562.607166 163.701985 
L 566.227186 159.798163 
L 569.847207 162.902022 
L 573.467227 159.728833 
L 577.087247 189.967458 
L 580.707267 170.661669 
L 584.327288 165.861887 
L 587.947308 160.74212 
L 591.567328 178.687971 
L 595.187348 193.849948 
L 598.807368 190.474102 
L 602.427389 174.048182 
L 606.047409 158.000911 
L 609.667429 160.182145 
L 613.287449 167.675138 
L 616.907469 184.634367 
L 620.52749 185.514327 
L 624.14751 167.275156 
L 627.76753 163.67532 
L 631.38755 162.262051 
L 635.007571 188.207538 
L 638.627591 186.447618 
L 642.247611 179.354607 
L 645.867631 165.408575 
L 649.487651 182.954444 
L 653.107672 173.728196 
L 656.727692 175.248127 
L 660.347712 191.434058 
L 663.967732 184.50104 
L 667.587753 168.288444 
L 671.207773 167.728469 
L 674.827793 162.635367 
L 678.447813 162.315382 
L 682.067833 184.234385 
L 685.687854 182.394469 
L 689.307874 175.808102 
L 692.927894 169.008411 
L 696.547914 167.035167 
L 700.167935 162.683365 
L 703.787955 172.954898 
L 707.407975 174.101513 
L 711.027995 180.821207 
L 714.648015 182.474465 
L 718.268036 166.848509 
L 721.888056 182.581127 
L 725.508076 173.088225 
L 729.128096 179.087953 
L 732.748117 168.07512 
L 736.368137 165.488571 
L 739.988157 159.755498 
L 743.608177 157.334275 
L 747.228197 156.315655 
L 750.848218 181.301185 
L 754.468238 189.700804 
L 758.088258 184.367713 
L 761.708278 192.047364 
L 765.328298 178.581309 
L 768.948319 175.568113 
L 772.568339 173.834858 
L 776.188359 183.045106 
L 779.808379 180.68788 
L 783.4284 188.127542 
L 787.04842 184.661033 
L 790.66844 173.6482 
L 794.28846 170.848327 
L 797.90848 165.888553 
L 801.528501 162.902022 
L 805.148521 171.621625 
L 808.768541 175.557447 
L 812.388561 166.635185 
L 816.008582 177.248036 
L 819.628602 173.274884 
L 823.248622 170.555007 
L 826.868642 171.109649 
L 830.488662 174.261505 
" clip-path="url(#p909d25c0ac)" style="fill: none; stroke: #3498db; stroke-width: 2; stroke-linecap: square"/>
   </g>
   <g id="patch_6">
    <path d="M 454.187561 354.04 
L 454.187561 60.72 
" style="fill: none; stroke: #000000; stroke-width: 0.8; stroke-linejoin: miter; stroke-linecap: square"/>
   </g>
   <g id="patch_7">
    <path d="M 454.187561 354.04 
L 848.407762 354.04 
" style="fill: none; stroke: #000000; stroke-width: 0.8; stroke-linejoin: miter; stroke-linecap: square"/>
   </g>
   <g id="text_25">
    <!-- Homogeneous (Normal) -->
    <g transform="translate(564.391646 54.72) scale(0.13 -0.13)">
     <defs>
      <path id="DejaVuSans-Bold-48" d="M 588 4666 
L 1791 4666 
L 1791 2888 
L 3566 2888 
L 3566 4666 
L 4769 4666 
L 4769 0 
L 3566 0 
L 3566 1978 
L 1791 1978 
L 1791 0 
L 588 0 
L 588 4666 
z
" transform="scale(0.015625)"/>
      <path id="DejaVuSans-Bold-67" d="M 2919 594 
Q 2688 288 2409 144 
Q 2131 0 1766 0 
Q 1125 0 706 504 
Q 288 1009 288 1791 
Q 288 2575 706 3076 
Q 1125 3578 1766 3578 
Q 2131 3578 2409 3434 
Q 2688 3291 2919 2981 
L 2919 3500 
L 4044 3500 
L 4044 353 
Q 4044 -491 3511 -936 
Q 2978 -1381 1966 -1381 
Q 1638 -1381 1331 -1331 
Q 1025 -1281 716 -1178 
L 716 -306 
Q 1009 -475 1290 -558 
Q 1572 -641 1856 -641 
Q 2406 -641 2662 -400 
Q 2919 -159 2919 353 
L 2919 594 
z
M 2181 2772 
Q 1834 2772 1640 2515 
Q 1447 2259 1447 1791 
Q 1447 1309 1634 1061 
Q 1822 813 2181 813 
Q 2531 813 2725 1069 
Q 2919 1325 2919 1791 
Q 2919 2259 2725 2515 
Q 2531 2772 2181 2772 
z
" transform="scale(0.015625)"/>
      <path id="DejaVuSans-Bold-6e" d="M 4056 2131 
L 4056 0 
L 2931 0 
L 2931 347 
L 2931 1631 
Q 2931 2084 2911 2256 
Q 2891 2428 2841 2509 
Q 2775 2619 2662 2680 
Q 2550 2741 2406 2741 
Q 2056 2741 1856 2470 
Q 1656 2200 1656 1722 
L 1656 0 
L 538 0 
L 538 3500 
L 1656 3500 
L 1656 2988 
Q 1909 3294 2193 3439 
Q 2478 3584 2822 3584 
Q 3428 3584 3742 3212 
Q 4056 2841 4056 2131 
z
" transform="scale(0.015625)"/>
      <path id="DejaVuSans-Bold-75" d="M 500 1363 
L 500 3500 
L 1625 3500 
L 1625 3150 
Q 1625 2866 1622 2436 
Q 1619 2006 1619 1863 
Q 1619 1441 1641 1255 
Q 1663 1069 1716 984 
Q 1784 875 1895 815 
Q 2006 756 2150 756 
Q 2500 756 2700 1025 
Q 2900 1294 2900 1772 
L 2900 3500 
L 4019 3500 
L 4019 0 
L 2900 0 
L 2900 506 
Q 2647 200 2364 54 
Q 2081 -91 1741 -91 
Q 1134 -91 817 281 
Q 500 653 500 1363 
z
" transform="scale(0.015625)"/>
      <path id="DejaVuSans-Bold-73" d="M 3272 3391 
L 3272 2541 
Q 2913 2691 2578 2766 
Q 2244 2841 1947 2841 
Q 1628 2841 1473 2761 
Q 1319 2681 1319 2516 
Q 1319 2381 1436 2309 
Q 1553 2238 1856 2203 
L 2053 2175 
Q 2913 2066 3209 1816 
Q 3506 1566 3506 1031 
Q 3506 472 3093 190 
Q 2681 -91 1863 -91 
Q 1516 -91 1145 -36 
Q 775 19 384 128 
L 384 978 
Q 719 816 1070 734 
Q 1422 653 1784 653 
Q 2113 653 2278 743 
Q 2444 834 2444 1013 
Q 2444 1163 2330 1236 
Q 2216 1309 1875 1350 
L 1678 1375 
Q 931 1469 631 1722 
Q 331 1975 331 2491 
Q 331 3047 712 3315 
Q 1094 3584 1881 3584 
Q 2191 3584 2531 3537 
Q 2872 3491 3272 3391 
z
" transform="scale(0.015625)"/>
      <path id="DejaVuSans-Bold-4e" d="M 588 4666 
L 1931 4666 
L 3628 1466 
L 3628 4666 
L 4769 4666 
L 4769 0 
L 3425 0 
L 1728 3200 
L 1728 0 
L 588 0 
L 588 4666 
z
" transform="scale(0.015625)"/>
     </defs>
     <use xlink:href="#DejaVuSans-Bold-48"/>
     <use xlink:href="#DejaVuSans-Bold-6f" transform="translate(83.691406 0)"/>
     <use xlink:href="#DejaVuSans-Bold-6d" transform="translate(152.392578 0)"/>
     <use xlink:href="#DejaVuSans-Bold-6f" transform="translate(256.591797 0)"/>
     <use xlink:href="#DejaVuSans-Bold-67" transform="translate(325.292969 0)"/>
     <use xlink:href="#DejaVuSans-Bold-65" transform="translate(396.875 0)"/>
     <use xlink:href="#DejaVuSans-Bold-6e" transform="translate(464.697266 0)"/>
     <use xlink:href="#DejaVuSans-Bold-65" transform="translate(535.888672 0)"/>
     <use xlink:href="#DejaVuSans-Bold-6f" transform="translate(603.710938 0)"/>
     <use xlink:href="#DejaVuSans-Bold-75" transform="translate(672.412109 0)"/>
     <use xlink:href="#DejaVuSans-Bold-73" transform="translate(743.603516 0)"/>
     <use xlink:href="#DejaVuSans-Bold-20" transform="translate(803.125 0)"/>
     <use xlink:href="#DejaVuSans-Bold-28" transform="translate(837.939453 0)"/>
     <use xlink:href="#DejaVuSans-Bold-4e" transform="translate(883.642578 0)"/>
     <use xlink:href="#DejaVuSans-Bold-6f" transform="translate(967.333984 0)"/>
     <use xlink:href="#DejaVuSans-Bold-72" transform="translate(1036.035156 0)"/>
     <use xlink:href="#DejaVuSans-Bold-6d" transform="translate(1085.351562 0)"/>
     <use xlink:href="#DejaVuSans-Bold-61" transform="translate(1189.550781 0)"/>
     <use xlink:href="#DejaVuSans-Bold-6c" transform="translate(1257.03125 0)"/>
     <use xlink:href="#DejaVuSans-Bold-29" transform="translate(1291.308594 0)"/>
    </g>
   </g>
  </g>
  <g id="text_26">
   <!-- Evolution of Attention Inequality: 3 vs. 9 Competing Topics -->
   <g transform="translate(244.549275 18.597656) scale(0.15 -0.15)">
    <defs>
     <path id="DejaVuSans-45" d="M 628 4666 
L 3578 4666 
L 3578 4134 
L 1259 4134 
L 1259 2753 
L 3481 2753 
L 3481 2222 
L 1259 2222 
L 1259 531 
L 3634 531 
L 3634 0 
L 628 0 
L 628 4666 
z
" transform="scale(0.015625)"/>
     <path id="DejaVuSans-76" d="M 191 3500 
L 800 3500 
L 1894 563 
L 2988 3500 
L 3597 3500 
L 2284 0 
L 1503 0 
L 191 3500 
z
" transform="scale(0.015625)"/>
     <path id="DejaVuSans-75" d="M 544 1381 
L 544 3500 
L 1119 3500 
L 1119 1403 
Q 1119 906 1312 657 
Q 1506 409 1894 409 
Q 2359 409 2629 706 
Q 2900 1003 2900 1516 
L 2900 3500 
L 3475 3500 
L 3475 0 
L 2900 0 
L 2900 538 
Q 2691 219 2414 64 
Q 2138 -91 1772 -91 
Q 1169 -91 856 284 
Q 544 659 544 1381 
z
M 1991 3584 
L 1991 3584 
z
" transform="scale(0.015625)"/>
     <path id="DejaVuSans-74" d="M 1172 4494 
L 1172 3500 
L 2356 3500 
L 2356 3053 
L 1172 3053 
L 1172 1153 
Q 1172 725 1289 603 
Q 1406 481 1766 481 
L 2356 481 
L 2356 0 
L 1766 0 
Q 1100 0 847 248 
Q 594 497 594 1153 
L 594 3053 
L 172 3053 
L 172 3500 
L 594 3500 
L 594 4494 
L 1172 4494 
z
" transform="scale(0.015625)"/>
     <path id="DejaVuSans-66" d="M 2375 4863 
L 2375 4384 
L 1825 4384 
Q 1516 4384 1395 4259 
Q 1275 4134 1275 3809 
L 1275 3500 
L 2222 3500 
L 2222 3053 
L 1275 3053 
L 1275 0 
L 697 0 
L 697 3053 
L 147 3053 
L 147 3500 
L 697 3500 
L 697 3744 
Q 697 4328 969 4595 
Q 1241 4863 1831 4863 
L 2375 4863 
z
" transform="scale(0.015625)"/>
     <path id="DejaVuSans-41" d="M 2188 4044 
L 1331 1722 
L 3047 1722 
L 2188 4044 
z
M 1831 4666 
L 2547 4666 
L 4325 0 
L 3669 0 
L 3244 1197 
L 1141 1197 
L 716 0 
L 50 0 
L 1831 4666 
z
" transform="scale(0.015625)"/>
     <path id="DejaVuSans-71" d="M 947 1747 
Q 947 1113 1208 752 
Q 1469 391 1925 391 
Q 2381 391 2643 752 
Q 2906 1113 2906 1747 
Q 2906 2381 2643 2742 
Q 2381 3103 1925 3103 
Q 1469 3103 1208 2742 
Q 947 2381 947 1747 
z
M 2906 525 
Q 2725 213 2448 61 
Q 2172 -91 1784 -91 
Q 1150 -91 751 415 
Q 353 922 353 1747 
Q 353 2572 751 3078 
Q 1150 3584 1784 3584 
Q 2172 3584 2448 3432 
Q 2725 3281 2906 2969 
L 2906 3500 
L 3481 3500 
L 3481 -1331 
L 2906 -1331 
L 2906 525 
z
" transform="scale(0.015625)"/>
     <path id="DejaVuSans-79" d="M 2059 -325 
Q 1816 -950 1584 -1140 
Q 1353 -1331 966 -1331 
L 506 -1331 
L 506 -850 
L 844 -850 
Q 1081 -850 1212 -737 
Q 1344 -625 1503 -206 
L 1606 56 
L 191 3500 
L 800 3500 
L 1894 763 
L 2988 3500 
L 3597 3500 
L 2059 -325 
z
" transform="scale(0.015625)"/>
     <path id="DejaVuSans-3a" d="M 750 794 
L 1409 794 
L 1409 0 
L 750 0 
L 750 794 
z
M 750 3309 
L 1409 3309 
L 1409 2516 
L 750 2516 
L 750 3309 
z
" transform="scale(0.015625)"/>
     <path id="DejaVuSans-39" d="M 703 97 
L 703 672 
Q 941 559 1184 500 
Q 1428 441 1663 441 
Q 2288 441 2617 861 
Q 2947 1281 2994 2138 
Q 2813 1869 2534 1725 
Q 2256 1581 1919 1581 
Q 1219 1581 811 2004 
Q 403 2428 403 3163 
Q 403 3881 828 4315 
Q 1253 4750 1959 4750 
Q 2769 4750 3195 4129 
Q 3622 3509 3622 2328 
Q 3622 1225 3098 567 
Q 2575 -91 1691 -91 
Q 1453 -91 1209 -44 
Q 966 3 703 97 
z
M 1959 2075 
Q 2384 2075 2632 2365 
Q 2881 2656 2881 3163 
Q 2881 3666 2632 3958 
Q 2384 4250 1959 4250 
Q 1534 4250 1286 3958 
Q 1038 3666 1038 3163 
Q 1038 2656 1286 2365 
Q 1534 2075 1959 2075 
z
" transform="scale(0.015625)"/>
     <path id="DejaVuSans-43" d="M 4122 4306 
L 4122 3641 
Q 3803 3938 3442 4084 
Q 3081 4231 2675 4231 
Q 1875 4231 1450 3742 
Q 1025 3253 1025 2328 
Q 1025 1406 1450 917 
Q 1875 428 2675 428 
Q 3081 428 3442 575 
Q 3803 722 4122 1019 
L 4122 359 
Q 3791 134 3420 21 
Q 3050 -91 2638 -91 
Q 1578 -91 968 557 
Q 359 1206 359 2328 
Q 359 3453 968 4101 
Q 1578 4750 2638 4750 
Q 3056 4750 3426 4639 
Q 3797 4528 4122 4306 
z
" transform="scale(0.015625)"/>
     <path id="DejaVuSans-70" d="M 1159 525 
L 1159 -1331 
L 581 -1331 
L 581 3500 
L 1159 3500 
L 1159 2969 
Q 1341 3281 1617 3432 
Q 1894 3584 2278 3584 
Q 2916 3584 3314 3078 
Q 3713 2572 3713 1747 
Q 3713 922 3314 415 
Q 2916 -91 2278 -91 
Q 1894 -91 1617 61 
Q 1341 213 1159 525 
z
M 3116 1747 
Q 3116 2381 2855 2742 
Q 2594 3103 2138 3103 
Q 1681 3103 1420 2742 
Q 1159 2381 1159 1747 
Q 1159 1113 1420 752 
Q 1681 391 2138 391 
Q 2594 391 2855 752 
Q 3116 1113 3116 1747 
z
" transform="scale(0.015625)"/>
     <path id="DejaVuSans-67" d="M 2906 1791 
Q 2906 2416 2648 2759 
Q 2391 3103 1925 3103 
Q 1463 3103 1205 2759 
Q 947 2416 947 1791 
Q 947 1169 1205 825 
Q 1463 481 1925 481 
Q 2391 481 2648 825 
Q 2906 1169 2906 1791 
z
M 3481 434 
Q 3481 -459 3084 -895 
Q 2688 -1331 1869 -1331 
Q 1566 -1331 1297 -1286 
Q 1028 -1241 775 -1147 
L 775 -588 
Q 1028 -725 1275 -790 
Q 1522 -856 1778 -856 
Q 2344 -856 2625 -561 
Q 2906 -266 2906 331 
L 2906 616 
Q 2728 306 2450 153 
Q 2172 0 1784 0 
Q 1141 0 747 490 
Q 353 981 353 1791 
Q 353 2603 747 3093 
Q 1141 3584 1784 3584 
Q 2172 3584 2450 3431 
Q 2728 3278 2906 2969 
L 2906 3500 
L 3481 3500 
L 3481 434 
z
" transform="scale(0.015625)"/>
    </defs>
    <use xlink:href="#DejaVuSans-45"/>
    <use xlink:href="#DejaVuSans-76" transform="translate(63.183594 0)"/>
    <use xlink:href="#DejaVuSans-6f" transform="translate(122.363281 0)"/>
    <use xlink:href="#DejaVuSans-6c" transform="translate(183.544922 0)"/>
    <use xlink:href="#DejaVuSans-75" transform="translate(211.328125 0)"/>
    <use xlink:href="#DejaVuSans-74" transform="translate(274.707031 0)"/>
    <use xlink:href="#DejaVuSans-69" transform="translate(313.916016 0)"/>
    <use xlink:href="#DejaVuSans-6f" transform="translate(341.699219 0)"/>
    <use xlink:href="#DejaVuSans-6e" transform="translate(402.880859 0)"/>
    <use xlink:href="#DejaVuSans-20" transform="translate(466.259766 0)"/>
    <use xlink:href="#DejaVuSans-6f" transform="translate(498.046875 0)"/>
    <use xlink:href="#DejaVuSans-66" transform="translate(559.228516 0)"/>
    <use xlink:href="#DejaVuSans-20" transform="translate(594.433594 0)"/>
    <use xlink:href="#DejaVuSans-41" transform="translate(626.220703 0)"/>
    <use xlink:href="#DejaVuSans-74" transform="translate(692.878906 0)"/>
    <use xlink:href="#DejaVuSans-74" transform="translate(732.087891 0)"/>
    <use xlink:href="#DejaVuSans-65" transform="translate(771.296875 0)"/>
    <use xlink:href="#DejaVuSans-6e" transform="translate(832.820312 0)"/>
    <use xlink:href="#DejaVuSans-74" transform="translate(896.199219 0)"/>
    <use xlink:href="#DejaVuSans-69" transform="translate(935.408203 0)"/>
    <use xlink:href="#DejaVuSans-6f" transform="translate(963.191406 0)"/>
    <use xlink:href="#DejaVuSans-6e" transform="translate(1024.373047 0)"/>
    <use xlink:href="#DejaVuSans-20" transform="translate(1087.751953 0)"/>
    <use xlink:href="#DejaVuSans-49" transform="translate(1119.539062 0)"/>
    <use xlink:href="#DejaVuSans-6e" transform="translate(1149.03125 0)"/>
    <use xlink:href="#DejaVuSans-65" transform="translate(1212.410156 0)"/>
    <use xlink:href="#DejaVuSans-71" transform="translate(1273.933594 0)"/>
    <use xlink:href="#DejaVuSans-75" transform="translate(1337.410156 0)"/>
    <use xlink:href="#DejaVuSans-61" transform="translate(1400.789062 0)"/>
    <use xlink:href="#DejaVuSans-6c" transform="translate(1462.068359 0)"/>
    <use xlink:href="#DejaVuSans-69" transform="translate(1489.851562 0)"/>
    <use xlink:href="#DejaVuSans-74" transform="translate(1517.634766 0)"/>
    <use xlink:href="#DejaVuSans-79" transform="translate(1556.84375 0)"/>
    <use xlink:href="#DejaVuSans-3a" transform="translate(1608.773438 0)"/>
    <use xlink:href="#DejaVuSans-20" transform="translate(1642.464844 0)"/>
    <use xlink:href="#DejaVuSans-33" transform="translate(1674.251953 0)"/>
    <use xlink:href="#DejaVuSans-20" transform="translate(1737.875 0)"/>
    <use xlink:href="#DejaVuSans-76" transform="translate(1769.662109 0)"/>
    <use xlink:href="#DejaVuSans-73" transform="translate(1828.841797 0)"/>
    <use xlink:href="#DejaVuSans-2e" transform="translate(1880.941406 0)"/>
    <use xlink:href="#DejaVuSans-20" transform="translate(1912.728516 0)"/>
    <use xlink:href="#DejaVuSans-39" transform="translate(1944.515625 0)"/>
    <use xlink:href="#DejaVuSans-20" transform="translate(2008.138672 0)"/>
    <use xlink:href="#DejaVuSans-43" transform="translate(2039.925781 0)"/>
    <use xlink:href="#DejaVuSans-6f" transform="translate(2109.75 0)"/>
    <use xlink:href="#DejaVuSans-6d" transform="translate(2170.931641 0)"/>
    <use xlink:href="#DejaVuSans-70" transform="translate(2268.34375 0)"/>
    <use xlink:href="#DejaVuSans-65" transform="translate(2331.820312 0)"/>
    <use xlink:href="#DejaVuSans-74" transform="translate(2393.34375 0)"/>
    <use xlink:href="#DejaVuSans-69" transform="translate(2432.552734 0)"/>
    <use xlink:href="#DejaVuSans-6e" transform="translate(2460.335938 0)"/>
    <use xlink:href="#DejaVuSans-67" transform="translate(2523.714844 0)"/>
    <use xlink:href="#DejaVuSans-20" transform="translate(2587.191406 0)"/>
    <use xlink:href="#DejaVuSans-54" transform="translate(2618.978516 0)"/>
    <use xlink:href="#DejaVuSans-6f" transform="translate(2663.0625 0)"/>
    <use xlink:href="#DejaVuSans-70" transform="translate(2724.244141 0)"/>
    <use xlink:href="#DejaVuSans-69" transform="translate(2787.720703 0)"/>
    <use xlink:href="#DejaVuSans-63" transform="translate(2815.503906 0)"/>
    <use xlink:href="#DejaVuSans-73" transform="translate(2870.484375 0)"/>
   </g>
  </g>
  <g id="legend_1">
   <g id="text_27">
    <!-- topic_count -->
    <g transform="translate(863.9874 184.708125) scale(0.1 -0.1)">
     <defs>
      <path id="DejaVuSans-5f" d="M 3263 -1063 
L 3263 -1509 
L -63 -1509 
L -63 -1063 
L 3263 -1063 
z
" transform="scale(0.015625)"/>
     </defs>
     <use xlink:href="#DejaVuSans-74"/>
     <use xlink:href="#DejaVuSans-6f" transform="translate(39.208984 0)"/>
     <use xlink:href="#DejaVuSans-70" transform="translate(100.390625 0)"/>
     <use xlink:href="#DejaVuSans-69" transform="translate(163.867188 0)"/>
     <use xlink:href="#DejaVuSans-63" transform="translate(191.650391 0)"/>
     <use xlink:href="#DejaVuSans-5f" transform="translate(246.630859 0)"/>
     <use xlink:href="#DejaVuSans-63" transform="translate(296.630859 0)"/>
     <use xlink:href="#DejaVuSans-6f" transform="translate(351.611328 0)"/>
     <use xlink:href="#DejaVuSans-75" transform="translate(412.792969 0)"/>
     <use xlink:href="#DejaVuSans-6e" transform="translate(476.171875 0)"/>
     <use xlink:href="#DejaVuSans-74" transform="translate(539.550781 0)"/>
    </g>
   </g>
   <g id="line2d_59">
    <path d="M 858.9749 196.164375 
L 868.9749 196.164375 
L 878.9749 196.164375 
" style="fill: none; stroke: #e74c3c; stroke-width: 2; stroke-linecap: square"/>
   </g>
   <g id="text_28">
    <!-- 3 Topics -->
    <g transform="translate(886.9749 199.664375) scale(0.1 -0.1)">
     <use xlink:href="#DejaVuSans-33"/>
     <use xlink:href="#DejaVuSans-20" transform="translate(63.623047 0)"/>
     <use xlink:href="#DejaVuSans-54" transform="translate(95.410156 0)"/>
     <use xlink:href="#DejaVuSans-6f" transform="translate(139.494141 0)"/>
     <use xlink:href="#DejaVuSans-70" transform="translate(200.675781 0)"/>
     <use xlink:href="#DejaVuSans-69" transform="translate(264.152344 0)"/>
     <use xlink:href="#DejaVuSans-63" transform="translate(291.935547 0)"/>
     <use xlink:href="#DejaVuSans-73" transform="translate(346.916016 0)"/>
    </g>
   </g>
   <g id="line2d_60">
    <path d="M 858.9749 210.8425 
L 868.9749 210.8425 
L 878.9749 210.8425 
" style="fill: none; stroke: #3498db; stroke-width: 2; stroke-linecap: square"/>
   </g>
   <g id="text_29">
    <!-- 9 Topics -->
    <g transform="translate(886.9749 214.3425) scale(0.1 -0.1)">
     <use xlink:href="#DejaVuSans-39"/>
     <use xlink:href="#DejaVuSans-20" transform="translate(63.623047 0)"/>
     <use xlink:href="#DejaVuSans-54" transform="translate(95.410156 0)"/>
     <use xlink:href="#DejaVuSans-6f" transform="translate(139.494141 0)"/>
     <use xlink:href="#DejaVuSans-70" transform="translate(200.675781 0)"/>
     <use xlink:href="#DejaVuSans-69" transform="translate(264.152344 0)"/>
     <use xlink:href="#DejaVuSans-63" transform="translate(291.935547 0)"/>
     <use xlink:href="#DejaVuSans-73" transform="translate(346.916016 0)"/>
    </g>
   </g>
  </g>
 </g>
 <defs>
  <clipPath id="pf9edf8037c">
   <rect x="45.716875" y="60.72" width="394.220202" height="293.32"/>
  </clipPath>
  <clipPath id="p909d25c0ac">
   <rect x="454.187561" y="60.72" width="394.220202" height="293.32"/>
  </clipPath>
 </defs>
</svg>
