<?xml version="1.0" encoding="utf-8" standalone="no"?>
<!DOCTYPE svg PUBLIC "-//W3C//DTD SVG 1.1//EN"
  "http://www.w3.org/Graphics/SVG/1.1/DTD/svg11.dtd">
<svg xmlns:xlink="http://www.w3.org/1999/xlink" width="697.340312pt" height="422.889687pt" viewBox="0 0 697.340312 422.889687" xmlns="http://www.w3.org/2000/svg" version="1.1">
 <metadata>
  <rdf:RDF xmlns:dc="http://purl.org/dc/elements/1.1/" xmlns:cc="http://creativecommons.org/ns#" xmlns:rdf="http://www.w3.org/1999/02/22-rdf-syntax-ns#">
   <cc:Work>
    <dc:type rdf:resource="http://purl.org/dc/dcmitype/StillImage"/>
    <dc:date>2026-02-15T18:21:03.140922</dc:date>
    <dc:format>image/svg+xml</dc:format>
    <dc:creator>
     <cc:Agent>
      <dc:title>Matplotlib v3.10.8, https://matplotlib.org/</dc:title>
     </cc:Agent>
    </dc:creator>
   </cc:Work>
  </rdf:RDF>
 </metadata>
 <defs>
  <style type="text/css">*{stroke-linejoin: round; stroke-linecap: butt}</style>
 </defs>
 <g id="figure_1">
  <g id="patch_1">
   <path d="M 0 422.889687 
L 697.340312 422.889687 
L 697.340312 0 
L 0 0 
z
" style="fill: #ffffff"/>
  </g>
  <g id="axes_1">
   <g id="patch_2">
    <path d="M 103.38 383.397812 
L 529.82 383.397812 
L 529.82 23.837812 
L 103.38 23.837812 
z
" style="fill: #ffffff"/>
   </g>
   <g id="FillBetweenPolyCollection_1">
    <defs>
     <path id="m624ff3d1f5" d="M 209.99 -31.436599 
L 209.806823 -31.436599 
L 209.68651 -35.132199 
L 209.512885 -38.827798 
L 209.277973 -42.523398 
L 208.980824 -46.218998 
L 208.630922 -49.914597 
L 208.250001 -53.610197 
L 207.871089 -57.305797 
L 207.534206 -61.001396 
L 207.279211 -64.696996 
L 207.137345 -68.392596 
L 207.123697 -72.088196 
L 207.232752 -75.783795 
L 207.438388 -79.479395 
L 207.698445 -83.174995 
L 207.962756 -86.870594 
L 208.182712 -90.566194 
L 208.320266 -94.261794 
L 208.354605 -97.957393 
L 208.285403 -101.652993 
L 208.132275 -105.348593 
L 207.930674 -109.044193 
L 207.725026 -112.739792 
L 207.560324 -116.435392 
L 207.473807 -120.130992 
L 207.4884 -123.826591 
L 207.609332 -127.522191 
L 207.824579 -131.217791 
L 208.108801 -134.913391 
L 208.429524 -138.60899 
L 208.753816 -142.30459 
L 209.053774 -146.00019 
L 209.309725 -149.695789 
L 209.510852 -153.391389 
L 209.65371 -157.086989 
L 209.739535 -160.782588 
L 209.771334 -164.478188 
L 209.751504 -168.173788 
L 209.680314 -171.869388 
L 209.555176 -175.564987 
L 209.370397 -179.260587 
L 209.117078 -182.956187 
L 208.783097 -186.651786 
L 208.35352 -190.347386 
L 207.81201 -194.042986 
L 207.143794 -197.738585 
L 206.340149 -201.434185 
L 205.403536 -205.129785 
L 204.351762 -208.825385 
L 203.219361 -212.520984 
L 202.055035 -216.216584 
L 200.915269 -219.912184 
L 199.855568 -223.607783 
L 198.921601 -227.303383 
L 198.142484 -230.998983 
L 197.527619 -234.694582 
L 197.067309 -238.390182 
L 196.736285 -242.085782 
L 196.498579 -245.781382 
L 196.312035 -249.476981 
L 196.13114 -253.172581 
L 195.90763 -256.868181 
L 195.589219 -260.56378 
L 195.11746 -264.25938 
L 194.425757 -267.95498 
L 193.43808 -271.650579 
L 192.068206 -275.346179 
L 190.219155 -279.041779 
L 187.783344 -282.737379 
L 184.645691 -286.432978 
L 180.693533 -290.128578 
L 175.837288 -293.824178 
L 170.043212 -297.519777 
L 163.374298 -301.215377 
L 156.029093 -304.910977 
L 148.36386 -308.606576 
L 140.883968 -312.302176 
L 134.197081 -315.997776 
L 128.932155 -319.693376 
L 125.640388 -323.388975 
L 124.702 -327.084575 
L 126.262414 -330.780175 
L 130.212924 -334.475774 
L 136.217652 -338.171374 
L 143.776051 -341.866974 
L 152.302877 -345.562573 
L 161.207181 -349.258173 
L 169.95685 -352.953773 
L 178.122239 -356.649373 
L 185.398353 -360.344972 
L 191.608496 -364.040572 
L 196.693529 -367.736172 
L 200.691031 -371.431771 
L 203.708624 -375.127371 
L 205.895639 -378.822971 
L 207.417025 -382.518571 
L 208.432513 -386.21417 
L 209.082638 -389.90977 
L 209.481688 -393.60537 
L 209.71642 -397.300969 
L 209.99 -397.300969 
L 209.99 -397.300969 
L 209.99 -393.60537 
L 209.99 -389.90977 
L 209.99 -386.21417 
L 209.99 -382.518571 
L 209.99 -378.822971 
L 209.99 -375.127371 
L 209.99 -371.431771 
L 209.99 -367.736172 
L 209.99 -364.040572 
L 209.99 -360.344972 
L 209.99 -356.649373 
L 209.99 -352.953773 
L 209.99 -349.258173 
L 209.99 -345.562573 
L 209.99 -341.866974 
L 209.99 -338.171374 
L 209.99 -334.475774 
L 209.99 -330.780175 
L 209.99 -327.084575 
L 209.99 -323.388975 
L 209.99 -319.693376 
L 209.99 -315.997776 
L 209.99 -312.302176 
L 209.99 -308.606576 
L 209.99 -304.910977 
L 209.99 -301.215377 
L 209.99 -297.519777 
L 209.99 -293.824178 
L 209.99 -290.128578 
L 209.99 -286.432978 
L 209.99 -282.737379 
L 209.99 -279.041779 
L 209.99 -275.346179 
L 209.99 -271.650579 
L 209.99 -267.95498 
L 209.99 -264.25938 
L 209.99 -260.56378 
L 209.99 -256.868181 
L 209.99 -253.172581 
L 209.99 -249.476981 
L 209.99 -245.781382 
L 209.99 -242.085782 
L 209.99 -238.390182 
L 209.99 -234.694582 
L 209.99 -230.998983 
L 209.99 -227.303383 
L 209.99 -223.607783 
L 209.99 -219.912184 
L 209.99 -216.216584 
L 209.99 -212.520984 
L 209.99 -208.825385 
L 209.99 -205.129785 
L 209.99 -201.434185 
L 209.99 -197.738585 
L 209.99 -194.042986 
L 209.99 -190.347386 
L 209.99 -186.651786 
L 209.99 -182.956187 
L 209.99 -179.260587 
L 209.99 -175.564987 
L 209.99 -171.869388 
L 209.99 -168.173788 
L 209.99 -164.478188 
L 209.99 -160.782588 
L 209.99 -157.086989 
L 209.99 -153.391389 
L 209.99 -149.695789 
L 209.99 -146.00019 
L 209.99 -142.30459 
L 209.99 -138.60899 
L 209.99 -134.913391 
L 209.99 -131.217791 
L 209.99 -127.522191 
L 209.99 -123.826591 
L 209.99 -120.130992 
L 209.99 -116.435392 
L 209.99 -112.739792 
L 209.99 -109.044193 
L 209.99 -105.348593 
L 209.99 -101.652993 
L 209.99 -97.957393 
L 209.99 -94.261794 
L 209.99 -90.566194 
L 209.99 -86.870594 
L 209.99 -83.174995 
L 209.99 -79.479395 
L 209.99 -75.783795 
L 209.99 -72.088196 
L 209.99 -68.392596 
L 209.99 -64.696996 
L 209.99 -61.001396 
L 209.99 -57.305797 
L 209.99 -53.610197 
L 209.99 -49.914597 
L 209.99 -46.218998 
L 209.99 -42.523398 
L 209.99 -38.827798 
L 209.99 -35.132199 
L 209.99 -31.436599 
z
" style="stroke: #6a6a6a; stroke-width: 1.2"/>
    </defs>
    <g clip-path="url(#p706a0b16ba)">
     <use xlink:href="#m624ff3d1f5" x="0" y="422.889687" style="fill: #96cac1; stroke: #6a6a6a; stroke-width: 1.2"/>
    </g>
   </g>
   <g id="FillBetweenPolyCollection_2">
    <defs>
     <path id="m9688c5a22d" d="M 210.236134 -31.288649 
L 209.99 -31.288649 
L 209.99 -35.007048 
L 209.99 -38.725447 
L 209.99 -42.443846 
L 209.99 -46.162245 
L 209.99 -49.880644 
L 209.99 -53.599043 
L 209.99 -57.317442 
L 209.99 -61.035841 
L 209.99 -64.75424 
L 209.99 -68.472639 
L 209.99 -72.191038 
L 209.99 -75.909437 
L 209.99 -79.627836 
L 209.99 -83.346236 
L 209.99 -87.064635 
L 209.99 -90.783034 
L 209.99 -94.501433 
L 209.99 -98.219832 
L 209.99 -101.938231 
L 209.99 -105.65663 
L 209.99 -109.375029 
L 209.99 -113.093428 
L 209.99 -116.811827 
L 209.99 -120.530226 
L 209.99 -124.248625 
L 209.99 -127.967024 
L 209.99 -131.685423 
L 209.99 -135.403822 
L 209.99 -139.122221 
L 209.99 -142.840621 
L 209.99 -146.55902 
L 209.99 -150.277419 
L 209.99 -153.995818 
L 209.99 -157.714217 
L 209.99 -161.432616 
L 209.99 -165.151015 
L 209.99 -168.869414 
L 209.99 -172.587813 
L 209.99 -176.306212 
L 209.99 -180.024611 
L 209.99 -183.74301 
L 209.99 -187.461409 
L 209.99 -191.179808 
L 209.99 -194.898207 
L 209.99 -198.616606 
L 209.99 -202.335006 
L 209.99 -206.053405 
L 209.99 -209.771804 
L 209.99 -213.490203 
L 209.99 -217.208602 
L 209.99 -220.927001 
L 209.99 -224.6454 
L 209.99 -228.363799 
L 209.99 -232.082198 
L 209.99 -235.800597 
L 209.99 -239.518996 
L 209.99 -243.237395 
L 209.99 -246.955794 
L 209.99 -250.674193 
L 209.99 -254.392592 
L 209.99 -258.110991 
L 209.99 -261.829391 
L 209.99 -265.54779 
L 209.99 -269.266189 
L 209.99 -272.984588 
L 209.99 -276.702987 
L 209.99 -280.421386 
L 209.99 -284.139785 
L 209.99 -287.858184 
L 209.99 -291.576583 
L 209.99 -295.294982 
L 209.99 -299.013381 
L 209.99 -302.73178 
L 209.99 -306.450179 
L 209.99 -310.168578 
L 209.99 -313.886977 
L 209.99 -317.605376 
L 209.99 -321.323776 
L 209.99 -325.042175 
L 209.99 -328.760574 
L 209.99 -332.478973 
L 209.99 -336.197372 
L 209.99 -339.915771 
L 209.99 -343.63417 
L 209.99 -347.352569 
L 209.99 -351.070968 
L 209.99 -354.789367 
L 209.99 -358.507766 
L 209.99 -362.226165 
L 209.99 -365.944564 
L 209.99 -369.662963 
L 209.99 -373.381362 
L 209.99 -377.099761 
L 209.99 -380.818161 
L 209.99 -384.53656 
L 209.99 -388.254959 
L 209.99 -391.973358 
L 209.99 -395.691757 
L 209.99 -399.410156 
L 210.253912 -399.410156 
L 210.253912 -399.410156 
L 210.449545 -395.691757 
L 210.765144 -391.973358 
L 211.25856 -388.254959 
L 212.006839 -384.53656 
L 213.107871 -380.818161 
L 214.679112 -377.099761 
L 216.851533 -373.381362 
L 219.757068 -369.662963 
L 223.508743 -365.944564 
L 228.17449 -362.226165 
L 233.748067 -358.507766 
L 240.12294 -354.789367 
L 247.076416 -351.070968 
L 254.270892 -347.352569 
L 261.276426 -343.63417 
L 267.614225 -339.915771 
L 272.815291 -336.197372 
L 276.484036 -332.478973 
L 278.354494 -328.760574 
L 278.327897 -325.042175 
L 276.484337 -321.323776 
L 273.066997 -317.605376 
L 268.443231 -313.886977 
L 263.051014 -310.168578 
L 257.341153 -306.450179 
L 251.72501 -302.73178 
L 246.53503 -299.013381 
L 242.00204 -295.294982 
L 238.249939 -291.576583 
L 235.30561 -287.858184 
L 233.119979 -284.139785 
L 231.595048 -280.421386 
L 230.611561 -276.702987 
L 230.052525 -272.984588 
L 229.819215 -269.266189 
L 229.838275 -265.54779 
L 230.060793 -261.829391 
L 230.456107 -258.110991 
L 231.003932 -254.392592 
L 231.687845 -250.674193 
L 232.491377 -246.955794 
L 233.395851 -243.237395 
L 234.37776 -239.518996 
L 235.403706 -235.800597 
L 236.422804 -232.082198 
L 237.358994 -228.363799 
L 238.10763 -224.6454 
L 238.540682 -220.927001 
L 238.522626 -217.208602 
L 237.935245 -213.490203 
L 236.705573 -209.771804 
L 234.828932 -206.053405 
L 232.379431 -202.335006 
L 229.503648 -198.616606 
L 226.398237 -194.898207 
L 223.277134 -191.179808 
L 220.336966 -187.461409 
L 217.72921 -183.74301 
L 215.544849 -180.024611 
L 213.813065 -176.306212 
L 212.511463 -172.587813 
L 211.582888 -168.869414 
L 210.953479 -165.151015 
L 210.547813 -161.432616 
L 210.299041 -157.714217 
L 210.153811 -153.995818 
L 210.073073 -150.277419 
L 210.030336 -146.55902 
L 210.008847 -142.840621 
L 209.99873 -139.122221 
L 209.994625 -135.403822 
L 209.994052 -131.685423 
L 209.996452 -127.967024 
L 210.002804 -124.248625 
L 210.015679 -120.530226 
L 210.039556 -116.811827 
L 210.081201 -113.093428 
L 210.14982 -109.375029 
L 210.256614 -105.65663 
L 210.413395 -101.938231 
L 210.630075 -98.219832 
L 210.911194 -94.501433 
L 211.252172 -90.783034 
L 211.636433 -87.064635 
L 212.03474 -83.346236 
L 212.407744 -79.627836 
L 212.71188 -75.909437 
L 212.907568 -72.191038 
L 212.967641 -68.472639 
L 212.883527 -64.75424 
L 212.667255 -61.035841 
L 212.348637 -57.317442 
L 211.968525 -53.599043 
L 211.570268 -49.880644 
L 211.191782 -46.162245 
L 210.860208 -42.443846 
L 210.589954 -38.725447 
L 210.383825 -35.007048 
L 210.236134 -31.288649 
z
" style="stroke: #6a6a6a; stroke-width: 1.2"/>
    </defs>
    <g clip-path="url(#p706a0b16ba)">
     <use xlink:href="#m9688c5a22d" x="0" y="422.889687" style="fill: #f6f6bc; stroke: #6a6a6a; stroke-width: 1.2"/>
    </g>
   </g>
   <g id="FillBetweenPolyCollection_3">
    <defs>
     <path id="m86c3d7d712" d="M 423.21 -44.063111 
L 423.016089 -44.063111 
L 422.884452 -46.99285 
L 422.691347 -49.922589 
L 422.425428 -52.852328 
L 422.082438 -55.782066 
L 421.669504 -58.711805 
L 421.208052 -61.641544 
L 420.733923 -64.571283 
L 420.293786 -67.501021 
L 419.938029 -70.43076 
L 419.711504 -73.360499 
L 419.644407 -76.290237 
L 419.745755 -79.219976 
L 420.001274 -82.149715 
L 420.376263 -85.079454 
L 420.822506 -88.009192 
L 421.287204 -90.938931 
L 421.721487 -93.86867 
L 422.086479 -96.798409 
L 422.355974 -99.728147 
L 422.516032 -102.657886 
L 422.562722 -105.587625 
L 422.499582 -108.517364 
L 422.335963 -111.447102 
L 422.086573 -114.376841 
L 421.77172 -117.30658 
L 421.417193 -120.236318 
L 421.052718 -123.166057 
L 420.708498 -126.095796 
L 420.410152 -129.025535 
L 420.173282 -131.955273 
L 419.999423 -134.885012 
L 419.875119 -137.814751 
L 419.77507 -140.74449 
L 419.66898 -143.674228 
L 419.530216 -146.603967 
L 419.343446 -149.533706 
L 419.108553 -152.463444 
L 418.839409 -155.393183 
L 418.55811 -158.322922 
L 418.287058 -161.252661 
L 418.041986 -164.182399 
L 417.828321 -167.112138 
L 417.641626 -170.041877 
L 417.471038 -172.971616 
L 417.303539 -175.901354 
L 417.126878 -178.831093 
L 416.929775 -181.760832 
L 416.699313 -184.690571 
L 416.416471 -187.620309 
L 416.051477 -190.550048 
L 415.560846 -193.479787 
L 414.887649 -196.409525 
L 413.965772 -199.339264 
L 412.727756 -202.269003 
L 411.114573 -205.198742 
L 409.084861 -208.12848 
L 406.621276 -211.058219 
L 403.732739 -213.987958 
L 400.453084 -216.917697 
L 396.837969 -219.847435 
L 392.962066 -222.777174 
L 388.9173 -225.706913 
L 384.810945 -228.636652 
L 380.761038 -231.56639 
L 376.886798 -234.496129 
L 373.293683 -237.425868 
L 370.055582 -240.355606 
L 367.19896 -243.285345 
L 364.694642 -246.215084 
L 362.461598 -249.144823 
L 360.384173 -252.074561 
L 358.340384 -255.0043 
L 356.235526 -257.934039 
L 354.033508 -260.863778 
L 351.778577 -263.793516 
L 349.602279 -266.723255 
L 347.713801 -269.652994 
L 346.375154 -272.582732 
L 345.865293 -275.512471 
L 346.438889 -278.44221 
L 348.286189 -281.371949 
L 351.500167 -284.301687 
L 356.056189 -287.231426 
L 361.807554 -290.161165 
L 368.497892 -293.090904 
L 375.788792 -296.020642 
L 383.298659 -298.950381 
L 390.646899 -301.88012 
L 397.496522 -304.809859 
L 403.588326 -307.739597 
L 408.761286 -310.669336 
L 412.956557 -313.599075 
L 416.206022 -316.528813 
L 418.609542 -319.458552 
L 420.307034 -322.388291 
L 421.45159 -325.31803 
L 422.188296 -328.247768 
L 422.640924 -331.177507 
L 422.906347 -334.107246 
L 423.21 -334.107246 
L 423.21 -334.107246 
L 423.21 -331.177507 
L 423.21 -328.247768 
L 423.21 -325.31803 
L 423.21 -322.388291 
L 423.21 -319.458552 
L 423.21 -316.528813 
L 423.21 -313.599075 
L 423.21 -310.669336 
L 423.21 -307.739597 
L 423.21 -304.809859 
L 423.21 -301.88012 
L 423.21 -298.950381 
L 423.21 -296.020642 
L 423.21 -293.090904 
L 423.21 -290.161165 
L 423.21 -287.231426 
L 423.21 -284.301687 
L 423.21 -281.371949 
L 423.21 -278.44221 
L 423.21 -275.512471 
L 423.21 -272.582732 
L 423.21 -269.652994 
L 423.21 -266.723255 
L 423.21 -263.793516 
L 423.21 -260.863778 
L 423.21 -257.934039 
L 423.21 -255.0043 
L 423.21 -252.074561 
L 423.21 -249.144823 
L 423.21 -246.215084 
L 423.21 -243.285345 
L 423.21 -240.355606 
L 423.21 -237.425868 
L 423.21 -234.496129 
L 423.21 -231.56639 
L 423.21 -228.636652 
L 423.21 -225.706913 
L 423.21 -222.777174 
L 423.21 -219.847435 
L 423.21 -216.917697 
L 423.21 -213.987958 
L 423.21 -211.058219 
L 423.21 -208.12848 
L 423.21 -205.198742 
L 423.21 -202.269003 
L 423.21 -199.339264 
L 423.21 -196.409525 
L 423.21 -193.479787 
L 423.21 -190.550048 
L 423.21 -187.620309 
L 423.21 -184.690571 
L 423.21 -181.760832 
L 423.21 -178.831093 
L 423.21 -175.901354 
L 423.21 -172.971616 
L 423.21 -170.041877 
L 423.21 -167.112138 
L 423.21 -164.182399 
L 423.21 -161.252661 
L 423.21 -158.322922 
L 423.21 -155.393183 
L 423.21 -152.463444 
L 423.21 -149.533706 
L 423.21 -146.603967 
L 423.21 -143.674228 
L 423.21 -140.74449 
L 423.21 -137.814751 
L 423.21 -134.885012 
L 423.21 -131.955273 
L 423.21 -129.025535 
L 423.21 -126.095796 
L 423.21 -123.166057 
L 423.21 -120.236318 
L 423.21 -117.30658 
L 423.21 -114.376841 
L 423.21 -111.447102 
L 423.21 -108.517364 
L 423.21 -105.587625 
L 423.21 -102.657886 
L 423.21 -99.728147 
L 423.21 -96.798409 
L 423.21 -93.86867 
L 423.21 -90.938931 
L 423.21 -88.009192 
L 423.21 -85.079454 
L 423.21 -82.149715 
L 423.21 -79.219976 
L 423.21 -76.290237 
L 423.21 -73.360499 
L 423.21 -70.43076 
L 423.21 -67.501021 
L 423.21 -64.571283 
L 423.21 -61.641544 
L 423.21 -58.711805 
L 423.21 -55.782066 
L 423.21 -52.852328 
L 423.21 -49.922589 
L 423.21 -46.99285 
L 423.21 -44.063111 
z
" style="stroke: #6a6a6a; stroke-width: 1.2"/>
    </defs>
    <g clip-path="url(#p706a0b16ba)">
     <use xlink:href="#m86c3d7d712" x="0" y="422.889687" style="fill: #96cac1; stroke: #6a6a6a; stroke-width: 1.2"/>
    </g>
   </g>
   <g id="FillBetweenPolyCollection_4">
    <defs>
     <path id="m848801b057" d="M 423.499695 -57.059 
L 423.21 -57.059 
L 423.21 -59.870482 
L 423.21 -62.681963 
L 423.21 -65.493445 
L 423.21 -68.304927 
L 423.21 -71.116409 
L 423.21 -73.927891 
L 423.21 -76.739372 
L 423.21 -79.550854 
L 423.21 -82.362336 
L 423.21 -85.173818 
L 423.21 -87.985299 
L 423.21 -90.796781 
L 423.21 -93.608263 
L 423.21 -96.419745 
L 423.21 -99.231227 
L 423.21 -102.042708 
L 423.21 -104.85419 
L 423.21 -107.665672 
L 423.21 -110.477154 
L 423.21 -113.288635 
L 423.21 -116.100117 
L 423.21 -118.911599 
L 423.21 -121.723081 
L 423.21 -124.534562 
L 423.21 -127.346044 
L 423.21 -130.157526 
L 423.21 -132.969008 
L 423.21 -135.78049 
L 423.21 -138.591971 
L 423.21 -141.403453 
L 423.21 -144.214935 
L 423.21 -147.026417 
L 423.21 -149.837898 
L 423.21 -152.64938 
L 423.21 -155.460862 
L 423.21 -158.272344 
L 423.21 -161.083826 
L 423.21 -163.895307 
L 423.21 -166.706789 
L 423.21 -169.518271 
L 423.21 -172.329753 
L 423.21 -175.141234 
L 423.21 -177.952716 
L 423.21 -180.764198 
L 423.21 -183.57568 
L 423.21 -186.387162 
L 423.21 -189.198643 
L 423.21 -192.010125 
L 423.21 -194.821607 
L 423.21 -197.633089 
L 423.21 -200.44457 
L 423.21 -203.256052 
L 423.21 -206.067534 
L 423.21 -208.879016 
L 423.21 -211.690497 
L 423.21 -214.501979 
L 423.21 -217.313461 
L 423.21 -220.124943 
L 423.21 -222.936425 
L 423.21 -225.747906 
L 423.21 -228.559388 
L 423.21 -231.37087 
L 423.21 -234.182352 
L 423.21 -236.993833 
L 423.21 -239.805315 
L 423.21 -242.616797 
L 423.21 -245.428279 
L 423.21 -248.239761 
L 423.21 -251.051242 
L 423.21 -253.862724 
L 423.21 -256.674206 
L 423.21 -259.485688 
L 423.21 -262.297169 
L 423.21 -265.108651 
L 423.21 -267.920133 
L 423.21 -270.731615 
L 423.21 -273.543097 
L 423.21 -276.354578 
L 423.21 -279.16606 
L 423.21 -281.977542 
L 423.21 -284.789024 
L 423.21 -287.600505 
L 423.21 -290.411987 
L 423.21 -293.223469 
L 423.21 -296.034951 
L 423.21 -298.846432 
L 423.21 -301.657914 
L 423.21 -304.469396 
L 423.21 -307.280878 
L 423.21 -310.09236 
L 423.21 -312.903841 
L 423.21 -315.715323 
L 423.21 -318.526805 
L 423.21 -321.338287 
L 423.21 -324.149768 
L 423.21 -326.96125 
L 423.21 -329.772732 
L 423.21 -332.584214 
L 423.21 -335.395696 
L 423.468034 -335.395696 
L 423.468034 -335.395696 
L 423.681914 -332.584214 
L 424.03815 -329.772732 
L 424.605824 -326.96125 
L 425.471984 -324.149768 
L 426.738555 -321.338287 
L 428.515366 -318.526805 
L 430.909399 -315.715323 
L 434.011359 -312.903841 
L 437.881523 -310.09236 
L 442.53729 -307.280878 
L 447.944764 -304.469396 
L 454.015886 -301.657914 
L 460.611488 -298.846432 
L 467.549299 -296.034951 
L 474.614975 -293.223469 
L 481.573969 -290.411987 
L 488.182687 -287.600505 
L 494.198752 -284.789024 
L 499.391488 -281.977542 
L 503.554366 -279.16606 
L 506.520449 -276.354578 
L 508.180084 -273.543097 
L 508.498 -270.731615 
L 507.525435 -267.920133 
L 505.402738 -265.108651 
L 502.349101 -262.297169 
L 498.638555 -259.485688 
L 494.564629 -256.674206 
L 490.399433 -253.862724 
L 486.355521 -251.051242 
L 482.5595 -248.239761 
L 479.044264 -245.428279 
L 475.762049 -242.616797 
L 472.614605 -239.805315 
L 469.491785 -236.993833 
L 466.307772 -234.182352 
L 463.025676 -231.37087 
L 459.665704 -228.559388 
L 456.297568 -225.747906 
L 453.022198 -222.936425 
L 449.949711 -220.124943 
L 447.179771 -217.313461 
L 444.787762 -214.501979 
L 442.817174 -211.690497 
L 441.276644 -208.879016 
L 440.139805 -206.067534 
L 439.347309 -203.256052 
L 438.811781 -200.44457 
L 438.426999 -197.633089 
L 438.081625 -194.821607 
L 437.675768 -192.010125 
L 437.136698 -189.198643 
L 436.429464 -186.387162 
L 435.55938 -183.57568 
L 434.565938 -180.764198 
L 433.510376 -177.952716 
L 432.460758 -175.141234 
L 431.478411 -172.329753 
L 430.608308 -169.518271 
L 429.874299 -166.706789 
L 429.278793 -163.895307 
L 428.805866 -161.083826 
L 428.426731 -158.272344 
L 428.106519 -155.460862 
L 427.811324 -152.64938 
L 427.514312 -149.837898 
L 427.19972 -147.026417 
L 426.863961 -144.214935 
L 426.513731 -141.403453 
L 426.161875 -138.591971 
L 425.822403 -135.78049 
L 425.506271 -132.969008 
L 425.219208 -130.157526 
L 424.96216 -127.346044 
L 424.733963 -124.534562 
L 424.535144 -121.723081 
L 424.371384 -118.911599 
L 424.255312 -116.100117 
L 424.205837 -113.288635 
L 424.244851 -110.477154 
L 424.391776 -107.665672 
L 424.656934 -104.85419 
L 425.035201 -102.042708 
L 425.501679 -99.231227 
L 426.011179 -96.419745 
L 426.502722 -93.608263 
L 426.909019 -90.796781 
L 427.169199 -87.985299 
L 427.241608 -85.173818 
L 427.112928 -82.362336 
L 426.800785 -79.550854 
L 426.348982 -76.739372 
L 425.816937 -73.927891 
L 425.266675 -71.116409 
L 424.751153 -68.304927 
L 424.30678 -65.493445 
L 423.951195 -62.681963 
L 423.685583 -59.870482 
L 423.499695 -57.059 
z
" style="stroke: #6a6a6a; stroke-width: 1.2"/>
    </defs>
    <g clip-path="url(#p706a0b16ba)">
     <use xlink:href="#m848801b057" x="0" y="422.889687" style="fill: #f6f6bc; stroke: #6a6a6a; stroke-width: 1.2"/>
    </g>
   </g>
   <g id="patch_3">
    <path d="M 209.99 367.054176 
L 209.99 367.054176 
L 209.99 367.054176 
L 209.99 367.054176 
z
" clip-path="url(#p706a0b16ba)" style="fill: #96cac1; stroke: #6a6a6a; stroke-width: 1.2; stroke-linejoin: miter"/>
   </g>
   <g id="patch_4">
    <path d="M 209.99 367.054176 
L 209.99 367.054176 
L 209.99 367.054176 
L 209.99 367.054176 
z
" clip-path="url(#p706a0b16ba)" style="fill: #f6f6bc; stroke: #6a6a6a; stroke-width: 1.2; stroke-linejoin: miter"/>
   </g>
   <g id="matplotlib.axis_1">
    <g id="xtick_1">
     <g id="line2d_1">
      <defs>
       <path id="mf25765650a" d="M 0 0 
L 0 3.5 
" style="stroke: #000000; stroke-width: 0.8"/>
      </defs>
      <g>
       <use xlink:href="#mf25765650a" x="209.99" y="383.397812" style="stroke: #000000; stroke-width: 0.8"/>
      </g>
     </g>
     <g id="text_1">
      <!-- 3 Topics -->
      <g transform="translate(190.039219 397.99625) scale(0.1 -0.1)">
       <defs>
        <path id="DejaVuSans-33" d="M 2597 2516 
Q 3050 2419 3304 2112 
Q 3559 1806 3559 1356 
Q 3559 666 3084 287 
Q 2609 -91 1734 -91 
Q 1441 -91 1130 -33 
Q 819 25 488 141 
L 488 750 
Q 750 597 1062 519 
Q 1375 441 1716 441 
Q 2309 441 2620 675 
Q 2931 909 2931 1356 
Q 2931 1769 2642 2001 
Q 2353 2234 1838 2234 
L 1294 2234 
L 1294 2753 
L 1863 2753 
Q 2328 2753 2575 2939 
Q 2822 3125 2822 3475 
Q 2822 3834 2567 4026 
Q 2313 4219 1838 4219 
Q 1578 4219 1281 4162 
Q 984 4106 628 3988 
L 628 4550 
Q 988 4650 1302 4700 
Q 1616 4750 1894 4750 
Q 2613 4750 3031 4423 
Q 3450 4097 3450 3541 
Q 3450 3153 3228 2886 
Q 3006 2619 2597 2516 
z
" transform="scale(0.015625)"/>
        <path id="DejaVuSans-20" transform="scale(0.015625)"/>
        <path id="DejaVuSans-54" d="M -19 4666 
L 3928 4666 
L 3928 4134 
L 2272 4134 
L 2272 0 
L 1638 0 
L 1638 4134 
L -19 4134 
L -19 4666 
z
" transform="scale(0.015625)"/>
        <path id="DejaVuSans-6f" d="M 1959 3097 
Q 1497 3097 1228 2736 
Q 959 2375 959 1747 
Q 959 1119 1226 758 
Q 1494 397 1959 397 
Q 2419 397 2687 759 
Q 2956 1122 2956 1747 
Q 2956 2369 2687 2733 
Q 2419 3097 1959 3097 
z
M 1959 3584 
Q 2709 3584 3137 3096 
Q 3566 2609 3566 1747 
Q 3566 888 3137 398 
Q 2709 -91 1959 -91 
Q 1206 -91 779 398 
Q 353 888 353 1747 
Q 353 2609 779 3096 
Q 1206 3584 1959 3584 
z
" transform="scale(0.015625)"/>
        <path id="DejaVuSans-70" d="M 1159 525 
L 1159 -1331 
L 581 -1331 
L 581 3500 
L 1159 3500 
L 1159 2969 
Q 1341 3281 1617 3432 
Q 1894 3584 2278 3584 
Q 2916 3584 3314 3078 
Q 3713 2572 3713 1747 
Q 3713 922 3314 415 
Q 2916 -91 2278 -91 
Q 1894 -91 1617 61 
Q 1341 213 1159 525 
z
M 3116 1747 
Q 3116 2381 2855 2742 
Q 2594 3103 2138 3103 
Q 1681 3103 1420 2742 
Q 1159 2381 1159 1747 
Q 1159 1113 1420 752 
Q 1681 391 2138 391 
Q 2594 391 2855 752 
Q 3116 1113 3116 1747 
z
" transform="scale(0.015625)"/>
        <path id="DejaVuSans-69" d="M 603 3500 
L 1178 3500 
L 1178 0 
L 603 0 
L 603 3500 
z
M 603 4863 
L 1178 4863 
L 1178 4134 
L 603 4134 
L 603 4863 
z
" transform="scale(0.015625)"/>
        <path id="DejaVuSans-63" d="M 3122 3366 
L 3122 2828 
Q 2878 2963 2633 3030 
Q 2388 3097 2138 3097 
Q 1578 3097 1268 2742 
Q 959 2388 959 1747 
Q 959 1106 1268 751 
Q 1578 397 2138 397 
Q 2388 397 2633 464 
Q 2878 531 3122 666 
L 3122 134 
Q 2881 22 2623 -34 
Q 2366 -91 2075 -91 
Q 1284 -91 818 406 
Q 353 903 353 1747 
Q 353 2603 823 3093 
Q 1294 3584 2113 3584 
Q 2378 3584 2631 3529 
Q 2884 3475 3122 3366 
z
" transform="scale(0.015625)"/>
        <path id="DejaVuSans-73" d="M 2834 3397 
L 2834 2853 
Q 2591 2978 2328 3040 
Q 2066 3103 1784 3103 
Q 1356 3103 1142 2972 
Q 928 2841 928 2578 
Q 928 2378 1081 2264 
Q 1234 2150 1697 2047 
L 1894 2003 
Q 2506 1872 2764 1633 
Q 3022 1394 3022 966 
Q 3022 478 2636 193 
Q 2250 -91 1575 -91 
Q 1294 -91 989 -36 
Q 684 19 347 128 
L 347 722 
Q 666 556 975 473 
Q 1284 391 1588 391 
Q 1994 391 2212 530 
Q 2431 669 2431 922 
Q 2431 1156 2273 1281 
Q 2116 1406 1581 1522 
L 1381 1569 
Q 847 1681 609 1914 
Q 372 2147 372 2553 
Q 372 3047 722 3315 
Q 1072 3584 1716 3584 
Q 2034 3584 2315 3537 
Q 2597 3491 2834 3397 
z
" transform="scale(0.015625)"/>
       </defs>
       <use xlink:href="#DejaVuSans-33"/>
       <use xlink:href="#DejaVuSans-20" transform="translate(63.623047 0)"/>
       <use xlink:href="#DejaVuSans-54" transform="translate(95.410156 0)"/>
       <use xlink:href="#DejaVuSans-6f" transform="translate(139.494141 0)"/>
       <use xlink:href="#DejaVuSans-70" transform="translate(200.675781 0)"/>
       <use xlink:href="#DejaVuSans-69" transform="translate(264.152344 0)"/>
       <use xlink:href="#DejaVuSans-63" transform="translate(291.935547 0)"/>
       <use xlink:href="#DejaVuSans-73" transform="translate(346.916016 0)"/>
      </g>
     </g>
    </g>
    <g id="xtick_2">
     <g id="line2d_2">
      <g>
       <use xlink:href="#mf25765650a" x="423.21" y="383.397812" style="stroke: #000000; stroke-width: 0.8"/>
      </g>
     </g>
     <g id="text_2">
      <!-- 9 Topics -->
      <g transform="translate(403.259219 397.99625) scale(0.1 -0.1)">
       <defs>
        <path id="DejaVuSans-39" d="M 703 97 
L 703 672 
Q 941 559 1184 500 
Q 1428 441 1663 441 
Q 2288 441 2617 861 
Q 2947 1281 2994 2138 
Q 2813 1869 2534 1725 
Q 2256 1581 1919 1581 
Q 1219 1581 811 2004 
Q 403 2428 403 3163 
Q 403 3881 828 4315 
Q 1253 4750 1959 4750 
Q 2769 4750 3195 4129 
Q 3622 3509 3622 2328 
Q 3622 1225 3098 567 
Q 2575 -91 1691 -91 
Q 1453 -91 1209 -44 
Q 966 3 703 97 
z
M 1959 2075 
Q 2384 2075 2632 2365 
Q 2881 2656 2881 3163 
Q 2881 3666 2632 3958 
Q 2384 4250 1959 4250 
Q 1534 4250 1286 3958 
Q 1038 3666 1038 3163 
Q 1038 2656 1286 2365 
Q 1534 2075 1959 2075 
z
" transform="scale(0.015625)"/>
       </defs>
       <use xlink:href="#DejaVuSans-39"/>
       <use xlink:href="#DejaVuSans-20" transform="translate(63.623047 0)"/>
       <use xlink:href="#DejaVuSans-54" transform="translate(95.410156 0)"/>
       <use xlink:href="#DejaVuSans-6f" transform="translate(139.494141 0)"/>
       <use xlink:href="#DejaVuSans-70" transform="translate(200.675781 0)"/>
       <use xlink:href="#DejaVuSans-69" transform="translate(264.152344 0)"/>
       <use xlink:href="#DejaVuSans-63" transform="translate(291.935547 0)"/>
       <use xlink:href="#DejaVuSans-73" transform="translate(346.916016 0)"/>
      </g>
     </g>
    </g>
    <g id="text_3">
     <!-- Number of Competing Topics -->
     <g transform="translate(229.939375 413.194062) scale(0.12 -0.12)">
      <defs>
       <path id="DejaVuSans-4e" d="M 628 4666 
L 1478 4666 
L 3547 763 
L 3547 4666 
L 4159 4666 
L 4159 0 
L 3309 0 
L 1241 3903 
L 1241 0 
L 628 0 
L 628 4666 
z
" transform="scale(0.015625)"/>
       <path id="DejaVuSans-75" d="M 544 1381 
L 544 3500 
L 1119 3500 
L 1119 1403 
Q 1119 906 1312 657 
Q 1506 409 1894 409 
Q 2359 409 2629 706 
Q 2900 1003 2900 1516 
L 2900 3500 
L 3475 3500 
L 3475 0 
L 2900 0 
L 2900 538 
Q 2691 219 2414 64 
Q 2138 -91 1772 -91 
Q 1169 -91 856 284 
Q 544 659 544 1381 
z
M 1991 3584 
L 1991 3584 
z
" transform="scale(0.015625)"/>
       <path id="DejaVuSans-6d" d="M 3328 2828 
Q 3544 3216 3844 3400 
Q 4144 3584 4550 3584 
Q 5097 3584 5394 3201 
Q 5691 2819 5691 2113 
L 5691 0 
L 5113 0 
L 5113 2094 
Q 5113 2597 4934 2840 
Q 4756 3084 4391 3084 
Q 3944 3084 3684 2787 
Q 3425 2491 3425 1978 
L 3425 0 
L 2847 0 
L 2847 2094 
Q 2847 2600 2669 2842 
Q 2491 3084 2119 3084 
Q 1678 3084 1418 2786 
Q 1159 2488 1159 1978 
L 1159 0 
L 581 0 
L 581 3500 
L 1159 3500 
L 1159 2956 
Q 1356 3278 1631 3431 
Q 1906 3584 2284 3584 
Q 2666 3584 2933 3390 
Q 3200 3197 3328 2828 
z
" transform="scale(0.015625)"/>
       <path id="DejaVuSans-62" d="M 3116 1747 
Q 3116 2381 2855 2742 
Q 2594 3103 2138 3103 
Q 1681 3103 1420 2742 
Q 1159 2381 1159 1747 
Q 1159 1113 1420 752 
Q 1681 391 2138 391 
Q 2594 391 2855 752 
Q 3116 1113 3116 1747 
z
M 1159 2969 
Q 1341 3281 1617 3432 
Q 1894 3584 2278 3584 
Q 2916 3584 3314 3078 
Q 3713 2572 3713 1747 
Q 3713 922 3314 415 
Q 2916 -91 2278 -91 
Q 1894 -91 1617 61 
Q 1341 213 1159 525 
L 1159 0 
L 581 0 
L 581 4863 
L 1159 4863 
L 1159 2969 
z
" transform="scale(0.015625)"/>
       <path id="DejaVuSans-65" d="M 3597 1894 
L 3597 1613 
L 953 1613 
Q 991 1019 1311 708 
Q 1631 397 2203 397 
Q 2534 397 2845 478 
Q 3156 559 3463 722 
L 3463 178 
Q 3153 47 2828 -22 
Q 2503 -91 2169 -91 
Q 1331 -91 842 396 
Q 353 884 353 1716 
Q 353 2575 817 3079 
Q 1281 3584 2069 3584 
Q 2775 3584 3186 3129 
Q 3597 2675 3597 1894 
z
M 3022 2063 
Q 3016 2534 2758 2815 
Q 2500 3097 2075 3097 
Q 1594 3097 1305 2825 
Q 1016 2553 972 2059 
L 3022 2063 
z
" transform="scale(0.015625)"/>
       <path id="DejaVuSans-72" d="M 2631 2963 
Q 2534 3019 2420 3045 
Q 2306 3072 2169 3072 
Q 1681 3072 1420 2755 
Q 1159 2438 1159 1844 
L 1159 0 
L 581 0 
L 581 3500 
L 1159 3500 
L 1159 2956 
Q 1341 3275 1631 3429 
Q 1922 3584 2338 3584 
Q 2397 3584 2469 3576 
Q 2541 3569 2628 3553 
L 2631 2963 
z
" transform="scale(0.015625)"/>
       <path id="DejaVuSans-66" d="M 2375 4863 
L 2375 4384 
L 1825 4384 
Q 1516 4384 1395 4259 
Q 1275 4134 1275 3809 
L 1275 3500 
L 2222 3500 
L 2222 3053 
L 1275 3053 
L 1275 0 
L 697 0 
L 697 3053 
L 147 3053 
L 147 3500 
L 697 3500 
L 697 3744 
Q 697 4328 969 4595 
Q 1241 4863 1831 4863 
L 2375 4863 
z
" transform="scale(0.015625)"/>
       <path id="DejaVuSans-43" d="M 4122 4306 
L 4122 3641 
Q 3803 3938 3442 4084 
Q 3081 4231 2675 4231 
Q 1875 4231 1450 3742 
Q 1025 3253 1025 2328 
Q 1025 1406 1450 917 
Q 1875 428 2675 428 
Q 3081 428 3442 575 
Q 3803 722 4122 1019 
L 4122 359 
Q 3791 134 3420 21 
Q 3050 -91 2638 -91 
Q 1578 -91 968 557 
Q 359 1206 359 2328 
Q 359 3453 968 4101 
Q 1578 4750 2638 4750 
Q 3056 4750 3426 4639 
Q 3797 4528 4122 4306 
z
" transform="scale(0.015625)"/>
       <path id="DejaVuSans-74" d="M 1172 4494 
L 1172 3500 
L 2356 3500 
L 2356 3053 
L 1172 3053 
L 1172 1153 
Q 1172 725 1289 603 
Q 1406 481 1766 481 
L 2356 481 
L 2356 0 
L 1766 0 
Q 1100 0 847 248 
Q 594 497 594 1153 
L 594 3053 
L 172 3053 
L 172 3500 
L 594 3500 
L 594 4494 
L 1172 4494 
z
" transform="scale(0.015625)"/>
       <path id="DejaVuSans-6e" d="M 3513 2113 
L 3513 0 
L 2938 0 
L 2938 2094 
Q 2938 2591 2744 2837 
Q 2550 3084 2163 3084 
Q 1697 3084 1428 2787 
Q 1159 2491 1159 1978 
L 1159 0 
L 581 0 
L 581 3500 
L 1159 3500 
L 1159 2956 
Q 1366 3272 1645 3428 
Q 1925 3584 2291 3584 
Q 2894 3584 3203 3211 
Q 3513 2838 3513 2113 
z
" transform="scale(0.015625)"/>
       <path id="DejaVuSans-67" d="M 2906 1791 
Q 2906 2416 2648 2759 
Q 2391 3103 1925 3103 
Q 1463 3103 1205 2759 
Q 947 2416 947 1791 
Q 947 1169 1205 825 
Q 1463 481 1925 481 
Q 2391 481 2648 825 
Q 2906 1169 2906 1791 
z
M 3481 434 
Q 3481 -459 3084 -895 
Q 2688 -1331 1869 -1331 
Q 1566 -1331 1297 -1286 
Q 1028 -1241 775 -1147 
L 775 -588 
Q 1028 -725 1275 -790 
Q 1522 -856 1778 -856 
Q 2344 -856 2625 -561 
Q 2906 -266 2906 331 
L 2906 616 
Q 2728 306 2450 153 
Q 2172 0 1784 0 
Q 1141 0 747 490 
Q 353 981 353 1791 
Q 353 2603 747 3093 
Q 1141 3584 1784 3584 
Q 2172 3584 2450 3431 
Q 2728 3278 2906 2969 
L 2906 3500 
L 3481 3500 
L 3481 434 
z
" transform="scale(0.015625)"/>
      </defs>
      <use xlink:href="#DejaVuSans-4e"/>
      <use xlink:href="#DejaVuSans-75" transform="translate(74.804688 0)"/>
      <use xlink:href="#DejaVuSans-6d" transform="translate(138.183594 0)"/>
      <use xlink:href="#DejaVuSans-62" transform="translate(235.595703 0)"/>
      <use xlink:href="#DejaVuSans-65" transform="translate(299.072266 0)"/>
      <use xlink:href="#DejaVuSans-72" transform="translate(360.595703 0)"/>
      <use xlink:href="#DejaVuSans-20" transform="translate(401.708984 0)"/>
      <use xlink:href="#DejaVuSans-6f" transform="translate(433.496094 0)"/>
      <use xlink:href="#DejaVuSans-66" transform="translate(494.677734 0)"/>
      <use xlink:href="#DejaVuSans-20" transform="translate(529.882812 0)"/>
      <use xlink:href="#DejaVuSans-43" transform="translate(561.669922 0)"/>
      <use xlink:href="#DejaVuSans-6f" transform="translate(631.494141 0)"/>
      <use xlink:href="#DejaVuSans-6d" transform="translate(692.675781 0)"/>
      <use xlink:href="#DejaVuSans-70" transform="translate(790.087891 0)"/>
      <use xlink:href="#DejaVuSans-65" transform="translate(853.564453 0)"/>
      <use xlink:href="#DejaVuSans-74" transform="translate(915.087891 0)"/>
      <use xlink:href="#DejaVuSans-69" transform="translate(954.296875 0)"/>
      <use xlink:href="#DejaVuSans-6e" transform="translate(982.080078 0)"/>
      <use xlink:href="#DejaVuSans-67" transform="translate(1045.458984 0)"/>
      <use xlink:href="#DejaVuSans-20" transform="translate(1108.935547 0)"/>
      <use xlink:href="#DejaVuSans-54" transform="translate(1140.722656 0)"/>
      <use xlink:href="#DejaVuSans-6f" transform="translate(1184.806641 0)"/>
      <use xlink:href="#DejaVuSans-70" transform="translate(1245.988281 0)"/>
      <use xlink:href="#DejaVuSans-69" transform="translate(1309.464844 0)"/>
      <use xlink:href="#DejaVuSans-63" transform="translate(1337.248047 0)"/>
      <use xlink:href="#DejaVuSans-73" transform="translate(1392.228516 0)"/>
     </g>
    </g>
   </g>
   <g id="matplotlib.axis_2">
    <g id="ytick_1">
     <g id="line2d_3">
      <path d="M 103.38 367.054176 
L 529.82 367.054176 
" clip-path="url(#p706a0b16ba)" style="fill: none; stroke-dasharray: 2.96,1.28; stroke-dashoffset: 0; stroke: #b0b0b0; stroke-opacity: 0.6; stroke-width: 0.8"/>
     </g>
     <g id="line2d_4">
      <defs>
       <path id="md79892e6b9" d="M 0 0 
L -3.5 0 
" style="stroke: #000000; stroke-width: 0.8"/>
      </defs>
      <g>
       <use xlink:href="#md79892e6b9" x="103.38" y="367.054176" style="stroke: #000000; stroke-width: 0.8"/>
      </g>
     </g>
     <g id="text_4">
      <!-- 0.0 -->
      <g transform="translate(80.476875 370.853395) scale(0.1 -0.1)">
       <defs>
        <path id="DejaVuSans-30" d="M 2034 4250 
Q 1547 4250 1301 3770 
Q 1056 3291 1056 2328 
Q 1056 1369 1301 889 
Q 1547 409 2034 409 
Q 2525 409 2770 889 
Q 3016 1369 3016 2328 
Q 3016 3291 2770 3770 
Q 2525 4250 2034 4250 
z
M 2034 4750 
Q 2819 4750 3233 4129 
Q 3647 3509 3647 2328 
Q 3647 1150 3233 529 
Q 2819 -91 2034 -91 
Q 1250 -91 836 529 
Q 422 1150 422 2328 
Q 422 3509 836 4129 
Q 1250 4750 2034 4750 
z
" transform="scale(0.015625)"/>
        <path id="DejaVuSans-2e" d="M 684 794 
L 1344 794 
L 1344 0 
L 684 0 
L 684 794 
z
" transform="scale(0.015625)"/>
       </defs>
       <use xlink:href="#DejaVuSans-30"/>
       <use xlink:href="#DejaVuSans-2e" transform="translate(63.623047 0)"/>
       <use xlink:href="#DejaVuSans-30" transform="translate(95.410156 0)"/>
      </g>
     </g>
    </g>
    <g id="ytick_2">
     <g id="line2d_5">
      <path d="M 103.38 301.679631 
L 529.82 301.679631 
" clip-path="url(#p706a0b16ba)" style="fill: none; stroke-dasharray: 2.96,1.28; stroke-dashoffset: 0; stroke: #b0b0b0; stroke-opacity: 0.6; stroke-width: 0.8"/>
     </g>
     <g id="line2d_6">
      <g>
       <use xlink:href="#md79892e6b9" x="103.38" y="301.679631" style="stroke: #000000; stroke-width: 0.8"/>
      </g>
     </g>
     <g id="text_5">
      <!-- 0.2 -->
      <g transform="translate(80.476875 305.478849) scale(0.1 -0.1)">
       <defs>
        <path id="DejaVuSans-32" d="M 1228 531 
L 3431 531 
L 3431 0 
L 469 0 
L 469 531 
Q 828 903 1448 1529 
Q 2069 2156 2228 2338 
Q 2531 2678 2651 2914 
Q 2772 3150 2772 3378 
Q 2772 3750 2511 3984 
Q 2250 4219 1831 4219 
Q 1534 4219 1204 4116 
Q 875 4013 500 3803 
L 500 4441 
Q 881 4594 1212 4672 
Q 1544 4750 1819 4750 
Q 2544 4750 2975 4387 
Q 3406 4025 3406 3419 
Q 3406 3131 3298 2873 
Q 3191 2616 2906 2266 
Q 2828 2175 2409 1742 
Q 1991 1309 1228 531 
z
" transform="scale(0.015625)"/>
       </defs>
       <use xlink:href="#DejaVuSans-30"/>
       <use xlink:href="#DejaVuSans-2e" transform="translate(63.623047 0)"/>
       <use xlink:href="#DejaVuSans-32" transform="translate(95.410156 0)"/>
      </g>
     </g>
    </g>
    <g id="ytick_3">
     <g id="line2d_7">
      <path d="M 103.38 236.305085 
L 529.82 236.305085 
" clip-path="url(#p706a0b16ba)" style="fill: none; stroke-dasharray: 2.96,1.28; stroke-dashoffset: 0; stroke: #b0b0b0; stroke-opacity: 0.6; stroke-width: 0.8"/>
     </g>
     <g id="line2d_8">
      <g>
       <use xlink:href="#md79892e6b9" x="103.38" y="236.305085" style="stroke: #000000; stroke-width: 0.8"/>
      </g>
     </g>
     <g id="text_6">
      <!-- 0.4 -->
      <g transform="translate(80.476875 240.104304) scale(0.1 -0.1)">
       <defs>
        <path id="DejaVuSans-34" d="M 2419 4116 
L 825 1625 
L 2419 1625 
L 2419 4116 
z
M 2253 4666 
L 3047 4666 
L 3047 1625 
L 3713 1625 
L 3713 1100 
L 3047 1100 
L 3047 0 
L 2419 0 
L 2419 1100 
L 313 1100 
L 313 1709 
L 2253 4666 
z
" transform="scale(0.015625)"/>
       </defs>
       <use xlink:href="#DejaVuSans-30"/>
       <use xlink:href="#DejaVuSans-2e" transform="translate(63.623047 0)"/>
       <use xlink:href="#DejaVuSans-34" transform="translate(95.410156 0)"/>
      </g>
     </g>
    </g>
    <g id="ytick_4">
     <g id="line2d_9">
      <path d="M 103.38 170.93054 
L 529.82 170.93054 
" clip-path="url(#p706a0b16ba)" style="fill: none; stroke-dasharray: 2.96,1.28; stroke-dashoffset: 0; stroke: #b0b0b0; stroke-opacity: 0.6; stroke-width: 0.8"/>
     </g>
     <g id="line2d_10">
      <g>
       <use xlink:href="#md79892e6b9" x="103.38" y="170.93054" style="stroke: #000000; stroke-width: 0.8"/>
      </g>
     </g>
     <g id="text_7">
      <!-- 0.6 -->
      <g transform="translate(80.476875 174.729759) scale(0.1 -0.1)">
       <defs>
        <path id="DejaVuSans-36" d="M 2113 2584 
Q 1688 2584 1439 2293 
Q 1191 2003 1191 1497 
Q 1191 994 1439 701 
Q 1688 409 2113 409 
Q 2538 409 2786 701 
Q 3034 994 3034 1497 
Q 3034 2003 2786 2293 
Q 2538 2584 2113 2584 
z
M 3366 4563 
L 3366 3988 
Q 3128 4100 2886 4159 
Q 2644 4219 2406 4219 
Q 1781 4219 1451 3797 
Q 1122 3375 1075 2522 
Q 1259 2794 1537 2939 
Q 1816 3084 2150 3084 
Q 2853 3084 3261 2657 
Q 3669 2231 3669 1497 
Q 3669 778 3244 343 
Q 2819 -91 2113 -91 
Q 1303 -91 875 529 
Q 447 1150 447 2328 
Q 447 3434 972 4092 
Q 1497 4750 2381 4750 
Q 2619 4750 2861 4703 
Q 3103 4656 3366 4563 
z
" transform="scale(0.015625)"/>
       </defs>
       <use xlink:href="#DejaVuSans-30"/>
       <use xlink:href="#DejaVuSans-2e" transform="translate(63.623047 0)"/>
       <use xlink:href="#DejaVuSans-36" transform="translate(95.410156 0)"/>
      </g>
     </g>
    </g>
    <g id="ytick_5">
     <g id="line2d_11">
      <path d="M 103.38 105.555994 
L 529.82 105.555994 
" clip-path="url(#p706a0b16ba)" style="fill: none; stroke-dasharray: 2.96,1.28; stroke-dashoffset: 0; stroke: #b0b0b0; stroke-opacity: 0.6; stroke-width: 0.8"/>
     </g>
     <g id="line2d_12">
      <g>
       <use xlink:href="#md79892e6b9" x="103.38" y="105.555994" style="stroke: #000000; stroke-width: 0.8"/>
      </g>
     </g>
     <g id="text_8">
      <!-- 0.8 -->
      <g transform="translate(80.476875 109.355213) scale(0.1 -0.1)">
       <defs>
        <path id="DejaVuSans-38" d="M 2034 2216 
Q 1584 2216 1326 1975 
Q 1069 1734 1069 1313 
Q 1069 891 1326 650 
Q 1584 409 2034 409 
Q 2484 409 2743 651 
Q 3003 894 3003 1313 
Q 3003 1734 2745 1975 
Q 2488 2216 2034 2216 
z
M 1403 2484 
Q 997 2584 770 2862 
Q 544 3141 544 3541 
Q 544 4100 942 4425 
Q 1341 4750 2034 4750 
Q 2731 4750 3128 4425 
Q 3525 4100 3525 3541 
Q 3525 3141 3298 2862 
Q 3072 2584 2669 2484 
Q 3125 2378 3379 2068 
Q 3634 1759 3634 1313 
Q 3634 634 3220 271 
Q 2806 -91 2034 -91 
Q 1263 -91 848 271 
Q 434 634 434 1313 
Q 434 1759 690 2068 
Q 947 2378 1403 2484 
z
M 1172 3481 
Q 1172 3119 1398 2916 
Q 1625 2713 2034 2713 
Q 2441 2713 2670 2916 
Q 2900 3119 2900 3481 
Q 2900 3844 2670 4047 
Q 2441 4250 2034 4250 
Q 1625 4250 1398 4047 
Q 1172 3844 1172 3481 
z
" transform="scale(0.015625)"/>
       </defs>
       <use xlink:href="#DejaVuSans-30"/>
       <use xlink:href="#DejaVuSans-2e" transform="translate(63.623047 0)"/>
       <use xlink:href="#DejaVuSans-38" transform="translate(95.410156 0)"/>
      </g>
     </g>
    </g>
    <g id="ytick_6">
     <g id="line2d_13">
      <path d="M 103.38 40.181449 
L 529.82 40.181449 
" clip-path="url(#p706a0b16ba)" style="fill: none; stroke-dasharray: 2.96,1.28; stroke-dashoffset: 0; stroke: #b0b0b0; stroke-opacity: 0.6; stroke-width: 0.8"/>
     </g>
     <g id="line2d_14">
      <g>
       <use xlink:href="#md79892e6b9" x="103.38" y="40.181449" style="stroke: #000000; stroke-width: 0.8"/>
      </g>
     </g>
     <g id="text_9">
      <!-- 1.0 -->
      <g transform="translate(80.476875 43.980668) scale(0.1 -0.1)">
       <defs>
        <path id="DejaVuSans-31" d="M 794 531 
L 1825 531 
L 1825 4091 
L 703 3866 
L 703 4441 
L 1819 4666 
L 2450 4666 
L 2450 531 
L 3481 531 
L 3481 0 
L 794 0 
L 794 531 
z
" transform="scale(0.015625)"/>
       </defs>
       <use xlink:href="#DejaVuSans-31"/>
       <use xlink:href="#DejaVuSans-2e" transform="translate(63.623047 0)"/>
       <use xlink:href="#DejaVuSans-30" transform="translate(95.410156 0)"/>
      </g>
     </g>
    </g>
    <g id="text_10">
     <!-- Normalized Gini Index (0 = Equality, 1 = Monopoly) -->
     <g transform="translate(73.98125 358.820937) rotate(-90) scale(0.12 -0.12)">
      <defs>
       <path id="DejaVuSans-61" d="M 2194 1759 
Q 1497 1759 1228 1600 
Q 959 1441 959 1056 
Q 959 750 1161 570 
Q 1363 391 1709 391 
Q 2188 391 2477 730 
Q 2766 1069 2766 1631 
L 2766 1759 
L 2194 1759 
z
M 3341 1997 
L 3341 0 
L 2766 0 
L 2766 531 
Q 2569 213 2275 61 
Q 1981 -91 1556 -91 
Q 1019 -91 701 211 
Q 384 513 384 1019 
Q 384 1609 779 1909 
Q 1175 2209 1959 2209 
L 2766 2209 
L 2766 2266 
Q 2766 2663 2505 2880 
Q 2244 3097 1772 3097 
Q 1472 3097 1187 3025 
Q 903 2953 641 2809 
L 641 3341 
Q 956 3463 1253 3523 
Q 1550 3584 1831 3584 
Q 2591 3584 2966 3190 
Q 3341 2797 3341 1997 
z
" transform="scale(0.015625)"/>
       <path id="DejaVuSans-6c" d="M 603 4863 
L 1178 4863 
L 1178 0 
L 603 0 
L 603 4863 
z
" transform="scale(0.015625)"/>
       <path id="DejaVuSans-7a" d="M 353 3500 
L 3084 3500 
L 3084 2975 
L 922 459 
L 3084 459 
L 3084 0 
L 275 0 
L 275 525 
L 2438 3041 
L 353 3041 
L 353 3500 
z
" transform="scale(0.015625)"/>
       <path id="DejaVuSans-64" d="M 2906 2969 
L 2906 4863 
L 3481 4863 
L 3481 0 
L 2906 0 
L 2906 525 
Q 2725 213 2448 61 
Q 2172 -91 1784 -91 
Q 1150 -91 751 415 
Q 353 922 353 1747 
Q 353 2572 751 3078 
Q 1150 3584 1784 3584 
Q 2172 3584 2448 3432 
Q 2725 3281 2906 2969 
z
M 947 1747 
Q 947 1113 1208 752 
Q 1469 391 1925 391 
Q 2381 391 2643 752 
Q 2906 1113 2906 1747 
Q 2906 2381 2643 2742 
Q 2381 3103 1925 3103 
Q 1469 3103 1208 2742 
Q 947 2381 947 1747 
z
" transform="scale(0.015625)"/>
       <path id="DejaVuSans-47" d="M 3809 666 
L 3809 1919 
L 2778 1919 
L 2778 2438 
L 4434 2438 
L 4434 434 
Q 4069 175 3628 42 
Q 3188 -91 2688 -91 
Q 1594 -91 976 548 
Q 359 1188 359 2328 
Q 359 3472 976 4111 
Q 1594 4750 2688 4750 
Q 3144 4750 3555 4637 
Q 3966 4525 4313 4306 
L 4313 3634 
Q 3963 3931 3569 4081 
Q 3175 4231 2741 4231 
Q 1884 4231 1454 3753 
Q 1025 3275 1025 2328 
Q 1025 1384 1454 906 
Q 1884 428 2741 428 
Q 3075 428 3337 486 
Q 3600 544 3809 666 
z
" transform="scale(0.015625)"/>
       <path id="DejaVuSans-49" d="M 628 4666 
L 1259 4666 
L 1259 0 
L 628 0 
L 628 4666 
z
" transform="scale(0.015625)"/>
       <path id="DejaVuSans-78" d="M 3513 3500 
L 2247 1797 
L 3578 0 
L 2900 0 
L 1881 1375 
L 863 0 
L 184 0 
L 1544 1831 
L 300 3500 
L 978 3500 
L 1906 2253 
L 2834 3500 
L 3513 3500 
z
" transform="scale(0.015625)"/>
       <path id="DejaVuSans-28" d="M 1984 4856 
Q 1566 4138 1362 3434 
Q 1159 2731 1159 2009 
Q 1159 1288 1364 580 
Q 1569 -128 1984 -844 
L 1484 -844 
Q 1016 -109 783 600 
Q 550 1309 550 2009 
Q 550 2706 781 3412 
Q 1013 4119 1484 4856 
L 1984 4856 
z
" transform="scale(0.015625)"/>
       <path id="DejaVuSans-3d" d="M 678 2906 
L 4684 2906 
L 4684 2381 
L 678 2381 
L 678 2906 
z
M 678 1631 
L 4684 1631 
L 4684 1100 
L 678 1100 
L 678 1631 
z
" transform="scale(0.015625)"/>
       <path id="DejaVuSans-45" d="M 628 4666 
L 3578 4666 
L 3578 4134 
L 1259 4134 
L 1259 2753 
L 3481 2753 
L 3481 2222 
L 1259 2222 
L 1259 531 
L 3634 531 
L 3634 0 
L 628 0 
L 628 4666 
z
" transform="scale(0.015625)"/>
       <path id="DejaVuSans-71" d="M 947 1747 
Q 947 1113 1208 752 
Q 1469 391 1925 391 
Q 2381 391 2643 752 
Q 2906 1113 2906 1747 
Q 2906 2381 2643 2742 
Q 2381 3103 1925 3103 
Q 1469 3103 1208 2742 
Q 947 2381 947 1747 
z
M 2906 525 
Q 2725 213 2448 61 
Q 2172 -91 1784 -91 
Q 1150 -91 751 415 
Q 353 922 353 1747 
Q 353 2572 751 3078 
Q 1150 3584 1784 3584 
Q 2172 3584 2448 3432 
Q 2725 3281 2906 2969 
L 2906 3500 
L 3481 3500 
L 3481 -1331 
L 2906 -1331 
L 2906 525 
z
" transform="scale(0.015625)"/>
       <path id="DejaVuSans-79" d="M 2059 -325 
Q 1816 -950 1584 -1140 
Q 1353 -1331 966 -1331 
L 506 -1331 
L 506 -850 
L 844 -850 
Q 1081 -850 1212 -737 
Q 1344 -625 1503 -206 
L 1606 56 
L 191 3500 
L 800 3500 
L 1894 763 
L 2988 3500 
L 3597 3500 
L 2059 -325 
z
" transform="scale(0.015625)"/>
       <path id="DejaVuSans-2c" d="M 750 794 
L 1409 794 
L 1409 256 
L 897 -744 
L 494 -744 
L 750 256 
L 750 794 
z
" transform="scale(0.015625)"/>
       <path id="DejaVuSans-4d" d="M 628 4666 
L 1569 4666 
L 2759 1491 
L 3956 4666 
L 4897 4666 
L 4897 0 
L 4281 0 
L 4281 4097 
L 3078 897 
L 2444 897 
L 1241 4097 
L 1241 0 
L 628 0 
L 628 4666 
z
" transform="scale(0.015625)"/>
       <path id="DejaVuSans-29" d="M 513 4856 
L 1013 4856 
Q 1481 4119 1714 3412 
Q 1947 2706 1947 2009 
Q 1947 1309 1714 600 
Q 1481 -109 1013 -844 
L 513 -844 
Q 928 -128 1133 580 
Q 1338 1288 1338 2009 
Q 1338 2731 1133 3434 
Q 928 4138 513 4856 
z
" transform="scale(0.015625)"/>
      </defs>
      <use xlink:href="#DejaVuSans-4e"/>
      <use xlink:href="#DejaVuSans-6f" transform="translate(74.804688 0)"/>
      <use xlink:href="#DejaVuSans-72" transform="translate(135.986328 0)"/>
      <use xlink:href="#DejaVuSans-6d" transform="translate(175.349609 0)"/>
      <use xlink:href="#DejaVuSans-61" transform="translate(272.761719 0)"/>
      <use xlink:href="#DejaVuSans-6c" transform="translate(334.041016 0)"/>
      <use xlink:href="#DejaVuSans-69" transform="translate(361.824219 0)"/>
      <use xlink:href="#DejaVuSans-7a" transform="translate(389.607422 0)"/>
      <use xlink:href="#DejaVuSans-65" transform="translate(442.097656 0)"/>
      <use xlink:href="#DejaVuSans-64" transform="translate(503.621094 0)"/>
      <use xlink:href="#DejaVuSans-20" transform="translate(567.097656 0)"/>
      <use xlink:href="#DejaVuSans-47" transform="translate(598.884766 0)"/>
      <use xlink:href="#DejaVuSans-69" transform="translate(676.375 0)"/>
      <use xlink:href="#DejaVuSans-6e" transform="translate(704.158203 0)"/>
      <use xlink:href="#DejaVuSans-69" transform="translate(767.537109 0)"/>
      <use xlink:href="#DejaVuSans-20" transform="translate(795.320312 0)"/>
      <use xlink:href="#DejaVuSans-49" transform="translate(827.107422 0)"/>
      <use xlink:href="#DejaVuSans-6e" transform="translate(856.599609 0)"/>
      <use xlink:href="#DejaVuSans-64" transform="translate(919.978516 0)"/>
      <use xlink:href="#DejaVuSans-65" transform="translate(983.455078 0)"/>
      <use xlink:href="#DejaVuSans-78" transform="translate(1043.228516 0)"/>
      <use xlink:href="#DejaVuSans-20" transform="translate(1102.408203 0)"/>
      <use xlink:href="#DejaVuSans-28" transform="translate(1134.195312 0)"/>
      <use xlink:href="#DejaVuSans-30" transform="translate(1173.208984 0)"/>
      <use xlink:href="#DejaVuSans-20" transform="translate(1236.832031 0)"/>
      <use xlink:href="#DejaVuSans-3d" transform="translate(1268.619141 0)"/>
      <use xlink:href="#DejaVuSans-20" transform="translate(1352.408203 0)"/>
      <use xlink:href="#DejaVuSans-45" transform="translate(1384.195312 0)"/>
      <use xlink:href="#DejaVuSans-71" transform="translate(1447.378906 0)"/>
      <use xlink:href="#DejaVuSans-75" transform="translate(1510.855469 0)"/>
      <use xlink:href="#DejaVuSans-61" transform="translate(1574.234375 0)"/>
      <use xlink:href="#DejaVuSans-6c" transform="translate(1635.513672 0)"/>
      <use xlink:href="#DejaVuSans-69" transform="translate(1663.296875 0)"/>
      <use xlink:href="#DejaVuSans-74" transform="translate(1691.080078 0)"/>
      <use xlink:href="#DejaVuSans-79" transform="translate(1730.289062 0)"/>
      <use xlink:href="#DejaVuSans-2c" transform="translate(1789.46875 0)"/>
      <use xlink:href="#DejaVuSans-20" transform="translate(1821.255859 0)"/>
      <use xlink:href="#DejaVuSans-31" transform="translate(1853.042969 0)"/>
      <use xlink:href="#DejaVuSans-20" transform="translate(1916.666016 0)"/>
      <use xlink:href="#DejaVuSans-3d" transform="translate(1948.453125 0)"/>
      <use xlink:href="#DejaVuSans-20" transform="translate(2032.242188 0)"/>
      <use xlink:href="#DejaVuSans-4d" transform="translate(2064.029297 0)"/>
      <use xlink:href="#DejaVuSans-6f" transform="translate(2150.308594 0)"/>
      <use xlink:href="#DejaVuSans-6e" transform="translate(2211.490234 0)"/>
      <use xlink:href="#DejaVuSans-6f" transform="translate(2274.869141 0)"/>
      <use xlink:href="#DejaVuSans-70" transform="translate(2336.050781 0)"/>
      <use xlink:href="#DejaVuSans-6f" transform="translate(2399.527344 0)"/>
      <use xlink:href="#DejaVuSans-6c" transform="translate(2460.708984 0)"/>
      <use xlink:href="#DejaVuSans-79" transform="translate(2488.492188 0)"/>
      <use xlink:href="#DejaVuSans-29" transform="translate(2547.671875 0)"/>
     </g>
    </g>
   </g>
   <g id="line2d_15">
    <path d="M 173.827062 127.78334 
L 209.99 127.78334 
" clip-path="url(#p706a0b16ba)" style="fill: none; stroke-dasharray: 1.5,0.9; stroke-dashoffset: 0; stroke: #6a6a6a; stroke-width: 1.2"/>
   </g>
   <g id="line2d_16">
    <path d="M 127.540137 101.633522 
L 209.99 101.633522 
" clip-path="url(#p706a0b16ba)" style="fill: none; stroke-dasharray: 3,1.2; stroke-dashoffset: 0; stroke: #6a6a6a; stroke-width: 1.2"/>
   </g>
   <g id="line2d_17">
    <path d="M 128.660566 89.866103 
L 209.99 89.866103 
" clip-path="url(#p706a0b16ba)" style="fill: none; stroke-dasharray: 1.5,0.9; stroke-dashoffset: 0; stroke: #6a6a6a; stroke-width: 1.2"/>
   </g>
   <g id="line2d_18">
    <path d="M 209.99 180.900158 
L 233.725372 180.900158 
" clip-path="url(#p706a0b16ba)" style="fill: none; stroke-dasharray: 1.5,0.9; stroke-dashoffset: 0; stroke: #6a6a6a; stroke-width: 1.2"/>
   </g>
   <g id="line2d_19">
    <path d="M 209.99 111.439703 
L 264.909238 111.439703 
" clip-path="url(#p706a0b16ba)" style="fill: none; stroke-dasharray: 3,1.2; stroke-dashoffset: 0; stroke: #6a6a6a; stroke-width: 1.2"/>
   </g>
   <g id="line2d_20">
    <path d="M 209.99 93.134831 
L 277.854342 93.134831 
" clip-path="url(#p706a0b16ba)" style="fill: none; stroke-dasharray: 1.5,0.9; stroke-dashoffset: 0; stroke: #6a6a6a; stroke-width: 1.2"/>
   </g>
   <g id="line2d_21">
    <path d="M 372.630167 184.86349 
L 423.21 184.86349 
" clip-path="url(#p706a0b16ba)" style="fill: none; stroke-dasharray: 1.5,0.9; stroke-dashoffset: 0; stroke: #6a6a6a; stroke-width: 1.2"/>
   </g>
   <g id="line2d_22">
    <path d="M 352.333275 159.816867 
L 423.21 159.816867 
" clip-path="url(#p706a0b16ba)" style="fill: none; stroke-dasharray: 3,1.2; stroke-dashoffset: 0; stroke: #6a6a6a; stroke-width: 1.2"/>
   </g>
   <g id="line2d_23">
    <path d="M 347.568446 142.656049 
L 423.21 142.656049 
" clip-path="url(#p706a0b16ba)" style="fill: none; stroke-dasharray: 1.5,0.9; stroke-dashoffset: 0; stroke: #6a6a6a; stroke-width: 1.2"/>
   </g>
   <g id="line2d_24">
    <path d="M 423.21 186.620431 
L 468.671199 186.620431 
" clip-path="url(#p706a0b16ba)" style="fill: none; stroke-dasharray: 1.5,0.9; stroke-dashoffset: 0; stroke: #6a6a6a; stroke-width: 1.2"/>
   </g>
   <g id="line2d_25">
    <path d="M 423.21 160.634049 
L 502.294289 160.634049 
" clip-path="url(#p706a0b16ba)" style="fill: none; stroke-dasharray: 3,1.2; stroke-dashoffset: 0; stroke: #6a6a6a; stroke-width: 1.2"/>
   </g>
   <g id="line2d_26">
    <path d="M 423.21 145.271031 
L 505.18686 145.271031 
" clip-path="url(#p706a0b16ba)" style="fill: none; stroke-dasharray: 1.5,0.9; stroke-dashoffset: 0; stroke: #6a6a6a; stroke-width: 1.2"/>
   </g>
   <g id="patch_5">
    <path d="M 103.38 383.397812 
L 103.38 23.837812 
" style="fill: none; stroke: #000000; stroke-width: 0.8; stroke-linejoin: miter; stroke-linecap: square"/>
   </g>
   <g id="patch_6">
    <path d="M 529.82 383.397812 
L 529.82 23.837812 
" style="fill: none; stroke: #000000; stroke-width: 0.8; stroke-linejoin: miter; stroke-linecap: square"/>
   </g>
   <g id="patch_7">
    <path d="M 103.38 383.397812 
L 529.82 383.397812 
" style="fill: none; stroke: #000000; stroke-width: 0.8; stroke-linejoin: miter; stroke-linecap: square"/>
   </g>
   <g id="patch_8">
    <path d="M 103.38 23.837812 
L 529.82 23.837812 
" style="fill: none; stroke: #000000; stroke-width: 0.8; stroke-linejoin: miter; stroke-linecap: square"/>
   </g>
   <g id="text_11">
    <!-- Impact of Topic Quantity on Attention Inequality/n(Distribution of Normalized Gini Index) -->
    <g transform="translate(7.2 17.837812) scale(0.14 -0.14)">
     <defs>
      <path id="DejaVuSans-51" d="M 2522 4238 
Q 1834 4238 1429 3725 
Q 1025 3213 1025 2328 
Q 1025 1447 1429 934 
Q 1834 422 2522 422 
Q 3209 422 3611 934 
Q 4013 1447 4013 2328 
Q 4013 3213 3611 3725 
Q 3209 4238 2522 4238 
z
M 3406 84 
L 4238 -825 
L 3475 -825 
L 2784 -78 
Q 2681 -84 2626 -87 
Q 2572 -91 2522 -91 
Q 1538 -91 948 567 
Q 359 1225 359 2328 
Q 359 3434 948 4092 
Q 1538 4750 2522 4750 
Q 3503 4750 4090 4092 
Q 4678 3434 4678 2328 
Q 4678 1516 4351 937 
Q 4025 359 3406 84 
z
" transform="scale(0.015625)"/>
      <path id="DejaVuSans-41" d="M 2188 4044 
L 1331 1722 
L 3047 1722 
L 2188 4044 
z
M 1831 4666 
L 2547 4666 
L 4325 0 
L 3669 0 
L 3244 1197 
L 1141 1197 
L 716 0 
L 50 0 
L 1831 4666 
z
" transform="scale(0.015625)"/>
      <path id="DejaVuSans-2f" d="M 1625 4666 
L 2156 4666 
L 531 -594 
L 0 -594 
L 1625 4666 
z
" transform="scale(0.015625)"/>
      <path id="DejaVuSans-44" d="M 1259 4147 
L 1259 519 
L 2022 519 
Q 2988 519 3436 956 
Q 3884 1394 3884 2338 
Q 3884 3275 3436 3711 
Q 2988 4147 2022 4147 
L 1259 4147 
z
M 628 4666 
L 1925 4666 
Q 3281 4666 3915 4102 
Q 4550 3538 4550 2338 
Q 4550 1131 3912 565 
Q 3275 0 1925 0 
L 628 0 
L 628 4666 
z
" transform="scale(0.015625)"/>
     </defs>
     <use xlink:href="#DejaVuSans-49"/>
     <use xlink:href="#DejaVuSans-6d" transform="translate(29.492188 0)"/>
     <use xlink:href="#DejaVuSans-70" transform="translate(126.904297 0)"/>
     <use xlink:href="#DejaVuSans-61" transform="translate(190.380859 0)"/>
     <use xlink:href="#DejaVuSans-63" transform="translate(251.660156 0)"/>
     <use xlink:href="#DejaVuSans-74" transform="translate(306.640625 0)"/>
     <use xlink:href="#DejaVuSans-20" transform="translate(345.849609 0)"/>
     <use xlink:href="#DejaVuSans-6f" transform="translate(377.636719 0)"/>
     <use xlink:href="#DejaVuSans-66" transform="translate(438.818359 0)"/>
     <use xlink:href="#DejaVuSans-20" transform="translate(474.023438 0)"/>
     <use xlink:href="#DejaVuSans-54" transform="translate(505.810547 0)"/>
     <use xlink:href="#DejaVuSans-6f" transform="translate(549.894531 0)"/>
     <use xlink:href="#DejaVuSans-70" transform="translate(611.076172 0)"/>
     <use xlink:href="#DejaVuSans-69" transform="translate(674.552734 0)"/>
     <use xlink:href="#DejaVuSans-63" transform="translate(702.335938 0)"/>
     <use xlink:href="#DejaVuSans-20" transform="translate(757.316406 0)"/>
     <use xlink:href="#DejaVuSans-51" transform="translate(789.103516 0)"/>
     <use xlink:href="#DejaVuSans-75" transform="translate(867.814453 0)"/>
     <use xlink:href="#DejaVuSans-61" transform="translate(931.193359 0)"/>
     <use xlink:href="#DejaVuSans-6e" transform="translate(992.472656 0)"/>
     <use xlink:href="#DejaVuSans-74" transform="translate(1055.851562 0)"/>
     <use xlink:href="#DejaVuSans-69" transform="translate(1095.060547 0)"/>
     <use xlink:href="#DejaVuSans-74" transform="translate(1122.84375 0)"/>
     <use xlink:href="#DejaVuSans-79" transform="translate(1162.052734 0)"/>
     <use xlink:href="#DejaVuSans-20" transform="translate(1221.232422 0)"/>
     <use xlink:href="#DejaVuSans-6f" transform="translate(1253.019531 0)"/>
     <use xlink:href="#DejaVuSans-6e" transform="translate(1314.201172 0)"/>
     <use xlink:href="#DejaVuSans-20" transform="translate(1377.580078 0)"/>
     <use xlink:href="#DejaVuSans-41" transform="translate(1409.367188 0)"/>
     <use xlink:href="#DejaVuSans-74" transform="translate(1476.025391 0)"/>
     <use xlink:href="#DejaVuSans-74" transform="translate(1515.234375 0)"/>
     <use xlink:href="#DejaVuSans-65" transform="translate(1554.443359 0)"/>
     <use xlink:href="#DejaVuSans-6e" transform="translate(1615.966797 0)"/>
     <use xlink:href="#DejaVuSans-74" transform="translate(1679.345703 0)"/>
     <use xlink:href="#DejaVuSans-69" transform="translate(1718.554688 0)"/>
     <use xlink:href="#DejaVuSans-6f" transform="translate(1746.337891 0)"/>
     <use xlink:href="#DejaVuSans-6e" transform="translate(1807.519531 0)"/>
     <use xlink:href="#DejaVuSans-20" transform="translate(1870.898438 0)"/>
     <use xlink:href="#DejaVuSans-49" transform="translate(1902.685547 0)"/>
     <use xlink:href="#DejaVuSans-6e" transform="translate(1932.177734 0)"/>
     <use xlink:href="#DejaVuSans-65" transform="translate(1995.556641 0)"/>
     <use xlink:href="#DejaVuSans-71" transform="translate(2057.080078 0)"/>
     <use xlink:href="#DejaVuSans-75" transform="translate(2120.556641 0)"/>
     <use xlink:href="#DejaVuSans-61" transform="translate(2183.935547 0)"/>
     <use xlink:href="#DejaVuSans-6c" transform="translate(2245.214844 0)"/>
     <use xlink:href="#DejaVuSans-69" transform="translate(2272.998047 0)"/>
     <use xlink:href="#DejaVuSans-74" transform="translate(2300.78125 0)"/>
     <use xlink:href="#DejaVuSans-79" transform="translate(2339.990234 0)"/>
     <use xlink:href="#DejaVuSans-2f" transform="translate(2399.169922 0)"/>
     <use xlink:href="#DejaVuSans-6e" transform="translate(2432.861328 0)"/>
     <use xlink:href="#DejaVuSans-28" transform="translate(2496.240234 0)"/>
     <use xlink:href="#DejaVuSans-44" transform="translate(2535.253906 0)"/>
     <use xlink:href="#DejaVuSans-69" transform="translate(2612.255859 0)"/>
     <use xlink:href="#DejaVuSans-73" transform="translate(2640.039062 0)"/>
     <use xlink:href="#DejaVuSans-74" transform="translate(2692.138672 0)"/>
     <use xlink:href="#DejaVuSans-72" transform="translate(2731.347656 0)"/>
     <use xlink:href="#DejaVuSans-69" transform="translate(2772.460938 0)"/>
     <use xlink:href="#DejaVuSans-62" transform="translate(2800.244141 0)"/>
     <use xlink:href="#DejaVuSans-75" transform="translate(2863.720703 0)"/>
     <use xlink:href="#DejaVuSans-74" transform="translate(2927.099609 0)"/>
     <use xlink:href="#DejaVuSans-69" transform="translate(2966.308594 0)"/>
     <use xlink:href="#DejaVuSans-6f" transform="translate(2994.091797 0)"/>
     <use xlink:href="#DejaVuSans-6e" transform="translate(3055.273438 0)"/>
     <use xlink:href="#DejaVuSans-20" transform="translate(3118.652344 0)"/>
     <use xlink:href="#DejaVuSans-6f" transform="translate(3150.439453 0)"/>
     <use xlink:href="#DejaVuSans-66" transform="translate(3211.621094 0)"/>
     <use xlink:href="#DejaVuSans-20" transform="translate(3246.826172 0)"/>
     <use xlink:href="#DejaVuSans-4e" transform="translate(3278.613281 0)"/>
     <use xlink:href="#DejaVuSans-6f" transform="translate(3353.417969 0)"/>
     <use xlink:href="#DejaVuSans-72" transform="translate(3414.599609 0)"/>
     <use xlink:href="#DejaVuSans-6d" transform="translate(3453.962891 0)"/>
     <use xlink:href="#DejaVuSans-61" transform="translate(3551.375 0)"/>
     <use xlink:href="#DejaVuSans-6c" transform="translate(3612.654297 0)"/>
     <use xlink:href="#DejaVuSans-69" transform="translate(3640.4375 0)"/>
     <use xlink:href="#DejaVuSans-7a" transform="translate(3668.220703 0)"/>
     <use xlink:href="#DejaVuSans-65" transform="translate(3720.710938 0)"/>
     <use xlink:href="#DejaVuSans-64" transform="translate(3782.234375 0)"/>
     <use xlink:href="#DejaVuSans-20" transform="translate(3845.710938 0)"/>
     <use xlink:href="#DejaVuSans-47" transform="translate(3877.498047 0)"/>
     <use xlink:href="#DejaVuSans-69" transform="translate(3954.988281 0)"/>
     <use xlink:href="#DejaVuSans-6e" transform="translate(3982.771484 0)"/>
     <use xlink:href="#DejaVuSans-69" transform="translate(4046.150391 0)"/>
     <use xlink:href="#DejaVuSans-20" transform="translate(4073.933594 0)"/>
     <use xlink:href="#DejaVuSans-49" transform="translate(4105.720703 0)"/>
     <use xlink:href="#DejaVuSans-6e" transform="translate(4135.212891 0)"/>
     <use xlink:href="#DejaVuSans-64" transform="translate(4198.591797 0)"/>
     <use xlink:href="#DejaVuSans-65" transform="translate(4262.068359 0)"/>
     <use xlink:href="#DejaVuSans-78" transform="translate(4321.841797 0)"/>
     <use xlink:href="#DejaVuSans-29" transform="translate(4381.021484 0)"/>
    </g>
   </g>
   <g id="legend_1">
    <g id="patch_9">
     <path d="M 536.82 75.872187 
L 688.140313 75.872187 
Q 690.140313 75.872187 690.140313 73.872187 
L 690.140313 30.837812 
Q 690.140313 28.837812 688.140313 28.837812 
L 536.82 28.837812 
Q 534.82 28.837812 534.82 30.837812 
L 534.82 73.872187 
Q 534.82 75.872187 536.82 75.872187 
z
" style="fill: #ffffff; opacity: 0.8; stroke: #cccccc; stroke-linejoin: miter"/>
    </g>
    <g id="text_12">
     <!-- Societal Distribution -->
     <g transform="translate(561.860625 40.43625) scale(0.1 -0.1)">
      <defs>
       <path id="DejaVuSans-53" d="M 3425 4513 
L 3425 3897 
Q 3066 4069 2747 4153 
Q 2428 4238 2131 4238 
Q 1616 4238 1336 4038 
Q 1056 3838 1056 3469 
Q 1056 3159 1242 3001 
Q 1428 2844 1947 2747 
L 2328 2669 
Q 3034 2534 3370 2195 
Q 3706 1856 3706 1288 
Q 3706 609 3251 259 
Q 2797 -91 1919 -91 
Q 1588 -91 1214 -16 
Q 841 59 441 206 
L 441 856 
Q 825 641 1194 531 
Q 1563 422 1919 422 
Q 2459 422 2753 634 
Q 3047 847 3047 1241 
Q 3047 1584 2836 1778 
Q 2625 1972 2144 2069 
L 1759 2144 
Q 1053 2284 737 2584 
Q 422 2884 422 3419 
Q 422 4038 858 4394 
Q 1294 4750 2059 4750 
Q 2388 4750 2728 4690 
Q 3069 4631 3425 4513 
z
" transform="scale(0.015625)"/>
      </defs>
      <use xlink:href="#DejaVuSans-53"/>
      <use xlink:href="#DejaVuSans-6f" transform="translate(63.476562 0)"/>
      <use xlink:href="#DejaVuSans-63" transform="translate(124.658203 0)"/>
      <use xlink:href="#DejaVuSans-69" transform="translate(179.638672 0)"/>
      <use xlink:href="#DejaVuSans-65" transform="translate(207.421875 0)"/>
      <use xlink:href="#DejaVuSans-74" transform="translate(268.945312 0)"/>
      <use xlink:href="#DejaVuSans-61" transform="translate(308.154297 0)"/>
      <use xlink:href="#DejaVuSans-6c" transform="translate(369.433594 0)"/>
      <use xlink:href="#DejaVuSans-20" transform="translate(397.216797 0)"/>
      <use xlink:href="#DejaVuSans-44" transform="translate(429.003906 0)"/>
      <use xlink:href="#DejaVuSans-69" transform="translate(506.005859 0)"/>
      <use xlink:href="#DejaVuSans-73" transform="translate(533.789062 0)"/>
      <use xlink:href="#DejaVuSans-74" transform="translate(585.888672 0)"/>
      <use xlink:href="#DejaVuSans-72" transform="translate(625.097656 0)"/>
      <use xlink:href="#DejaVuSans-69" transform="translate(666.210938 0)"/>
      <use xlink:href="#DejaVuSans-62" transform="translate(693.994141 0)"/>
      <use xlink:href="#DejaVuSans-75" transform="translate(757.470703 0)"/>
      <use xlink:href="#DejaVuSans-74" transform="translate(820.849609 0)"/>
      <use xlink:href="#DejaVuSans-69" transform="translate(860.058594 0)"/>
      <use xlink:href="#DejaVuSans-6f" transform="translate(887.841797 0)"/>
      <use xlink:href="#DejaVuSans-6e" transform="translate(949.023438 0)"/>
     </g>
    </g>
    <g id="patch_10">
     <path d="M 538.82 55.114375 
L 558.82 55.114375 
L 558.82 48.114375 
L 538.82 48.114375 
z
" style="fill: #96cac1; stroke: #6a6a6a; stroke-width: 1.2; stroke-linejoin: miter"/>
    </g>
    <g id="text_13">
     <!-- Polarized (Bimodal) -->
     <g transform="translate(566.82 55.114375) scale(0.1 -0.1)">
      <defs>
       <path id="DejaVuSans-50" d="M 1259 4147 
L 1259 2394 
L 2053 2394 
Q 2494 2394 2734 2622 
Q 2975 2850 2975 3272 
Q 2975 3691 2734 3919 
Q 2494 4147 2053 4147 
L 1259 4147 
z
M 628 4666 
L 2053 4666 
Q 2838 4666 3239 4311 
Q 3641 3956 3641 3272 
Q 3641 2581 3239 2228 
Q 2838 1875 2053 1875 
L 1259 1875 
L 1259 0 
L 628 0 
L 628 4666 
z
" transform="scale(0.015625)"/>
       <path id="DejaVuSans-42" d="M 1259 2228 
L 1259 519 
L 2272 519 
Q 2781 519 3026 730 
Q 3272 941 3272 1375 
Q 3272 1813 3026 2020 
Q 2781 2228 2272 2228 
L 1259 2228 
z
M 1259 4147 
L 1259 2741 
L 2194 2741 
Q 2656 2741 2882 2914 
Q 3109 3088 3109 3444 
Q 3109 3797 2882 3972 
Q 2656 4147 2194 4147 
L 1259 4147 
z
M 628 4666 
L 2241 4666 
Q 2963 4666 3353 4366 
Q 3744 4066 3744 3513 
Q 3744 3084 3544 2831 
Q 3344 2578 2956 2516 
Q 3422 2416 3680 2098 
Q 3938 1781 3938 1306 
Q 3938 681 3513 340 
Q 3088 0 2303 0 
L 628 0 
L 628 4666 
z
" transform="scale(0.015625)"/>
      </defs>
      <use xlink:href="#DejaVuSans-50"/>
      <use xlink:href="#DejaVuSans-6f" transform="translate(56.677734 0)"/>
      <use xlink:href="#DejaVuSans-6c" transform="translate(117.859375 0)"/>
      <use xlink:href="#DejaVuSans-61" transform="translate(145.642578 0)"/>
      <use xlink:href="#DejaVuSans-72" transform="translate(206.921875 0)"/>
      <use xlink:href="#DejaVuSans-69" transform="translate(248.035156 0)"/>
      <use xlink:href="#DejaVuSans-7a" transform="translate(275.818359 0)"/>
      <use xlink:href="#DejaVuSans-65" transform="translate(328.308594 0)"/>
      <use xlink:href="#DejaVuSans-64" transform="translate(389.832031 0)"/>
      <use xlink:href="#DejaVuSans-20" transform="translate(453.308594 0)"/>
      <use xlink:href="#DejaVuSans-28" transform="translate(485.095703 0)"/>
      <use xlink:href="#DejaVuSans-42" transform="translate(524.109375 0)"/>
      <use xlink:href="#DejaVuSans-69" transform="translate(592.712891 0)"/>
      <use xlink:href="#DejaVuSans-6d" transform="translate(620.496094 0)"/>
      <use xlink:href="#DejaVuSans-6f" transform="translate(717.908203 0)"/>
      <use xlink:href="#DejaVuSans-64" transform="translate(779.089844 0)"/>
      <use xlink:href="#DejaVuSans-61" transform="translate(842.566406 0)"/>
      <use xlink:href="#DejaVuSans-6c" transform="translate(903.845703 0)"/>
      <use xlink:href="#DejaVuSans-29" transform="translate(931.628906 0)"/>
     </g>
    </g>
    <g id="patch_11">
     <path d="M 538.82 69.7925 
L 558.82 69.7925 
L 558.82 62.7925 
L 538.82 62.7925 
z
" style="fill: #f6f6bc; stroke: #6a6a6a; stroke-width: 1.2; stroke-linejoin: miter"/>
    </g>
    <g id="text_14">
     <!-- Homogeneous (Normal) -->
     <g transform="translate(566.82 69.7925) scale(0.1 -0.1)">
      <defs>
       <path id="DejaVuSans-48" d="M 628 4666 
L 1259 4666 
L 1259 2753 
L 3553 2753 
L 3553 4666 
L 4184 4666 
L 4184 0 
L 3553 0 
L 3553 2222 
L 1259 2222 
L 1259 0 
L 628 0 
L 628 4666 
z
" transform="scale(0.015625)"/>
      </defs>
      <use xlink:href="#DejaVuSans-48"/>
      <use xlink:href="#DejaVuSans-6f" transform="translate(75.195312 0)"/>
      <use xlink:href="#DejaVuSans-6d" transform="translate(136.376953 0)"/>
      <use xlink:href="#DejaVuSans-6f" transform="translate(233.789062 0)"/>
      <use xlink:href="#DejaVuSans-67" transform="translate(294.970703 0)"/>
      <use xlink:href="#DejaVuSans-65" transform="translate(358.447266 0)"/>
      <use xlink:href="#DejaVuSans-6e" transform="translate(419.970703 0)"/>
      <use xlink:href="#DejaVuSans-65" transform="translate(483.349609 0)"/>
      <use xlink:href="#DejaVuSans-6f" transform="translate(544.873047 0)"/>
      <use xlink:href="#DejaVuSans-75" transform="translate(606.054688 0)"/>
      <use xlink:href="#DejaVuSans-73" transform="translate(669.433594 0)"/>
      <use xlink:href="#DejaVuSans-20" transform="translate(721.533203 0)"/>
      <use xlink:href="#DejaVuSans-28" transform="translate(753.320312 0)"/>
      <use xlink:href="#DejaVuSans-4e" transform="translate(792.333984 0)"/>
      <use xlink:href="#DejaVuSans-6f" transform="translate(867.138672 0)"/>
      <use xlink:href="#DejaVuSans-72" transform="translate(928.320312 0)"/>
      <use xlink:href="#DejaVuSans-6d" transform="translate(967.683594 0)"/>
      <use xlink:href="#DejaVuSans-61" transform="translate(1065.095703 0)"/>
      <use xlink:href="#DejaVuSans-6c" transform="translate(1126.375 0)"/>
      <use xlink:href="#DejaVuSans-29" transform="translate(1154.158203 0)"/>
     </g>
    </g>
   </g>
  </g>
 </g>
 <defs>
  <clipPath id="p706a0b16ba">
   <rect x="103.38" y="23.837812" width="426.44" height="359.56"/>
  </clipPath>
 </defs>
</svg>
